<svg id="Layer_1" data-name="Layer 1" xmlns="http://www.w3.org/2000/svg" xmlns:xlink="http://www.w3.org/1999/xlink" viewBox="0 0 1009.4 989.82"><defs><style>.cls-1,.cls-5{fill:none;}.cls-2{clip-path:url(#clip-path);}.cls-3{isolation:isolate;}.cls-4{clip-path:url(#clip-path-2);}.cls-5{stroke:#272b33;stroke-linecap:square;stroke-width:2.5px;}.cls-6{clip-path:url(#clip-path-3);}.cls-7{clip-path:url(#clip-path-4);}.cls-8{fill:#acd2ff;}.cls-9{fill:#3679e0;}.cls-10{fill:#19529f;}</style><clipPath id="clip-path"><rect class="cls-1" x="73.07" y="347.36" width="811.7" height="530.29"/></clipPath><clipPath id="clip-path-2"><rect class="cls-1" x="73.07" y="347.16" width="812.72" height="530.65"/></clipPath><clipPath id="clip-path-3"><rect class="cls-1" x="73.07" y="77.27" width="811.7" height="811.7"/></clipPath><clipPath id="clip-path-4"><rect class="cls-1" x="73.07" y="76.25" width="812.72" height="812.72"/></clipPath></defs><g class="cls-2"><g class="cls-3"><g class="cls-4"><path class="cls-5" d="M-77.17-6.17l35.35-35.35m35.35,0-70.7,70.71m0,35.35L28.89-41.52m35.35,0L-77.17,99.89m0,35.35L99.59-41.52m35.35,0L-77.17,170.6m0,35.35L170.3-41.52m35.35,0L-77.17,241.3m0,35.36L241-41.52m35.35,0L-77.17,312m0,35.35L311.71-41.52m35.35,0L-77.17,382.71m0,35.36L382.41-41.52m35.36,0L-77.17,453.42m0,35.35L453.12-41.52m35.35,0L-77.17,524.13m0,35.35,601-601m35.36,0L-77.17,594.83m0,35.35,671.7-671.7m35.35,0-707,707.07m0,35.35L665.24-41.51m35.35,0L-77.17,736.24m0,35.37L735.94-41.52m35.35,0L-77.17,807m0,35.35L806.65-41.52m35.35,0L-77.18,877.66m0,35.36L877.35-41.52m35.35,0L-77.17,948.37m0,35.35L948.06-41.52m35.35,0L-77.18,1019.07m0,35.36L1018.76-41.52m35.36,0L-77.18,1089.78m35.36,0L1054.12-6.17m0,35.36L-6.48,1089.78m35.37,0L1054.13,64.55m0,35.34L64.23,1089.78m35.36,0,954.53-954.54m0,35.36L134.93,1089.77m35.37,0L1054.12,206m0,35.34L205.65,1089.77m35.35,0,813.12-813.11m0,35.34L276.35,1089.77m35.36,0,742.41-742.41m0,35.34L347.06,1089.77m35.35,0,671.71-671.7m0,35.34L417.77,1089.77m35.35,0,601-601m0,35.36L488.47,1089.78m35.35,0,530.3-530.29m0,35.34L559.18,1089.77m35.35,0,459.59-459.59m0,35.36L629.88,1089.78m35.36,0L1054.12,700.9m0,35.35L700.59,1089.78m35.35,0,318.18-318.17m0,35.35L771.29,1089.78m35.36,0,247.47-247.47m0,35.35L842,1089.78m35.35,0L1054.12,913m0,35.35L912.7,1089.78m35.36,0,106.06-106.06m0,35.35-70.71,70.71m35.35,0,35.36-35.35"/></g></g></g><g class="cls-6"><g class="cls-3"><g class="cls-7"><path class="cls-8" d="M506.15,709.74H629.88v88.38H506.15Zm-176.77,0H453.12v88.38H329.38Zm-176.76,0H276.35v88.38H152.62ZM682.91,568.32H806.65V656.7H682.91Zm-176.76,0H629.88V656.7H506.15Zm-353.53,0H276.35V656.7H152.62ZM682.91,426.91H806.65v88.38H682.91Zm-176.76,0H629.88v88.38H506.15Zm-176.77,0H453.12v88.38H329.38Zm-176.76,0H276.35v88.38H152.62ZM718.26,259a35.37,35.37,0,0,0,35.36-35.35V117.57c0-47.13-70.71-47.13-70.71,0V223.63A35.37,35.37,0,0,0,718.26,259m-238.63,0A35.37,35.37,0,0,0,515,223.63V117.57c0-47.13-70.71-47.13-70.71,0V223.63A35.37,35.37,0,0,0,479.63,259M241,259a35.36,35.36,0,0,0,35.35-35.35V117.57c0-47.13-70.7-47.13-70.7,0V223.63A35.37,35.37,0,0,0,241,259"/></g><g class="cls-7"><path class="cls-9" d="M73.08,170.6H886.19V347.36H73.08Zm256.3,397.73H453.12v88.38H329.38Z"/></g></g></g><path class="cls-10" d="M718.26,259a35.37,35.37,0,0,0,35.36-35.35v-53H682.91v53A35.37,35.37,0,0,0,718.26,259m-238.63,0A35.37,35.37,0,0,0,515,223.63v-53H444.28v53A35.37,35.37,0,0,0,479.63,259M241,259a35.36,35.36,0,0,0,35.35-35.35v-53h-70.7v53A35.37,35.37,0,0,0,241,259"/></svg>