<svg id="Layer_1" data-name="Layer 1" xmlns="http://www.w3.org/2000/svg" xmlns:xlink="http://www.w3.org/1999/xlink" viewBox="0 0 1266.64 920.62"><defs><style>.cls-1,.cls-6{fill:none;}.cls-2{fill:#acd2ff;}.cls-3{fill:#3679e0;}.cls-4{fill:#2a64ad;}.cls-5{clip-path:url(#clip-path);}.cls-6{stroke:#272b33;stroke-linecap:square;stroke-width:2.5px;}.cls-7{fill:#fff;}.cls-8{fill:#16509f;}</style><clipPath id="clip-path"><rect class="cls-1" x="310.12" y="252.6" width="472.64" height="255.33"/></clipPath></defs><path class="cls-2" d="M654.19,596l171.92,69.1,93.38-41.71-85.22,6.34L781,621.12c-34.94-5.76-28.1-57.87,7.15-54.38l48.36,5,111.45-26.36a131.14,131.14,0,0,1,79.85,6l116.41,46.69-50.51,125.42-55.49-20.79L882.11,759a67.15,67.15,0,0,1-54.38-4L629.43,649.08c-32.72-17.46-9.64-67,24.76-53.13"/><rect class="cls-3" x="1027.5" y="628.38" width="204.02" height="72.71" transform="translate(104.13 1480.97) rotate(-69)"/><path class="cls-4" d="M546.44,293.35a86.92,86.92,0,1,0,86.92,86.92,86.9,86.9,0,0,0-86.92-86.92"/><g class="cls-5"><rect class="cls-1" x="309.54" y="252.54" width="473.58" height="256.13"/><path class="cls-6" d="M141.71,46.16l21.73-21.73m21.72,0L141.71,67.9m0,21.72L206.9,24.43m21.73,0-86.92,86.92m0,21.73L250.36,24.43m21.72,0L141.71,154.82m0,21.73L293.82,24.44m21.73,0L141.71,198.27m0,21.73L337.28,24.43m21.74,0L141.71,241.74m0,21.73,239-239m21.73,0L141.71,285.19m0,21.74L424.2,24.43m21.74,0L141.71,328.66m0,21.73,326-325.95m21.73,0L141.71,372.11m0,21.74L511.13,24.43m21.73,0L141.71,415.58m0,21.73L554.58,24.44m21.73,0L141.71,459m0,21.73L598.05,24.43m21.73,0L141.71,502.5m0,21.73L641.5,24.44m21.75,0L141.72,546m0,21.72L685,24.43m21.73,0-565,565m0,21.74L728.42,24.43m21.74,0L141.71,632.88m0,21.73L771.89,24.43m21.73,0L141.71,676.34m21.73,0L793.62,46.16m0,21.74L185.17,676.34m21.73,0L793.61,89.63m0,21.72-565,565m21.73,0L793.62,133.08m0,21.74L272.09,676.34m21.73,0L793.61,176.55m0,21.72L315.55,676.34m21.73,0L793.62,220m0,21.74L359,676.34m21.72,0L793.61,263.47m0,21.72L402.47,676.34m21.73,0L793.62,306.93m0,21.73L445.94,676.34m21.72,0,326-326m0,21.72L489.39,676.34m21.74,0L793.62,393.85m0,21.73L532.86,676.34m21.72,0,239-239m0,21.74L576.31,676.34m21.74,0L793.62,480.77m0,21.73L619.78,676.34m21.72,0L793.61,524.23m0,21.74L663.25,676.34m21.72,0L793.62,567.69m0,21.73L706.7,676.34m21.72,0,65.19-65.18m0,21.73-43.45,43.45m21.72,0,21.73-21.73"/></g><path class="cls-2" d="M413.91,370.28,310.12,307.1V252.61h201L379.67,169.35a61.33,61.33,0,0,0-63.78-1.16l-98.12,57.24H158V377.55H259.1l121.45,55.57c40.71,18.58,71.56-39.53,33.36-62.84"/><rect class="cls-3" x="119.98" y="192.84" width="76.06" height="217.3"/><path class="cls-7" d="M538.64,442.2V428.33c-9.78-.42-19.25-3.05-24.8-6.28l4.39-17a51.61,51.61,0,0,0,24.19,6.39c8.32,0,14-3.19,14-9,0-5.55-4.68-9-15.46-12.68-15.62-5.25-26.25-12.55-26.25-26.68,0-12.85,9.06-22.88,24.64-26V323.22h14.29V336c9.78.45,16.33,2.49,21.14,4.8l-4.21,16.51c-3.79-1.62-10.5-5-21-5-9.48,0-12.54,4.11-12.54,8.17,0,4.81,5.09,7.87,17.48,12.54,17.35,6.14,24.36,14.15,24.36,27.27,0,13-9.19,24-26,27V442.2H538.64"/><rect class="cls-8" x="158.21" y="225.55" width="37.28" height="151.92"/><polyline class="cls-8" points="1144.18 598.1 1093.67 723.52 1071.38 715.34 1120.07 588.21 1130.3 592.32"/></svg>