<svg xmlns="http://www.w3.org/2000/svg" xmlns:xlink="http://www.w3.org/1999/xlink" viewBox="0 0 480 480"><defs><style>.cls-1,.cls-4{fill:none;}.cls-2{isolation:isolate;}.cls-3{clip-path:url(#clip-path);}.cls-4{stroke:#565656;stroke-miterlimit:10;stroke-width:0.57px;}.cls-5{clip-path:url(#clip-path-2);}.cls-6,.cls-7{fill:#c0f25d;}.cls-7{mix-blend-mode:multiply;}.cls-8{clip-path:url(#clip-path-3);}.cls-9{clip-path:url(#clip-path-4);}</style><clipPath id="clip-path"><polygon class="cls-1" points="-501.66 293.57 -454.86 283.83 -491.2 246.93 -501.66 293.57"/></clipPath><clipPath id="clip-path-2"><polygon class="cls-1" points="-432.57 250.3 -435.38 278.95 -310.4 155.9 -323.34 142.75 -323.37 142.78 -362.21 103.33 -486.92 226.12 -458.23 223.76 -432.35 250.04 -432.36 250.09 -432.57 250.3"/></clipPath><clipPath id="clip-path-3"><path class="cls-1" d="M188.2,207.21c17.92,14.25,35.28,27.91,52.63,42.14,33.84-42.55,67.68-85.11,101.5-127.09,7.28,5.93,14.57,11.29,22.41,17.24L245.43,289C220.8,268.82,195.6,249.21,171,229.05,176.91,221.78,182.27,214.48,188.2,207.21Z"/></clipPath><clipPath id="clip-path-4"><rect class="cls-1" x="-425.84" y="771.57" width="130.86" height="130.86" rx="65.43" ry="65.43"/></clipPath></defs><title>ELS_Webshop_Illustrations_480px RGB</title><g class="cls-2"><g id="Illustrations"><g class="cls-3"><line class="cls-4" x1="0.74" y1="255.36" x2="-390.55" y2="646.65"/><line class="cls-4" x1="3.85" y1="258.47" x2="-387.44" y2="649.76"/><line class="cls-4" x1="6.96" y1="261.58" x2="-384.33" y2="652.87"/><line class="cls-4" x1="10.07" y1="264.69" x2="-381.22" y2="655.98"/><line class="cls-4" x1="13.18" y1="267.8" x2="-378.11" y2="659.09"/><line class="cls-4" x1="16.29" y1="270.91" x2="-375" y2="662.2"/><line class="cls-4" x1="19.4" y1="274.02" x2="-371.89" y2="665.31"/><line class="cls-4" x1="22.51" y1="277.13" x2="-368.78" y2="668.42"/><line class="cls-4" x1="25.62" y1="280.24" x2="-365.67" y2="671.53"/><line class="cls-4" x1="28.73" y1="283.35" x2="-362.56" y2="674.64"/><line class="cls-4" x1="31.84" y1="286.46" x2="-359.45" y2="677.75"/><line class="cls-4" x1="34.95" y1="289.57" x2="-356.34" y2="680.86"/><line class="cls-4" x1="38.06" y1="292.68" x2="-353.23" y2="683.97"/><line class="cls-4" x1="41.16" y1="295.79" x2="-350.12" y2="687.08"/><line class="cls-4" x1="44.27" y1="298.9" x2="-347.02" y2="690.19"/><line class="cls-4" x1="47.38" y1="302.01" x2="-343.91" y2="693.29"/><line class="cls-4" x1="50.49" y1="305.11" x2="-340.8" y2="696.4"/><line class="cls-4" x1="53.6" y1="308.22" x2="-337.69" y2="699.51"/><line class="cls-4" x1="56.71" y1="311.33" x2="-334.58" y2="702.62"/><line class="cls-4" x1="59.82" y1="314.44" x2="-331.47" y2="705.73"/><line class="cls-4" x1="62.93" y1="317.55" x2="-328.36" y2="708.84"/><line class="cls-4" x1="66.04" y1="320.66" x2="-325.25" y2="711.95"/><line class="cls-4" x1="69.15" y1="323.77" x2="-322.14" y2="715.06"/><line class="cls-4" x1="72.26" y1="326.88" x2="-319.03" y2="718.17"/><line class="cls-4" x1="75.37" y1="329.99" x2="-315.92" y2="721.28"/><line class="cls-4" x1="78.48" y1="333.1" x2="-312.81" y2="724.39"/><line class="cls-4" x1="81.59" y1="336.21" x2="-309.7" y2="727.5"/><line class="cls-4" x1="84.7" y1="339.32" x2="-306.59" y2="730.61"/><line class="cls-4" x1="87.81" y1="342.43" x2="-303.48" y2="733.72"/><line class="cls-4" x1="90.92" y1="345.54" x2="-300.37" y2="736.83"/><line class="cls-4" x1="94.03" y1="348.65" x2="-297.26" y2="739.94"/><line class="cls-4" x1="97.13" y1="351.76" x2="-294.15" y2="743.05"/><line class="cls-4" x1="100.24" y1="354.87" x2="-291.04" y2="746.16"/><line class="cls-4" x1="103.35" y1="357.98" x2="-287.94" y2="749.27"/><line class="cls-4" x1="106.46" y1="361.09" x2="-284.83" y2="752.37"/><line class="cls-4" x1="109.57" y1="364.19" x2="-281.72" y2="755.48"/><line class="cls-4" x1="112.68" y1="367.3" x2="-278.61" y2="758.59"/><line class="cls-4" x1="115.79" y1="370.41" x2="-275.5" y2="761.7"/><line class="cls-4" x1="118.9" y1="373.52" x2="-272.39" y2="764.81"/><line class="cls-4" x1="122.01" y1="376.63" x2="-269.28" y2="767.92"/><line class="cls-4" x1="125.12" y1="379.74" x2="-266.17" y2="771.03"/><line class="cls-4" x1="128.23" y1="382.85" x2="-263.06" y2="774.14"/><line class="cls-4" x1="131.34" y1="385.96" x2="-259.95" y2="777.25"/><line class="cls-4" x1="134.45" y1="389.07" x2="-256.84" y2="780.36"/><line class="cls-4" x1="137.56" y1="392.18" x2="-253.73" y2="783.47"/><line class="cls-4" x1="140.67" y1="395.29" x2="-250.62" y2="786.58"/><line class="cls-4" x1="143.78" y1="398.4" x2="-247.51" y2="789.69"/><line class="cls-4" x1="146.89" y1="401.51" x2="-244.4" y2="792.8"/><line class="cls-4" x1="150" y1="404.62" x2="-241.29" y2="795.91"/><line class="cls-4" x1="153.11" y1="407.73" x2="-238.18" y2="799.02"/><line class="cls-4" x1="156.21" y1="410.84" x2="-235.07" y2="802.13"/><line class="cls-4" x1="159.32" y1="413.95" x2="-231.96" y2="805.24"/><line class="cls-4" x1="162.43" y1="417.06" x2="-228.86" y2="808.35"/><line class="cls-4" x1="165.54" y1="420.17" x2="-225.75" y2="811.45"/><line class="cls-4" x1="168.65" y1="423.27" x2="-222.64" y2="814.56"/><line class="cls-4" x1="171.76" y1="426.38" x2="-219.53" y2="817.67"/><line class="cls-4" x1="174.87" y1="429.49" x2="-216.42" y2="820.78"/><line class="cls-4" x1="2.16" y1="241.56" x2="-389.13" y2="632.85"/></g><g class="cls-5"><line class="cls-4" x1="1.79" y1="221.17" x2="-389.5" y2="612.46"/><line class="cls-4" x1="4.9" y1="224.28" x2="-386.39" y2="615.57"/><line class="cls-4" x1="8.01" y1="227.39" x2="-383.28" y2="618.68"/><line class="cls-4" x1="11.12" y1="230.5" x2="-380.17" y2="621.79"/><line class="cls-4" x1="14.23" y1="233.61" x2="-377.06" y2="624.9"/><line class="cls-4" x1="17.34" y1="236.72" x2="-373.95" y2="628.01"/><line class="cls-4" x1="20.45" y1="239.83" x2="-370.84" y2="631.11"/><line class="cls-4" x1="23.56" y1="242.93" x2="-367.73" y2="634.22"/><line class="cls-4" x1="26.67" y1="246.04" x2="-364.62" y2="637.33"/><line class="cls-4" x1="29.78" y1="249.15" x2="-361.51" y2="640.44"/><line class="cls-4" x1="32.89" y1="252.26" x2="-358.4" y2="643.55"/><line class="cls-4" x1="35.99" y1="255.37" x2="-355.29" y2="646.66"/><line class="cls-4" x1="39.1" y1="258.48" x2="-352.19" y2="649.77"/><line class="cls-4" x1="42.21" y1="261.59" x2="-349.08" y2="652.88"/><line class="cls-4" x1="45.32" y1="264.7" x2="-345.97" y2="655.99"/><line class="cls-4" x1="48.43" y1="267.81" x2="-342.86" y2="659.1"/><line class="cls-4" x1="51.54" y1="270.92" x2="-339.75" y2="662.21"/><line class="cls-4" x1="54.65" y1="274.03" x2="-336.64" y2="665.32"/><line class="cls-4" x1="57.76" y1="277.14" x2="-333.53" y2="668.43"/><line class="cls-4" x1="60.87" y1="280.25" x2="-330.42" y2="671.54"/><line class="cls-4" x1="63.98" y1="283.36" x2="-327.31" y2="674.65"/><line class="cls-4" x1="67.09" y1="286.47" x2="-324.2" y2="677.76"/><line class="cls-4" x1="70.2" y1="289.58" x2="-321.09" y2="680.87"/><line class="cls-4" x1="73.31" y1="292.69" x2="-317.98" y2="683.98"/><line class="cls-4" x1="76.42" y1="295.8" x2="-314.87" y2="687.09"/><line class="cls-4" x1="79.53" y1="298.91" x2="-311.76" y2="690.19"/><line class="cls-4" x1="82.64" y1="302.01" x2="-308.65" y2="693.3"/><line class="cls-4" x1="85.75" y1="305.12" x2="-305.54" y2="696.41"/><line class="cls-4" x1="88.86" y1="308.23" x2="-302.43" y2="699.52"/><line class="cls-4" x1="91.97" y1="311.34" x2="-299.32" y2="702.63"/><line class="cls-4" x1="95.07" y1="314.45" x2="-296.21" y2="705.74"/><line class="cls-4" x1="98.18" y1="317.56" x2="-293.11" y2="708.85"/><line class="cls-4" x1="101.29" y1="320.67" x2="-290" y2="711.96"/><line class="cls-4" x1="104.4" y1="323.78" x2="-286.89" y2="715.07"/><line class="cls-4" x1="107.51" y1="326.89" x2="-283.78" y2="718.18"/></g><circle class="cls-6" cx="240" cy="243.44" r="121.62"/><circle class="cls-7" cx="240" cy="243.44" r="86"/><g class="cls-8"><line class="cls-4" x1="627.21" y1="223.15" x2="192.86" y2="566.01"/><line class="cls-4" x1="629.93" y1="226.6" x2="195.58" y2="569.46"/><line class="cls-4" x1="632.66" y1="230.05" x2="198.31" y2="572.91"/><line class="cls-4" x1="635.38" y1="233.5" x2="201.03" y2="576.37"/><line class="cls-4" x1="638.11" y1="236.96" x2="203.76" y2="579.82"/><line class="cls-4" x1="640.83" y1="240.41" x2="206.48" y2="583.27"/><line class="cls-4" x1="643.56" y1="243.86" x2="209.21" y2="586.72"/><line class="cls-4" x1="646.28" y1="247.31" x2="211.93" y2="590.17"/><line class="cls-4" x1="649.01" y1="250.76" x2="214.66" y2="593.62"/><line class="cls-4" x1="651.73" y1="254.21" x2="217.38" y2="597.08"/><line class="cls-4" x1="654.46" y1="257.67" x2="220.1" y2="600.53"/><line class="cls-4" x1="657.18" y1="261.12" x2="222.83" y2="603.98"/><line class="cls-4" x1="659.9" y1="264.57" x2="225.55" y2="607.43"/><line class="cls-4" x1="662.63" y1="268.02" x2="228.28" y2="610.88"/><line class="cls-4" x1="665.35" y1="271.47" x2="231" y2="614.33"/><line class="cls-4" x1="668.08" y1="274.92" x2="233.73" y2="617.79"/><line class="cls-4" x1="670.8" y1="278.38" x2="236.45" y2="621.24"/><line class="cls-4" x1="673.53" y1="281.83" x2="239.18" y2="624.69"/><line class="cls-4" x1="676.25" y1="285.28" x2="241.9" y2="628.14"/><line class="cls-4" x1="678.98" y1="288.73" x2="244.63" y2="631.59"/><line class="cls-4" x1="681.7" y1="292.18" x2="247.35" y2="635.04"/><line class="cls-4" x1="684.43" y1="295.63" x2="250.08" y2="638.5"/><line class="cls-4" x1="687.15" y1="299.09" x2="252.8" y2="641.95"/><line class="cls-4" x1="689.88" y1="302.54" x2="255.52" y2="645.4"/><line class="cls-4" x1="692.6" y1="305.99" x2="258.25" y2="648.85"/><line class="cls-4" x1="695.32" y1="309.44" x2="260.97" y2="652.3"/><line class="cls-4" x1="698.05" y1="312.89" x2="263.7" y2="655.75"/><line class="cls-4" x1="700.77" y1="316.34" x2="266.42" y2="659.21"/><line class="cls-4" x1="703.5" y1="319.8" x2="269.15" y2="662.66"/><line class="cls-4" x1="706.22" y1="323.25" x2="271.87" y2="666.11"/><line class="cls-4" x1="708.95" y1="326.7" x2="274.6" y2="669.56"/><line class="cls-4" x1="711.67" y1="330.15" x2="277.32" y2="673.01"/><line class="cls-4" x1="714.4" y1="333.6" x2="280.05" y2="676.46"/><line class="cls-4" x1="717.12" y1="337.05" x2="282.77" y2="679.92"/><line class="cls-4" x1="719.85" y1="340.51" x2="285.5" y2="683.37"/><line class="cls-4" x1="722.57" y1="343.96" x2="288.22" y2="686.82"/><line class="cls-4" x1="725.3" y1="347.41" x2="290.94" y2="690.27"/><line class="cls-4" x1="728.02" y1="350.86" x2="293.67" y2="693.72"/><line class="cls-4" x1="730.74" y1="354.31" x2="296.39" y2="697.17"/><line class="cls-4" x1="733.47" y1="357.76" x2="299.12" y2="700.63"/><line class="cls-4" x1="736.19" y1="361.22" x2="301.84" y2="704.08"/><line class="cls-4" x1="738.92" y1="364.67" x2="304.57" y2="707.53"/><line class="cls-4" x1="741.64" y1="368.12" x2="307.29" y2="710.98"/><line class="cls-4" x1="744.37" y1="371.57" x2="310.02" y2="714.43"/><line class="cls-4" x1="747.09" y1="375.02" x2="312.74" y2="717.88"/><line class="cls-4" x1="749.82" y1="378.47" x2="315.47" y2="721.34"/><line class="cls-4" x1="752.54" y1="381.93" x2="318.19" y2="724.79"/><line class="cls-4" x1="755.27" y1="385.38" x2="320.92" y2="728.24"/><line class="cls-4" x1="757.99" y1="388.83" x2="323.64" y2="731.69"/><line class="cls-4" x1="760.72" y1="392.28" x2="326.36" y2="735.14"/><line class="cls-4" x1="763.44" y1="395.73" x2="329.09" y2="738.59"/><line class="cls-4" x1="766.16" y1="399.18" x2="331.81" y2="742.05"/><line class="cls-4" x1="768.89" y1="402.64" x2="334.54" y2="745.5"/><line class="cls-4" x1="771.61" y1="406.09" x2="337.26" y2="748.95"/><line class="cls-4" x1="774.34" y1="409.54" x2="339.99" y2="752.4"/><line class="cls-4" x1="777.06" y1="412.99" x2="342.71" y2="755.85"/><line class="cls-4" x1="779.79" y1="416.44" x2="345.44" y2="759.3"/><line class="cls-4" x1="782.51" y1="419.89" x2="348.16" y2="762.76"/><line class="cls-4" x1="477.65" y1="16.31" x2="43.3" y2="359.17"/><line class="cls-4" x1="480.38" y1="19.76" x2="46.03" y2="362.63"/><line class="cls-4" x1="483.1" y1="23.22" x2="48.75" y2="366.08"/><line class="cls-4" x1="485.83" y1="26.67" x2="51.48" y2="369.53"/><line class="cls-4" x1="488.55" y1="30.12" x2="54.2" y2="372.98"/><line class="cls-4" x1="491.28" y1="33.57" x2="56.93" y2="376.43"/><line class="cls-4" x1="494" y1="37.02" x2="59.65" y2="379.88"/><line class="cls-4" x1="496.73" y1="40.47" x2="62.38" y2="383.34"/><line class="cls-4" x1="499.45" y1="43.93" x2="65.1" y2="386.79"/><line class="cls-4" x1="502.18" y1="47.38" x2="67.83" y2="390.24"/><line class="cls-4" x1="504.9" y1="50.83" x2="70.55" y2="393.69"/><line class="cls-4" x1="507.63" y1="54.28" x2="73.27" y2="397.14"/><line class="cls-4" x1="510.35" y1="57.73" x2="76" y2="400.59"/><line class="cls-4" x1="513.07" y1="61.18" x2="78.72" y2="404.05"/><line class="cls-4" x1="515.8" y1="64.64" x2="81.45" y2="407.5"/><line class="cls-4" x1="518.52" y1="68.09" x2="84.17" y2="410.95"/><line class="cls-4" x1="521.25" y1="71.54" x2="86.9" y2="414.4"/><line class="cls-4" x1="523.97" y1="74.99" x2="89.62" y2="417.85"/><line class="cls-4" x1="526.7" y1="78.44" x2="92.35" y2="421.3"/><line class="cls-4" x1="529.42" y1="81.89" x2="95.07" y2="424.76"/><line class="cls-4" x1="532.15" y1="85.35" x2="97.8" y2="428.21"/><line class="cls-4" x1="534.87" y1="88.8" x2="100.52" y2="431.66"/><line class="cls-4" x1="537.6" y1="92.25" x2="103.25" y2="435.11"/><line class="cls-4" x1="540.32" y1="95.7" x2="105.97" y2="438.56"/><line class="cls-4" x1="543.05" y1="99.15" x2="108.69" y2="442.01"/><line class="cls-4" x1="545.77" y1="102.6" x2="111.42" y2="445.47"/><line class="cls-4" x1="548.5" y1="106.06" x2="114.14" y2="448.92"/><line class="cls-4" x1="551.22" y1="109.51" x2="116.87" y2="452.37"/><line class="cls-4" x1="553.94" y1="112.96" x2="119.59" y2="455.82"/><line class="cls-4" x1="556.67" y1="116.41" x2="122.32" y2="459.27"/><line class="cls-4" x1="559.39" y1="119.86" x2="125.04" y2="462.72"/><line class="cls-4" x1="562.12" y1="123.31" x2="127.77" y2="466.18"/><line class="cls-4" x1="564.84" y1="126.77" x2="130.49" y2="469.63"/><line class="cls-4" x1="567.57" y1="130.22" x2="133.22" y2="473.08"/><line class="cls-4" x1="570.29" y1="133.67" x2="135.94" y2="476.53"/><line class="cls-4" x1="573.02" y1="137.12" x2="138.67" y2="479.98"/><line class="cls-4" x1="575.74" y1="140.57" x2="141.39" y2="483.43"/><line class="cls-4" x1="578.47" y1="144.02" x2="144.12" y2="486.89"/><line class="cls-4" x1="581.19" y1="147.48" x2="146.84" y2="490.34"/><line class="cls-4" x1="583.92" y1="150.93" x2="149.56" y2="493.79"/><line class="cls-4" x1="586.64" y1="154.38" x2="152.29" y2="497.24"/><line class="cls-4" x1="589.36" y1="157.83" x2="155.01" y2="500.69"/><line class="cls-4" x1="592.09" y1="161.28" x2="157.74" y2="504.14"/><line class="cls-4" x1="594.81" y1="164.73" x2="160.46" y2="507.6"/><line class="cls-4" x1="597.54" y1="168.19" x2="163.19" y2="511.05"/><line class="cls-4" x1="600.26" y1="171.64" x2="165.91" y2="514.5"/><line class="cls-4" x1="602.99" y1="175.09" x2="168.64" y2="517.95"/><line class="cls-4" x1="605.71" y1="178.54" x2="171.36" y2="521.4"/><line class="cls-4" x1="608.44" y1="181.99" x2="174.09" y2="524.85"/><line class="cls-4" x1="611.16" y1="185.44" x2="176.81" y2="528.31"/><line class="cls-4" x1="613.89" y1="188.9" x2="179.54" y2="531.76"/><line class="cls-4" x1="616.61" y1="192.35" x2="182.26" y2="535.21"/><line class="cls-4" x1="619.34" y1="195.8" x2="184.98" y2="538.66"/><line class="cls-4" x1="622.06" y1="199.25" x2="187.71" y2="542.11"/><line class="cls-4" x1="624.78" y1="202.7" x2="190.43" y2="545.56"/><line class="cls-4" x1="627.51" y1="206.15" x2="193.16" y2="549.02"/><line class="cls-4" x1="630.23" y1="209.61" x2="195.88" y2="552.47"/><line class="cls-4" x1="632.96" y1="213.06" x2="198.61" y2="555.92"/><line class="cls-4" x1="328.1" y1="-190.52" x2="-106.25" y2="152.34"/><line class="cls-4" x1="330.83" y1="-187.07" x2="-103.53" y2="155.79"/><line class="cls-4" x1="333.55" y1="-183.62" x2="-100.8" y2="159.24"/><line class="cls-4" x1="336.27" y1="-180.17" x2="-98.08" y2="162.69"/><line class="cls-4" x1="339" y1="-176.72" x2="-95.35" y2="166.14"/><line class="cls-4" x1="341.72" y1="-173.27" x2="-92.63" y2="169.6"/><line class="cls-4" x1="344.45" y1="-169.81" x2="-89.9" y2="173.05"/><line class="cls-4" x1="347.17" y1="-166.36" x2="-87.18" y2="176.5"/><line class="cls-4" x1="349.9" y1="-162.91" x2="-84.45" y2="179.95"/><line class="cls-4" x1="352.62" y1="-159.46" x2="-81.73" y2="183.4"/><line class="cls-4" x1="355.35" y1="-156.01" x2="-79" y2="186.85"/><line class="cls-4" x1="358.07" y1="-152.56" x2="-76.28" y2="190.31"/><line class="cls-4" x1="360.8" y1="-149.1" x2="-73.55" y2="193.76"/><line class="cls-4" x1="363.52" y1="-145.65" x2="-70.83" y2="197.21"/><line class="cls-4" x1="366.25" y1="-142.2" x2="-68.11" y2="200.66"/><line class="cls-4" x1="368.97" y1="-138.75" x2="-65.38" y2="204.11"/><line class="cls-4" x1="371.69" y1="-135.3" x2="-62.66" y2="207.56"/><line class="cls-4" x1="374.42" y1="-131.85" x2="-59.93" y2="211.02"/><line class="cls-4" x1="377.14" y1="-128.39" x2="-57.21" y2="214.47"/><line class="cls-4" x1="379.87" y1="-124.94" x2="-54.48" y2="217.92"/><line class="cls-4" x1="382.59" y1="-121.49" x2="-51.76" y2="221.37"/><line class="cls-4" x1="385.32" y1="-118.04" x2="-49.03" y2="224.82"/><line class="cls-4" x1="388.04" y1="-114.59" x2="-46.31" y2="228.27"/><line class="cls-4" x1="390.77" y1="-111.14" x2="-43.58" y2="231.73"/><line class="cls-4" x1="393.49" y1="-107.68" x2="-40.86" y2="235.18"/><line class="cls-4" x1="396.22" y1="-104.23" x2="-38.13" y2="238.63"/><line class="cls-4" x1="398.94" y1="-100.78" x2="-35.41" y2="242.08"/><line class="cls-4" x1="401.67" y1="-97.33" x2="-32.69" y2="245.53"/><line class="cls-4" x1="404.39" y1="-93.88" x2="-29.96" y2="248.98"/><line class="cls-4" x1="407.11" y1="-90.43" x2="-27.24" y2="252.44"/><line class="cls-4" x1="409.84" y1="-86.97" x2="-24.51" y2="255.89"/><line class="cls-4" x1="412.56" y1="-83.52" x2="-21.79" y2="259.34"/><line class="cls-4" x1="415.29" y1="-80.07" x2="-19.06" y2="262.79"/><line class="cls-4" x1="418.01" y1="-76.62" x2="-16.34" y2="266.24"/><line class="cls-4" x1="420.74" y1="-73.17" x2="-13.61" y2="269.69"/><line class="cls-4" x1="423.46" y1="-69.72" x2="-10.89" y2="273.15"/><line class="cls-4" x1="426.19" y1="-66.26" x2="-8.16" y2="276.6"/><line class="cls-4" x1="428.91" y1="-62.81" x2="-5.44" y2="280.05"/><line class="cls-4" x1="431.64" y1="-59.36" x2="-2.71" y2="283.5"/><line class="cls-4" x1="434.36" y1="-55.91" x2="0.01" y2="286.95"/><line class="cls-4" x1="437.09" y1="-52.46" x2="2.73" y2="290.4"/><line class="cls-4" x1="439.81" y1="-49.01" x2="5.46" y2="293.86"/><line class="cls-4" x1="442.53" y1="-45.55" x2="8.18" y2="297.31"/><line class="cls-4" x1="445.26" y1="-42.1" x2="10.91" y2="300.76"/><line class="cls-4" x1="447.98" y1="-38.65" x2="13.63" y2="304.21"/><line class="cls-4" x1="450.71" y1="-35.2" x2="16.36" y2="307.66"/><line class="cls-4" x1="453.43" y1="-31.75" x2="19.08" y2="311.11"/><line class="cls-4" x1="456.16" y1="-28.3" x2="21.81" y2="314.57"/><line class="cls-4" x1="458.88" y1="-24.84" x2="24.53" y2="318.02"/><line class="cls-4" x1="461.61" y1="-21.39" x2="27.26" y2="321.47"/><line class="cls-4" x1="464.33" y1="-17.94" x2="29.98" y2="324.92"/><line class="cls-4" x1="467.06" y1="-14.49" x2="32.71" y2="328.37"/><line class="cls-4" x1="469.78" y1="-11.04" x2="35.43" y2="331.82"/><line class="cls-4" x1="472.51" y1="-7.59" x2="38.15" y2="335.28"/><line class="cls-4" x1="475.23" y1="-4.13" x2="40.88" y2="338.73"/><line class="cls-4" x1="477.95" y1="-0.68" x2="43.6" y2="342.18"/><line class="cls-4" x1="480.68" y1="2.77" x2="46.33" y2="345.63"/><line class="cls-4" x1="483.4" y1="6.22" x2="49.05" y2="349.08"/></g></g></g></svg>