<svg xmlns="http://www.w3.org/2000/svg" xmlns:xlink="http://www.w3.org/1999/xlink" viewBox="0 0 480 480"><defs><style>.cls-1,.cls-4{fill:none;}.cls-2{isolation:isolate;}.cls-3{clip-path:url(#clip-path);}.cls-4{stroke:#565656;stroke-miterlimit:10;stroke-width:0.57px;}.cls-5,.cls-6{fill:#bb84ff;}.cls-6{mix-blend-mode:multiply;}.cls-7{opacity:0.7;}.cls-8{clip-path:url(#clip-path-2);}</style><clipPath id="clip-path"><path class="cls-1" d="M398.71-297.59l14.87-15.08-68-67-14.87,15.08,68,67M355.12-427q0-29.8-21.13-50.93-21-20.92-50.82-20.92t-50.93,20.92Q211.31-456.78,211.31-427t20.92,50.82Q253.36-355,283.16-355T334-376.15q21.13-21,21.13-50.82m-36.09-36a49.33,49.33,0,0,1,15,36,49,49,0,0,1-15,35.87,49,49,0,0,1-35.87,15,49.33,49.33,0,0,1-36-15A48.33,48.33,0,0,1,232.44-427a48.65,48.65,0,0,1,14.76-36,48.65,48.65,0,0,1,36-14.76A48.33,48.33,0,0,1,319-462.94Z"/></clipPath><clipPath id="clip-path-2"><circle class="cls-1" cx="174.68" cy="175.77" r="66.25"/></clipPath></defs><title>ELS_Webshop_Illustrations_480px RGB</title><g class="cls-2"><g id="Illustrations"><g class="cls-3"><line class="cls-4" x1="752.63" y1="-337.17" x2="414.83" y2="0.62"/><line class="cls-4" x1="755.31" y1="-334.49" x2="417.52" y2="3.31"/><line class="cls-4" x1="758" y1="-331.81" x2="420.2" y2="5.99"/><line class="cls-4" x1="760.68" y1="-329.12" x2="422.89" y2="8.67"/><line class="cls-4" x1="763.37" y1="-326.44" x2="425.57" y2="11.36"/><line class="cls-4" x1="766.05" y1="-323.75" x2="428.26" y2="14.04"/><line class="cls-4" x1="768.74" y1="-321.07" x2="430.94" y2="16.73"/><line class="cls-4" x1="771.42" y1="-318.38" x2="433.62" y2="19.41"/><line class="cls-4" x1="774.1" y1="-315.7" x2="436.31" y2="22.1"/><line class="cls-4" x1="776.79" y1="-313.02" x2="438.99" y2="24.78"/><line class="cls-4" x1="779.47" y1="-310.33" x2="441.68" y2="27.46"/><line class="cls-4" x1="782.16" y1="-307.65" x2="444.36" y2="30.15"/><line class="cls-4" x1="784.84" y1="-304.96" x2="447.05" y2="32.83"/><line class="cls-4" x1="787.53" y1="-302.28" x2="449.73" y2="35.52"/><line class="cls-4" x1="790.21" y1="-299.59" x2="452.42" y2="38.2"/><line class="cls-4" x1="792.89" y1="-296.91" x2="455.1" y2="40.89"/><line class="cls-4" x1="795.58" y1="-294.22" x2="457.78" y2="43.57"/></g><polygon class="cls-5" points="204.46 156.24 95.11 345.63 313.8 345.63 204.46 156.24"/><polygon class="cls-6" points="306.76 156.24 197.41 345.63 416.11 345.63 306.76 156.24"/><g class="cls-7"><g class="cls-8"><line class="cls-4" x1="325.66" y1="33.72" x2="-65.62" y2="425.01"/><line class="cls-4" x1="328.77" y1="36.83" x2="-62.52" y2="428.12"/><line class="cls-4" x1="331.88" y1="39.94" x2="-59.41" y2="431.23"/><line class="cls-4" x1="334.99" y1="43.05" x2="-56.3" y2="434.34"/><line class="cls-4" x1="338.1" y1="46.16" x2="-53.19" y2="437.45"/><line class="cls-4" x1="341.21" y1="49.27" x2="-50.08" y2="440.56"/><line class="cls-4" x1="344.32" y1="52.38" x2="-46.97" y2="443.67"/><line class="cls-4" x1="347.43" y1="55.49" x2="-43.86" y2="446.78"/><line class="cls-4" x1="350.54" y1="58.6" x2="-40.75" y2="449.89"/><line class="cls-4" x1="353.65" y1="61.71" x2="-37.64" y2="453"/><line class="cls-4" x1="356.76" y1="64.82" x2="-34.53" y2="456.11"/><line class="cls-4" x1="359.87" y1="67.93" x2="-31.42" y2="459.22"/><line class="cls-4" x1="362.98" y1="71.04" x2="-28.31" y2="462.32"/><line class="cls-4" x1="366.09" y1="74.14" x2="-25.2" y2="465.43"/><line class="cls-4" x1="369.2" y1="77.25" x2="-22.09" y2="468.54"/><line class="cls-4" x1="372.31" y1="80.36" x2="-18.98" y2="471.65"/><line class="cls-4" x1="375.42" y1="83.47" x2="-15.87" y2="474.76"/><line class="cls-4" x1="378.53" y1="86.58" x2="-12.76" y2="477.87"/><line class="cls-4" x1="381.63" y1="89.69" x2="-9.65" y2="480.98"/><line class="cls-4" x1="384.74" y1="92.8" x2="-6.54" y2="484.09"/><line class="cls-4" x1="387.85" y1="95.91" x2="-3.44" y2="487.2"/><line class="cls-4" x1="390.96" y1="99.02" x2="-0.33" y2="490.31"/><line class="cls-4" x1="394.07" y1="102.13" x2="2.78" y2="493.42"/><line class="cls-4" x1="397.18" y1="105.24" x2="5.89" y2="496.53"/><line class="cls-4" x1="400.29" y1="108.35" x2="9" y2="499.64"/><line class="cls-4" x1="403.4" y1="111.46" x2="12.11" y2="502.75"/><line class="cls-4" x1="406.51" y1="114.57" x2="15.22" y2="505.86"/><line class="cls-4" x1="409.62" y1="117.68" x2="18.33" y2="508.97"/><line class="cls-4" x1="412.73" y1="120.79" x2="21.44" y2="512.08"/><line class="cls-4" x1="415.84" y1="123.9" x2="24.55" y2="515.19"/><line class="cls-4" x1="418.95" y1="127.01" x2="27.66" y2="518.3"/><line class="cls-4" x1="422.06" y1="130.12" x2="30.77" y2="521.4"/><line class="cls-4" x1="425.17" y1="133.22" x2="33.88" y2="524.51"/><line class="cls-4" x1="428.28" y1="136.33" x2="36.99" y2="527.62"/><line class="cls-4" x1="431.39" y1="139.44" x2="40.1" y2="530.73"/><line class="cls-4" x1="434.5" y1="142.55" x2="43.21" y2="533.84"/><line class="cls-4" x1="437.61" y1="145.66" x2="46.32" y2="536.95"/><line class="cls-4" x1="440.71" y1="148.77" x2="49.43" y2="540.06"/><line class="cls-4" x1="443.82" y1="151.88" x2="52.53" y2="543.17"/><line class="cls-4" x1="446.93" y1="154.99" x2="55.64" y2="546.28"/><line class="cls-4" x1="450.04" y1="158.1" x2="58.75" y2="549.39"/><line class="cls-4" x1="453.15" y1="161.21" x2="61.86" y2="552.5"/><line class="cls-4" x1="456.26" y1="164.32" x2="64.97" y2="555.61"/><line class="cls-4" x1="459.37" y1="167.43" x2="68.08" y2="558.72"/><line class="cls-4" x1="462.48" y1="170.54" x2="71.19" y2="561.83"/><line class="cls-4" x1="465.59" y1="173.65" x2="74.3" y2="564.94"/><line class="cls-4" x1="468.7" y1="176.76" x2="77.41" y2="568.05"/><line class="cls-4" x1="471.81" y1="179.87" x2="80.52" y2="571.16"/><line class="cls-4" x1="474.92" y1="182.98" x2="83.63" y2="574.27"/><line class="cls-4" x1="478.03" y1="186.09" x2="86.74" y2="577.38"/><line class="cls-4" x1="481.14" y1="189.2" x2="89.85" y2="580.48"/><line class="cls-4" x1="484.25" y1="192.3" x2="92.96" y2="583.59"/><line class="cls-4" x1="487.36" y1="195.41" x2="96.07" y2="586.7"/><line class="cls-4" x1="490.47" y1="198.52" x2="99.18" y2="589.81"/><line class="cls-4" x1="493.58" y1="201.63" x2="102.29" y2="592.92"/><line class="cls-4" x1="496.69" y1="204.74" x2="105.4" y2="596.03"/><line class="cls-4" x1="499.79" y1="207.85" x2="108.51" y2="599.14"/><line class="cls-4" x1="502.9" y1="210.96" x2="111.61" y2="602.25"/><line class="cls-4" x1="152.95" y1="-154.21" x2="-238.33" y2="237.08"/><line class="cls-4" x1="156.06" y1="-151.1" x2="-235.22" y2="240.19"/><line class="cls-4" x1="159.17" y1="-147.99" x2="-232.12" y2="243.3"/><line class="cls-4" x1="162.28" y1="-144.88" x2="-229.01" y2="246.41"/><line class="cls-4" x1="165.39" y1="-141.77" x2="-225.9" y2="249.51"/><line class="cls-4" x1="168.5" y1="-138.67" x2="-222.79" y2="252.62"/><line class="cls-4" x1="171.61" y1="-135.56" x2="-219.68" y2="255.73"/><line class="cls-4" x1="174.72" y1="-132.45" x2="-216.57" y2="258.84"/><line class="cls-4" x1="177.83" y1="-129.34" x2="-213.46" y2="261.95"/><line class="cls-4" x1="180.94" y1="-126.23" x2="-210.35" y2="265.06"/><line class="cls-4" x1="184.05" y1="-123.12" x2="-207.24" y2="268.17"/><line class="cls-4" x1="187.16" y1="-120.01" x2="-204.13" y2="271.28"/><line class="cls-4" x1="190.27" y1="-116.9" x2="-201.02" y2="274.39"/><line class="cls-4" x1="193.38" y1="-113.79" x2="-197.91" y2="277.5"/><line class="cls-4" x1="196.49" y1="-110.68" x2="-194.8" y2="280.61"/><line class="cls-4" x1="199.6" y1="-107.57" x2="-191.69" y2="283.72"/><line class="cls-4" x1="202.71" y1="-104.46" x2="-188.58" y2="286.83"/><line class="cls-4" x1="205.82" y1="-101.35" x2="-185.47" y2="289.94"/><line class="cls-4" x1="208.93" y1="-98.24" x2="-182.36" y2="293.05"/><line class="cls-4" x1="212.03" y1="-95.13" x2="-179.25" y2="296.16"/><line class="cls-4" x1="215.14" y1="-92.02" x2="-176.15" y2="299.27"/><line class="cls-4" x1="218.25" y1="-88.91" x2="-173.04" y2="302.38"/><line class="cls-4" x1="221.36" y1="-85.8" x2="-169.93" y2="305.49"/><line class="cls-4" x1="224.47" y1="-82.69" x2="-166.82" y2="308.59"/><line class="cls-4" x1="227.58" y1="-79.59" x2="-163.71" y2="311.7"/><line class="cls-4" x1="230.69" y1="-76.48" x2="-160.6" y2="314.81"/><line class="cls-4" x1="233.8" y1="-73.37" x2="-157.49" y2="317.92"/><line class="cls-4" x1="236.91" y1="-70.26" x2="-154.38" y2="321.03"/><line class="cls-4" x1="240.02" y1="-67.15" x2="-151.27" y2="324.14"/><line class="cls-4" x1="243.13" y1="-64.04" x2="-148.16" y2="327.25"/><line class="cls-4" x1="246.24" y1="-60.93" x2="-145.05" y2="330.36"/><line class="cls-4" x1="249.35" y1="-57.82" x2="-141.94" y2="333.47"/><line class="cls-4" x1="252.46" y1="-54.71" x2="-138.83" y2="336.58"/><line class="cls-4" x1="255.57" y1="-51.6" x2="-135.72" y2="339.69"/><line class="cls-4" x1="258.68" y1="-48.49" x2="-132.61" y2="342.8"/><line class="cls-4" x1="261.79" y1="-45.38" x2="-129.5" y2="345.91"/><line class="cls-4" x1="264.9" y1="-42.27" x2="-126.39" y2="349.02"/><line class="cls-4" x1="268.01" y1="-39.16" x2="-123.28" y2="352.13"/><line class="cls-4" x1="271.11" y1="-36.05" x2="-120.17" y2="355.24"/><line class="cls-4" x1="274.22" y1="-32.94" x2="-117.07" y2="358.35"/><line class="cls-4" x1="277.33" y1="-29.83" x2="-113.96" y2="361.46"/><line class="cls-4" x1="280.44" y1="-26.72" x2="-110.85" y2="364.57"/><line class="cls-4" x1="283.55" y1="-23.61" x2="-107.74" y2="367.67"/><line class="cls-4" x1="286.66" y1="-20.51" x2="-104.63" y2="370.78"/><line class="cls-4" x1="289.77" y1="-17.4" x2="-101.52" y2="373.89"/><line class="cls-4" x1="292.88" y1="-14.29" x2="-98.41" y2="377"/><line class="cls-4" x1="295.99" y1="-11.18" x2="-95.3" y2="380.11"/><line class="cls-4" x1="299.1" y1="-8.07" x2="-92.19" y2="383.22"/><line class="cls-4" x1="302.21" y1="-4.96" x2="-89.08" y2="386.33"/><line class="cls-4" x1="305.32" y1="-1.85" x2="-85.97" y2="389.44"/><line class="cls-4" x1="308.43" y1="1.26" x2="-82.86" y2="392.55"/><line class="cls-4" x1="311.54" y1="4.37" x2="-79.75" y2="395.66"/><line class="cls-4" x1="314.65" y1="7.48" x2="-76.64" y2="398.77"/><line class="cls-4" x1="317.76" y1="10.59" x2="-73.53" y2="401.88"/><line class="cls-4" x1="320.87" y1="13.7" x2="-70.42" y2="404.99"/><line class="cls-4" x1="323.98" y1="16.81" x2="-67.31" y2="408.1"/><line class="cls-4" x1="327.09" y1="19.92" x2="-64.2" y2="411.21"/><line class="cls-4" x1="330.19" y1="23.03" x2="-61.09" y2="414.32"/><line class="cls-4" x1="2.01" y1="-320.38" x2="-389.28" y2="70.91"/><line class="cls-4" x1="5.12" y1="-317.27" x2="-386.17" y2="74.02"/><line class="cls-4" x1="8.23" y1="-314.16" x2="-383.06" y2="77.13"/><line class="cls-4" x1="11.34" y1="-311.05" x2="-379.95" y2="80.24"/><line class="cls-4" x1="14.45" y1="-307.94" x2="-376.84" y2="83.35"/><line class="cls-4" x1="17.56" y1="-304.83" x2="-373.73" y2="86.46"/><line class="cls-4" x1="20.67" y1="-301.72" x2="-370.62" y2="89.57"/><line class="cls-4" x1="23.78" y1="-298.61" x2="-367.51" y2="92.67"/><line class="cls-4" x1="26.89" y1="-295.51" x2="-364.4" y2="95.78"/><line class="cls-4" x1="30" y1="-292.4" x2="-361.29" y2="98.89"/><line class="cls-4" x1="33.11" y1="-289.29" x2="-358.18" y2="102"/><line class="cls-4" x1="36.22" y1="-286.18" x2="-355.07" y2="105.11"/><line class="cls-4" x1="39.33" y1="-283.07" x2="-351.96" y2="108.22"/><line class="cls-4" x1="42.43" y1="-279.96" x2="-348.85" y2="111.33"/><line class="cls-4" x1="45.54" y1="-276.85" x2="-345.75" y2="114.44"/><line class="cls-4" x1="48.65" y1="-273.74" x2="-342.64" y2="117.55"/><line class="cls-4" x1="51.76" y1="-270.63" x2="-339.53" y2="120.66"/><line class="cls-4" x1="54.87" y1="-267.52" x2="-336.42" y2="123.77"/><line class="cls-4" x1="57.98" y1="-264.41" x2="-333.31" y2="126.88"/><line class="cls-4" x1="61.09" y1="-261.3" x2="-330.2" y2="129.99"/><line class="cls-4" x1="64.2" y1="-258.19" x2="-327.09" y2="133.1"/><line class="cls-4" x1="67.31" y1="-255.08" x2="-323.98" y2="136.21"/><line class="cls-4" x1="70.42" y1="-251.97" x2="-320.87" y2="139.32"/><line class="cls-4" x1="73.53" y1="-248.86" x2="-317.76" y2="142.43"/><line class="cls-4" x1="76.64" y1="-245.75" x2="-314.65" y2="145.54"/><line class="cls-4" x1="79.75" y1="-242.64" x2="-311.54" y2="148.65"/><line class="cls-4" x1="82.86" y1="-239.53" x2="-308.43" y2="151.75"/><line class="cls-4" x1="85.97" y1="-236.43" x2="-305.32" y2="154.86"/><line class="cls-4" x1="89.08" y1="-233.32" x2="-302.21" y2="157.97"/><line class="cls-4" x1="92.19" y1="-230.21" x2="-299.1" y2="161.08"/><line class="cls-4" x1="95.3" y1="-227.1" x2="-295.99" y2="164.19"/><line class="cls-4" x1="98.41" y1="-223.99" x2="-292.88" y2="167.3"/><line class="cls-4" x1="101.51" y1="-220.88" x2="-289.77" y2="170.41"/><line class="cls-4" x1="104.62" y1="-217.77" x2="-286.67" y2="173.52"/><line class="cls-4" x1="107.73" y1="-214.66" x2="-283.56" y2="176.63"/><line class="cls-4" x1="110.84" y1="-211.55" x2="-280.45" y2="179.74"/><line class="cls-4" x1="113.95" y1="-208.44" x2="-277.34" y2="182.85"/><line class="cls-4" x1="117.06" y1="-205.33" x2="-274.23" y2="185.96"/><line class="cls-4" x1="120.17" y1="-202.22" x2="-271.12" y2="189.07"/><line class="cls-4" x1="123.28" y1="-199.11" x2="-268.01" y2="192.18"/><line class="cls-4" x1="126.39" y1="-196" x2="-264.9" y2="195.29"/><line class="cls-4" x1="129.5" y1="-192.89" x2="-261.79" y2="198.4"/><line class="cls-4" x1="132.61" y1="-189.78" x2="-258.68" y2="201.51"/><line class="cls-4" x1="135.72" y1="-186.67" x2="-255.57" y2="204.62"/><line class="cls-4" x1="138.83" y1="-183.56" x2="-252.46" y2="207.73"/><line class="cls-4" x1="141.94" y1="-180.45" x2="-249.35" y2="210.83"/><line class="cls-4" x1="145.05" y1="-177.35" x2="-246.24" y2="213.94"/><line class="cls-4" x1="148.16" y1="-174.24" x2="-243.13" y2="217.05"/><line class="cls-4" x1="151.27" y1="-171.13" x2="-240.02" y2="220.16"/><line class="cls-4" x1="154.38" y1="-168.02" x2="-236.91" y2="223.27"/><line class="cls-4" x1="157.49" y1="-164.91" x2="-233.8" y2="226.38"/></g></g></g></g></svg>