<svg xmlns="http://www.w3.org/2000/svg" xmlns:xlink="http://www.w3.org/1999/xlink" viewBox="0 0 480 480"><defs><style>.cls-1,.cls-6{fill:none;}.cls-2{isolation:isolate;}.cls-3,.cls-4{fill:#fdd300;}.cls-4{mix-blend-mode:multiply;}.cls-5{clip-path:url(#clip-path);}.cls-6{stroke:#565656;stroke-miterlimit:10;stroke-width:0.57px;}</style><clipPath id="clip-path"><path class="cls-1" d="M401.88,170.66c-1.31-12.37,14.63-16,11.28-26.2s-18.41-3.88-24.68-14.63,6.81-20.48-.46-28.48-18.41,3.87-28.56-3.43-2.2-21.46-12.12-25.83-15.21,11-27.5,8.37S309,61.73,298.16,61.73s-9.38,16.13-21.68,18.72S258.87,67.73,249,72.08s-1.93,18.5-12.12,25.83-21.32-4.52-28.56,3.43,5.84,17.68-.46,28.48-21.33,4.44-24.68,14.63,12.59,13.82,11.28,26.2S176.78,183.28,177.91,194s17.19,7.57,21.07,19.39-11,18.63-5.53,28,18.82,0,27.21,9.23S218.3,272,227.09,278.3s17.19-7.58,28.65-2.52,6.66,20.54,17.28,22.77,12.57-13.84,25.14-13.84,14.55,16.07,25.14,13.84,5.78-17.7,17.28-22.77,19.91,8.82,28.65,2.52-2-18.49,6.43-27.76,21.8,0,27.21-9.23-9.42-16.1-5.53-28,19.93-8.73,21.07-19.39S403.2,183,401.88,170.66ZM298.16,247.77a67.52,67.52,0,1,1,67.52-67.52A67.52,67.52,0,0,1,298.16,247.77Z"/></clipPath></defs><title>ELS_Webshop_Illustrations_480px RGB</title><g class="cls-2"><g id="Illustrations"><circle class="cls-3" cx="185.87" cy="293.93" r="124.34"/><circle class="cls-4" cx="185.87" cy="293.93" r="68.38"/><g class="cls-5"><line class="cls-6" x1="453.59" y1="85.27" x2="202.04" y2="336.82"/><line class="cls-6" x1="456.18" y1="87.86" x2="204.63" y2="339.41"/><line class="cls-6" x1="458.77" y1="90.45" x2="207.22" y2="342.01"/><line class="cls-6" x1="461.37" y1="93.05" x2="209.81" y2="344.6"/><line class="cls-6" x1="463.96" y1="95.64" x2="212.41" y2="347.19"/><line class="cls-6" x1="466.55" y1="98.23" x2="215" y2="349.78"/><line class="cls-6" x1="469.14" y1="100.82" x2="217.59" y2="352.38"/><line class="cls-6" x1="471.74" y1="103.42" x2="220.18" y2="354.97"/><line class="cls-6" x1="474.33" y1="106.01" x2="222.78" y2="357.56"/><line class="cls-6" x1="476.92" y1="108.6" x2="225.37" y2="360.15"/><line class="cls-6" x1="479.52" y1="111.19" x2="227.96" y2="362.75"/><line class="cls-6" x1="482.11" y1="113.79" x2="230.55" y2="365.34"/><line class="cls-6" x1="484.7" y1="116.38" x2="233.15" y2="367.93"/><line class="cls-6" x1="487.29" y1="118.97" x2="235.74" y2="370.52"/><line class="cls-6" x1="489.89" y1="121.56" x2="238.33" y2="373.12"/><line class="cls-6" x1="492.48" y1="124.16" x2="240.92" y2="375.71"/><line class="cls-6" x1="495.07" y1="126.75" x2="243.52" y2="378.3"/><line class="cls-6" x1="497.66" y1="129.34" x2="246.11" y2="380.9"/><line class="cls-6" x1="500.26" y1="131.93" x2="248.7" y2="383.49"/><line class="cls-6" x1="502.85" y1="134.53" x2="251.29" y2="386.08"/><line class="cls-6" x1="505.44" y1="137.12" x2="253.89" y2="388.67"/><line class="cls-6" x1="508.03" y1="139.71" x2="256.48" y2="391.27"/><line class="cls-6" x1="510.63" y1="142.3" x2="259.07" y2="393.86"/><line class="cls-6" x1="513.22" y1="144.9" x2="261.66" y2="396.45"/><line class="cls-6" x1="515.81" y1="147.49" x2="264.26" y2="399.04"/><line class="cls-6" x1="518.4" y1="150.08" x2="266.85" y2="401.64"/><line class="cls-6" x1="521" y1="152.67" x2="269.44" y2="404.23"/><line class="cls-6" x1="523.59" y1="155.27" x2="272.03" y2="406.82"/><line class="cls-6" x1="526.18" y1="157.86" x2="274.63" y2="409.41"/><line class="cls-6" x1="528.77" y1="160.45" x2="277.22" y2="412.01"/><line class="cls-6" x1="531.37" y1="163.04" x2="279.81" y2="414.6"/><line class="cls-6" x1="533.96" y1="165.64" x2="282.4" y2="417.19"/><line class="cls-6" x1="536.55" y1="168.23" x2="285" y2="419.78"/><line class="cls-6" x1="539.14" y1="170.82" x2="287.59" y2="422.38"/><line class="cls-6" x1="541.74" y1="173.41" x2="290.18" y2="424.97"/><line class="cls-6" x1="544.33" y1="176.01" x2="292.78" y2="427.56"/><line class="cls-6" x1="546.92" y1="178.6" x2="295.37" y2="430.15"/><line class="cls-6" x1="549.51" y1="181.19" x2="297.96" y2="432.75"/><line class="cls-6" x1="552.11" y1="183.78" x2="300.55" y2="435.34"/><line class="cls-6" x1="554.7" y1="186.38" x2="303.15" y2="437.93"/><line class="cls-6" x1="557.29" y1="188.97" x2="305.74" y2="440.52"/><line class="cls-6" x1="559.88" y1="191.56" x2="308.33" y2="443.12"/><line class="cls-6" x1="562.48" y1="194.16" x2="310.92" y2="445.71"/><line class="cls-6" x1="565.07" y1="196.75" x2="313.52" y2="448.3"/><line class="cls-6" x1="567.66" y1="199.34" x2="316.11" y2="450.89"/><line class="cls-6" x1="570.25" y1="201.93" x2="318.7" y2="453.49"/><line class="cls-6" x1="572.85" y1="204.53" x2="321.29" y2="456.08"/><line class="cls-6" x1="575.44" y1="207.12" x2="323.89" y2="458.67"/><line class="cls-6" x1="578.03" y1="209.71" x2="326.48" y2="461.26"/><line class="cls-6" x1="580.62" y1="212.3" x2="329.07" y2="463.86"/><line class="cls-6" x1="583.22" y1="214.9" x2="331.66" y2="466.45"/><line class="cls-6" x1="585.81" y1="217.49" x2="334.26" y2="469.04"/><line class="cls-6" x1="588.4" y1="220.08" x2="336.85" y2="471.63"/><line class="cls-6" x1="590.99" y1="222.67" x2="339.44" y2="474.23"/><line class="cls-6" x1="593.59" y1="225.27" x2="342.03" y2="476.82"/><line class="cls-6" x1="596.18" y1="227.86" x2="344.63" y2="479.41"/><line class="cls-6" x1="598.77" y1="230.45" x2="347.22" y2="482"/><line class="cls-6" x1="601.36" y1="233.04" x2="349.81" y2="484.6"/><line class="cls-6" x1="308.14" y1="-69.97" x2="56.59" y2="181.58"/><line class="cls-6" x1="310.73" y1="-67.38" x2="59.18" y2="184.18"/><line class="cls-6" x1="313.32" y1="-64.78" x2="61.77" y2="186.77"/><line class="cls-6" x1="315.92" y1="-62.19" x2="64.36" y2="189.36"/><line class="cls-6" x1="318.51" y1="-59.6" x2="66.96" y2="191.95"/><line class="cls-6" x1="321.1" y1="-57.01" x2="69.55" y2="194.55"/><line class="cls-6" x1="323.69" y1="-54.41" x2="72.14" y2="197.14"/><line class="cls-6" x1="326.29" y1="-51.82" x2="74.73" y2="199.73"/><line class="cls-6" x1="328.88" y1="-49.23" x2="77.33" y2="202.32"/><line class="cls-6" x1="331.47" y1="-46.64" x2="79.92" y2="204.92"/><line class="cls-6" x1="334.07" y1="-44.04" x2="82.51" y2="207.51"/><line class="cls-6" x1="336.66" y1="-41.45" x2="85.1" y2="210.1"/><line class="cls-6" x1="339.25" y1="-38.86" x2="87.7" y2="212.69"/><line class="cls-6" x1="341.84" y1="-36.27" x2="90.29" y2="215.29"/><line class="cls-6" x1="344.44" y1="-33.67" x2="92.88" y2="217.88"/><line class="cls-6" x1="347.03" y1="-31.08" x2="95.47" y2="220.47"/><line class="cls-6" x1="349.62" y1="-28.49" x2="98.07" y2="223.06"/><line class="cls-6" x1="352.21" y1="-25.9" x2="100.66" y2="225.66"/><line class="cls-6" x1="354.81" y1="-23.3" x2="103.25" y2="228.25"/><line class="cls-6" x1="357.4" y1="-20.71" x2="105.84" y2="230.84"/><line class="cls-6" x1="359.99" y1="-18.12" x2="108.44" y2="233.43"/><line class="cls-6" x1="362.58" y1="-15.53" x2="111.03" y2="236.03"/><line class="cls-6" x1="365.18" y1="-12.93" x2="113.62" y2="238.62"/><line class="cls-6" x1="367.77" y1="-10.34" x2="116.21" y2="241.21"/><line class="cls-6" x1="370.36" y1="-7.75" x2="118.81" y2="243.8"/><line class="cls-6" x1="372.95" y1="-5.16" x2="121.4" y2="246.4"/><line class="cls-6" x1="375.55" y1="-2.56" x2="123.99" y2="248.99"/><line class="cls-6" x1="378.14" y1="0.03" x2="126.58" y2="251.58"/><line class="cls-6" x1="380.73" y1="2.62" x2="129.18" y2="254.18"/><line class="cls-6" x1="383.32" y1="5.21" x2="131.77" y2="256.77"/><line class="cls-6" x1="385.92" y1="7.81" x2="134.36" y2="259.36"/><line class="cls-6" x1="388.51" y1="10.4" x2="136.96" y2="261.95"/><line class="cls-6" x1="391.1" y1="12.99" x2="139.55" y2="264.55"/><line class="cls-6" x1="393.69" y1="15.58" x2="142.14" y2="267.14"/><line class="cls-6" x1="396.29" y1="18.18" x2="144.73" y2="269.73"/><line class="cls-6" x1="398.88" y1="20.77" x2="147.33" y2="272.32"/><line class="cls-6" x1="401.47" y1="23.36" x2="149.92" y2="274.92"/><line class="cls-6" x1="404.06" y1="25.95" x2="152.51" y2="277.51"/><line class="cls-6" x1="406.66" y1="28.55" x2="155.1" y2="280.1"/><line class="cls-6" x1="409.25" y1="31.14" x2="157.7" y2="282.69"/><line class="cls-6" x1="411.84" y1="33.73" x2="160.29" y2="285.29"/><line class="cls-6" x1="414.43" y1="36.32" x2="162.88" y2="287.88"/><line class="cls-6" x1="417.03" y1="38.92" x2="165.47" y2="290.47"/><line class="cls-6" x1="419.62" y1="41.51" x2="168.07" y2="293.06"/><line class="cls-6" x1="422.21" y1="44.1" x2="170.66" y2="295.66"/><line class="cls-6" x1="424.8" y1="46.69" x2="173.25" y2="298.25"/><line class="cls-6" x1="427.4" y1="49.29" x2="175.84" y2="300.84"/><line class="cls-6" x1="429.99" y1="51.88" x2="178.44" y2="303.43"/><line class="cls-6" x1="432.58" y1="54.47" x2="181.03" y2="306.03"/><line class="cls-6" x1="435.17" y1="57.06" x2="183.62" y2="308.62"/><line class="cls-6" x1="437.77" y1="59.66" x2="186.21" y2="311.21"/><line class="cls-6" x1="440.36" y1="62.25" x2="188.81" y2="313.8"/><line class="cls-6" x1="442.95" y1="64.84" x2="191.4" y2="316.4"/><line class="cls-6" x1="445.54" y1="67.44" x2="193.99" y2="318.99"/><line class="cls-6" x1="448.14" y1="70.03" x2="196.58" y2="321.58"/><line class="cls-6" x1="450.73" y1="72.62" x2="199.18" y2="324.17"/><line class="cls-6" x1="453.32" y1="75.21" x2="201.77" y2="326.77"/><line class="cls-6" x1="455.91" y1="77.81" x2="204.36" y2="329.36"/><line class="cls-6" x1="162.69" y1="-225.21" x2="-88.86" y2="26.35"/><line class="cls-6" x1="165.28" y1="-222.61" x2="-86.27" y2="28.94"/><line class="cls-6" x1="167.87" y1="-220.02" x2="-83.68" y2="31.53"/><line class="cls-6" x1="170.47" y1="-217.43" x2="-81.09" y2="34.12"/><line class="cls-6" x1="173.06" y1="-214.84" x2="-78.49" y2="36.72"/><line class="cls-6" x1="175.65" y1="-212.24" x2="-75.9" y2="39.31"/><line class="cls-6" x1="178.25" y1="-209.65" x2="-73.31" y2="41.9"/><line class="cls-6" x1="180.84" y1="-207.06" x2="-70.72" y2="44.49"/><line class="cls-6" x1="183.43" y1="-204.47" x2="-68.12" y2="47.09"/><line class="cls-6" x1="186.02" y1="-201.87" x2="-65.53" y2="49.68"/><line class="cls-6" x1="188.62" y1="-199.28" x2="-62.94" y2="52.27"/><line class="cls-6" x1="191.21" y1="-196.69" x2="-60.35" y2="54.86"/><line class="cls-6" x1="193.8" y1="-194.1" x2="-57.75" y2="57.46"/><line class="cls-6" x1="196.39" y1="-191.5" x2="-55.16" y2="60.05"/><line class="cls-6" x1="198.99" y1="-188.91" x2="-52.57" y2="62.64"/><line class="cls-6" x1="201.58" y1="-186.32" x2="-49.98" y2="65.23"/><line class="cls-6" x1="204.17" y1="-183.73" x2="-47.38" y2="67.83"/><line class="cls-6" x1="206.76" y1="-181.13" x2="-44.79" y2="70.42"/><line class="cls-6" x1="209.36" y1="-178.54" x2="-42.2" y2="73.01"/><line class="cls-6" x1="211.95" y1="-175.95" x2="-39.61" y2="75.6"/><line class="cls-6" x1="214.54" y1="-173.36" x2="-37.01" y2="78.2"/><line class="cls-6" x1="217.13" y1="-170.76" x2="-34.42" y2="80.79"/><line class="cls-6" x1="219.73" y1="-168.17" x2="-31.83" y2="83.38"/><line class="cls-6" x1="222.32" y1="-165.58" x2="-29.24" y2="85.97"/><line class="cls-6" x1="224.91" y1="-162.99" x2="-26.64" y2="88.57"/><line class="cls-6" x1="227.5" y1="-160.39" x2="-24.05" y2="91.16"/><line class="cls-6" x1="230.1" y1="-157.8" x2="-21.46" y2="93.75"/><line class="cls-6" x1="232.69" y1="-155.21" x2="-18.87" y2="96.34"/><line class="cls-6" x1="235.28" y1="-152.62" x2="-16.27" y2="98.94"/><line class="cls-6" x1="237.87" y1="-150.02" x2="-13.68" y2="101.53"/><line class="cls-6" x1="240.47" y1="-147.43" x2="-11.09" y2="104.12"/><line class="cls-6" x1="243.06" y1="-144.84" x2="-8.49" y2="106.71"/><line class="cls-6" x1="245.65" y1="-142.25" x2="-5.9" y2="109.31"/><line class="cls-6" x1="248.24" y1="-139.65" x2="-3.31" y2="111.9"/><line class="cls-6" x1="250.84" y1="-137.06" x2="-0.72" y2="114.49"/><line class="cls-6" x1="253.43" y1="-134.47" x2="1.88" y2="117.08"/><line class="cls-6" x1="256.02" y1="-131.88" x2="4.47" y2="119.68"/><line class="cls-6" x1="258.61" y1="-129.28" x2="7.06" y2="122.27"/><line class="cls-6" x1="261.21" y1="-126.69" x2="9.65" y2="124.86"/><line class="cls-6" x1="263.8" y1="-124.1" x2="12.25" y2="127.46"/><line class="cls-6" x1="266.39" y1="-121.51" x2="14.84" y2="130.05"/><line class="cls-6" x1="268.98" y1="-118.91" x2="17.43" y2="132.64"/><line class="cls-6" x1="271.58" y1="-116.32" x2="20.02" y2="135.23"/><line class="cls-6" x1="274.17" y1="-113.73" x2="22.62" y2="137.83"/><line class="cls-6" x1="276.76" y1="-111.14" x2="25.21" y2="140.42"/><line class="cls-6" x1="279.35" y1="-108.54" x2="27.8" y2="143.01"/><line class="cls-6" x1="281.95" y1="-105.95" x2="30.39" y2="145.6"/><line class="cls-6" x1="284.54" y1="-103.36" x2="32.99" y2="148.2"/><line class="cls-6" x1="287.13" y1="-100.77" x2="35.58" y2="150.79"/><line class="cls-6" x1="289.72" y1="-98.17" x2="38.17" y2="153.38"/><line class="cls-6" x1="292.32" y1="-95.58" x2="40.76" y2="155.97"/><line class="cls-6" x1="294.91" y1="-92.99" x2="43.36" y2="158.57"/><line class="cls-6" x1="297.5" y1="-90.4" x2="45.95" y2="161.16"/><line class="cls-6" x1="300.09" y1="-87.8" x2="48.54" y2="163.75"/><line class="cls-6" x1="302.69" y1="-85.21" x2="51.13" y2="166.34"/><line class="cls-6" x1="305.28" y1="-82.62" x2="53.73" y2="168.94"/><line class="cls-6" x1="307.87" y1="-80.03" x2="56.32" y2="171.53"/><line class="cls-6" x1="310.46" y1="-77.43" x2="58.91" y2="174.12"/></g></g></g></svg>