<svg xmlns="http://www.w3.org/2000/svg" xmlns:xlink="http://www.w3.org/1999/xlink" viewBox="0 0 480 480"><defs><style>.cls-1,.cls-4{fill:none;}.cls-2{isolation:isolate;}.cls-3{clip-path:url(#clip-path);}.cls-4{stroke:#565656;stroke-miterlimit:10;stroke-width:0.57px;}.cls-5{clip-path:url(#clip-path-2);}.cls-6{clip-path:url(#clip-path-3);}.cls-7,.cls-9{fill:#bb84ff;}.cls-8{clip-path:url(#clip-path-4);}.cls-9{mix-blend-mode:multiply;}</style><clipPath id="clip-path"><polygon class="cls-1" points="178.34 -347.35 225.14 -357.09 188.8 -393.99 178.34 -347.35"/></clipPath><clipPath id="clip-path-2"><polygon class="cls-1" points="247.43 -390.62 244.62 -361.97 369.6 -485.02 356.66 -498.17 356.63 -498.14 317.79 -537.59 193.08 -414.8 221.77 -417.16 247.65 -390.88 247.64 -390.83 247.43 -390.62"/></clipPath><clipPath id="clip-path-3"><path class="cls-1" d="M-281.29-283.45l14.87-15.08-68-67-14.87,15.08,68,67m-43.59-129.39q0-29.8-21.13-50.93-21-20.92-50.82-20.92t-50.93,20.92q-20.92,21.13-20.92,50.93T-447.77-362q21.13,21.13,50.93,21.13T-346-362q21.13-21,21.13-50.82m-36.09-36a49.33,49.33,0,0,1,15,36A49,49,0,0,1-361-377a49,49,0,0,1-35.87,15,49.33,49.33,0,0,1-36-15,48.33,48.33,0,0,1-14.76-35.87,48.65,48.65,0,0,1,14.76-36,48.65,48.65,0,0,1,36-14.76A48.33,48.33,0,0,1-361-448.8Z"/></clipPath><clipPath id="clip-path-4"><rect class="cls-1" x="254.16" y="130.65" width="130.86" height="130.86" rx="65.43" ry="65.43"/></clipPath></defs><title>ELS_Webshop_Illustrations_480px RGB</title><g class="cls-2"><g id="Illustrations"><g class="cls-3"><line class="cls-4" x1="677.63" y1="-388.66" x2="286.34" y2="2.62"/><line class="cls-4" x1="680.74" y1="-385.56" x2="289.45" y2="5.73"/><line class="cls-4" x1="683.85" y1="-382.45" x2="292.56" y2="8.84"/><line class="cls-4" x1="686.96" y1="-379.34" x2="295.67" y2="11.95"/><line class="cls-4" x1="690.07" y1="-376.23" x2="298.78" y2="15.06"/><line class="cls-4" x1="693.18" y1="-373.12" x2="301.89" y2="18.17"/><line class="cls-4" x1="696.29" y1="-370.01" x2="305" y2="21.28"/><line class="cls-4" x1="699.4" y1="-366.9" x2="308.11" y2="24.39"/><line class="cls-4" x1="702.51" y1="-363.79" x2="311.22" y2="27.5"/><line class="cls-4" x1="705.62" y1="-360.68" x2="314.33" y2="30.61"/><line class="cls-4" x1="708.73" y1="-357.57" x2="317.44" y2="33.72"/><line class="cls-4" x1="711.84" y1="-354.46" x2="320.55" y2="36.83"/><line class="cls-4" x1="714.95" y1="-351.35" x2="323.66" y2="39.94"/><line class="cls-4" x1="718.06" y1="-348.24" x2="326.77" y2="43.05"/><line class="cls-4" x1="721.16" y1="-345.13" x2="329.88" y2="46.16"/><line class="cls-4" x1="724.27" y1="-342.02" x2="332.98" y2="49.27"/><line class="cls-4" x1="727.38" y1="-338.91" x2="336.09" y2="52.38"/><line class="cls-4" x1="730.49" y1="-335.8" x2="339.2" y2="55.49"/><line class="cls-4" x1="733.6" y1="-332.69" x2="342.31" y2="58.6"/><line class="cls-4" x1="736.71" y1="-329.58" x2="345.42" y2="61.7"/><line class="cls-4" x1="739.82" y1="-326.48" x2="348.53" y2="64.81"/><line class="cls-4" x1="742.93" y1="-323.37" x2="351.64" y2="67.92"/><line class="cls-4" x1="746.04" y1="-320.26" x2="354.75" y2="71.03"/><line class="cls-4" x1="749.15" y1="-317.15" x2="357.86" y2="74.14"/><line class="cls-4" x1="752.26" y1="-314.04" x2="360.97" y2="77.25"/><line class="cls-4" x1="755.37" y1="-310.93" x2="364.08" y2="80.36"/><line class="cls-4" x1="758.48" y1="-307.82" x2="367.19" y2="83.47"/><line class="cls-4" x1="761.59" y1="-304.71" x2="370.3" y2="86.58"/><line class="cls-4" x1="764.7" y1="-301.6" x2="373.41" y2="89.69"/><line class="cls-4" x1="767.81" y1="-298.49" x2="376.52" y2="92.8"/><line class="cls-4" x1="770.92" y1="-295.38" x2="379.63" y2="95.91"/><line class="cls-4" x1="774.03" y1="-292.27" x2="382.74" y2="99.02"/><line class="cls-4" x1="777.13" y1="-289.16" x2="385.85" y2="102.13"/><line class="cls-4" x1="780.24" y1="-286.05" x2="388.96" y2="105.24"/><line class="cls-4" x1="783.35" y1="-282.94" x2="392.06" y2="108.35"/><line class="cls-4" x1="786.46" y1="-279.83" x2="395.17" y2="111.46"/><line class="cls-4" x1="789.57" y1="-276.72" x2="398.28" y2="114.57"/><line class="cls-4" x1="792.68" y1="-273.61" x2="401.39" y2="117.68"/><line class="cls-4" x1="795.79" y1="-270.5" x2="404.5" y2="120.78"/><line class="cls-4" x1="798.9" y1="-267.4" x2="407.61" y2="123.89"/><line class="cls-4" x1="802.01" y1="-264.29" x2="410.72" y2="127"/><line class="cls-4" x1="805.12" y1="-261.18" x2="413.83" y2="130.11"/><line class="cls-4" x1="808.23" y1="-258.07" x2="416.94" y2="133.22"/><line class="cls-4" x1="811.34" y1="-254.96" x2="420.05" y2="136.33"/><line class="cls-4" x1="814.45" y1="-251.85" x2="423.16" y2="139.44"/><line class="cls-4" x1="817.56" y1="-248.74" x2="426.27" y2="142.55"/><line class="cls-4" x1="820.67" y1="-245.63" x2="429.38" y2="145.66"/><line class="cls-4" x1="823.78" y1="-242.52" x2="432.49" y2="148.77"/><line class="cls-4" x1="826.89" y1="-239.41" x2="435.6" y2="151.88"/><line class="cls-4" x1="830" y1="-236.3" x2="438.71" y2="154.99"/><line class="cls-4" x1="833.11" y1="-233.19" x2="441.82" y2="158.1"/><line class="cls-4" x1="836.21" y1="-230.08" x2="444.93" y2="161.21"/><line class="cls-4" x1="839.32" y1="-226.97" x2="448.04" y2="164.32"/><line class="cls-4" x1="842.43" y1="-223.86" x2="451.14" y2="167.43"/><line class="cls-4" x1="845.54" y1="-220.75" x2="454.25" y2="170.54"/><line class="cls-4" x1="848.65" y1="-217.64" x2="457.36" y2="173.65"/><line class="cls-4" x1="851.76" y1="-214.53" x2="460.47" y2="176.76"/><line class="cls-4" x1="854.87" y1="-211.42" x2="463.58" y2="179.86"/></g><g class="cls-5"><line class="cls-4" x1="712.89" y1="-388.65" x2="321.6" y2="2.63"/><line class="cls-4" x1="715.99" y1="-385.55" x2="324.71" y2="5.74"/><line class="cls-4" x1="719.1" y1="-382.44" x2="327.81" y2="8.85"/><line class="cls-4" x1="722.21" y1="-379.33" x2="330.92" y2="11.96"/><line class="cls-4" x1="725.32" y1="-376.22" x2="334.03" y2="15.07"/><line class="cls-4" x1="728.43" y1="-373.11" x2="337.14" y2="18.18"/><line class="cls-4" x1="731.54" y1="-370" x2="340.25" y2="21.29"/><line class="cls-4" x1="734.65" y1="-366.89" x2="343.36" y2="24.4"/><line class="cls-4" x1="737.76" y1="-363.78" x2="346.47" y2="27.51"/><line class="cls-4" x1="740.87" y1="-360.67" x2="349.58" y2="30.62"/><line class="cls-4" x1="743.98" y1="-357.56" x2="352.69" y2="33.73"/><line class="cls-4" x1="747.09" y1="-354.45" x2="355.8" y2="36.84"/><line class="cls-4" x1="750.2" y1="-351.34" x2="358.91" y2="39.95"/><line class="cls-4" x1="753.31" y1="-348.23" x2="362.02" y2="43.06"/><line class="cls-4" x1="756.42" y1="-345.12" x2="365.13" y2="46.17"/><line class="cls-4" x1="759.53" y1="-342.01" x2="368.24" y2="49.28"/><line class="cls-4" x1="762.64" y1="-338.9" x2="371.35" y2="52.39"/><line class="cls-4" x1="765.75" y1="-335.79" x2="374.46" y2="55.5"/><line class="cls-4" x1="768.86" y1="-332.68" x2="377.57" y2="58.61"/><line class="cls-4" x1="771.97" y1="-329.57" x2="380.68" y2="61.71"/><line class="cls-4" x1="775.07" y1="-326.47" x2="383.79" y2="64.82"/><line class="cls-4" x1="778.18" y1="-323.36" x2="386.89" y2="67.93"/><line class="cls-4" x1="781.29" y1="-320.25" x2="390" y2="71.04"/><line class="cls-4" x1="784.4" y1="-317.14" x2="393.11" y2="74.15"/><line class="cls-4" x1="787.51" y1="-314.03" x2="396.22" y2="77.26"/></g><g class="cls-6"><line class="cls-4" x1="59.21" y1="-336.46" x2="-278.59" y2="1.34"/><line class="cls-4" x1="61.89" y1="-333.78" x2="-275.9" y2="4.02"/><line class="cls-4" x1="64.58" y1="-331.09" x2="-273.22" y2="6.7"/><line class="cls-4" x1="67.26" y1="-328.41" x2="-270.53" y2="9.39"/><line class="cls-4" x1="69.94" y1="-325.72" x2="-267.85" y2="12.07"/><line class="cls-4" x1="72.63" y1="-323.04" x2="-265.17" y2="14.76"/><line class="cls-4" x1="75.31" y1="-320.35" x2="-262.48" y2="17.44"/><line class="cls-4" x1="78" y1="-317.67" x2="-259.8" y2="20.13"/><line class="cls-4" x1="80.68" y1="-314.98" x2="-257.11" y2="22.81"/><line class="cls-4" x1="83.37" y1="-312.3" x2="-254.43" y2="25.49"/><line class="cls-4" x1="86.05" y1="-309.62" x2="-251.74" y2="28.18"/><line class="cls-4" x1="88.74" y1="-306.93" x2="-249.06" y2="30.86"/><line class="cls-4" x1="91.42" y1="-304.25" x2="-246.38" y2="33.55"/><line class="cls-4" x1="94.1" y1="-301.56" x2="-243.69" y2="36.23"/><line class="cls-4" x1="96.79" y1="-298.88" x2="-241.01" y2="38.92"/><line class="cls-4" x1="99.47" y1="-296.19" x2="-238.32" y2="41.6"/><line class="cls-4" x1="102.16" y1="-293.51" x2="-235.64" y2="44.29"/><line class="cls-4" x1="104.84" y1="-290.83" x2="-232.95" y2="46.97"/><line class="cls-4" x1="107.53" y1="-288.14" x2="-230.27" y2="49.65"/><line class="cls-4" x1="110.21" y1="-285.46" x2="-227.58" y2="52.34"/><line class="cls-4" x1="112.89" y1="-282.77" x2="-224.9" y2="55.02"/><line class="cls-4" x1="115.58" y1="-280.09" x2="-222.22" y2="57.71"/></g><rect class="cls-7" x="103.77" y="130.65" width="130.86" height="130.86"/><g class="cls-8"><line class="cls-4" x1="711.35" y1="157.02" x2="320.06" y2="548.31"/><line class="cls-4" x1="714.45" y1="160.13" x2="323.17" y2="551.42"/><line class="cls-4" x1="717.56" y1="163.24" x2="326.27" y2="554.53"/><line class="cls-4" x1="720.67" y1="166.35" x2="329.38" y2="557.64"/><line class="cls-4" x1="723.78" y1="169.46" x2="332.49" y2="560.75"/><line class="cls-4" x1="726.89" y1="172.57" x2="335.6" y2="563.86"/><line class="cls-4" x1="730" y1="175.68" x2="338.71" y2="566.97"/><line class="cls-4" x1="733.11" y1="178.79" x2="341.82" y2="570.08"/><line class="cls-4" x1="736.22" y1="181.9" x2="344.93" y2="573.19"/><line class="cls-4" x1="739.33" y1="185.01" x2="348.04" y2="576.3"/><line class="cls-4" x1="742.44" y1="188.12" x2="351.15" y2="579.4"/><line class="cls-4" x1="745.55" y1="191.22" x2="354.26" y2="582.51"/><line class="cls-4" x1="748.66" y1="194.33" x2="357.37" y2="585.62"/><line class="cls-4" x1="751.77" y1="197.44" x2="360.48" y2="588.73"/><line class="cls-4" x1="754.88" y1="200.55" x2="363.59" y2="591.84"/><line class="cls-4" x1="757.99" y1="203.66" x2="366.7" y2="594.95"/><line class="cls-4" x1="761.1" y1="206.77" x2="369.81" y2="598.06"/><line class="cls-4" x1="764.21" y1="209.88" x2="372.92" y2="601.17"/><line class="cls-4" x1="767.32" y1="212.99" x2="376.03" y2="604.28"/><line class="cls-4" x1="770.43" y1="216.1" x2="379.14" y2="607.39"/><line class="cls-4" x1="773.53" y1="219.21" x2="382.25" y2="610.5"/><line class="cls-4" x1="776.64" y1="222.32" x2="385.35" y2="613.61"/><line class="cls-4" x1="779.75" y1="225.43" x2="388.46" y2="616.72"/><line class="cls-4" x1="782.86" y1="228.54" x2="391.57" y2="619.83"/><line class="cls-4" x1="785.97" y1="231.65" x2="394.68" y2="622.94"/><line class="cls-4" x1="789.08" y1="234.76" x2="397.79" y2="626.05"/><line class="cls-4" x1="792.19" y1="237.87" x2="400.9" y2="629.16"/><line class="cls-4" x1="795.3" y1="240.98" x2="404.01" y2="632.27"/><line class="cls-4" x1="798.41" y1="244.09" x2="407.12" y2="635.38"/><line class="cls-4" x1="801.52" y1="247.2" x2="410.23" y2="638.48"/><line class="cls-4" x1="804.63" y1="250.3" x2="413.34" y2="641.59"/><line class="cls-4" x1="807.74" y1="253.41" x2="416.45" y2="644.7"/><line class="cls-4" x1="810.85" y1="256.52" x2="419.56" y2="647.81"/><line class="cls-4" x1="813.96" y1="259.63" x2="422.67" y2="650.92"/><line class="cls-4" x1="817.07" y1="262.74" x2="425.78" y2="654.03"/><line class="cls-4" x1="820.18" y1="265.85" x2="428.89" y2="657.14"/><line class="cls-4" x1="823.29" y1="268.96" x2="432" y2="660.25"/><line class="cls-4" x1="826.4" y1="272.07" x2="435.11" y2="663.36"/><line class="cls-4" x1="829.51" y1="275.18" x2="438.22" y2="666.47"/><line class="cls-4" x1="832.61" y1="278.29" x2="441.33" y2="669.58"/><line class="cls-4" x1="835.72" y1="281.4" x2="444.43" y2="672.69"/><line class="cls-4" x1="838.83" y1="284.51" x2="447.54" y2="675.8"/><line class="cls-4" x1="841.94" y1="287.62" x2="450.65" y2="678.91"/><line class="cls-4" x1="845.05" y1="290.73" x2="453.76" y2="682.02"/><line class="cls-4" x1="848.16" y1="293.84" x2="456.87" y2="685.13"/><line class="cls-4" x1="851.27" y1="296.95" x2="459.98" y2="688.24"/><line class="cls-4" x1="854.38" y1="300.06" x2="463.09" y2="691.35"/><line class="cls-4" x1="857.49" y1="303.17" x2="466.2" y2="694.46"/><line class="cls-4" x1="860.6" y1="306.28" x2="469.31" y2="697.56"/><line class="cls-4" x1="863.71" y1="309.38" x2="472.42" y2="700.67"/><line class="cls-4" x1="866.82" y1="312.49" x2="475.53" y2="703.78"/><line class="cls-4" x1="869.93" y1="315.6" x2="478.64" y2="706.89"/><line class="cls-4" x1="538.64" y1="-30.91" x2="147.35" y2="360.38"/><line class="cls-4" x1="541.75" y1="-27.8" x2="150.46" y2="363.48"/><line class="cls-4" x1="544.85" y1="-24.7" x2="153.57" y2="366.59"/><line class="cls-4" x1="547.96" y1="-21.59" x2="156.67" y2="369.7"/><line class="cls-4" x1="551.07" y1="-18.48" x2="159.78" y2="372.81"/><line class="cls-4" x1="554.18" y1="-15.37" x2="162.89" y2="375.92"/><line class="cls-4" x1="557.29" y1="-12.26" x2="166" y2="379.03"/><line class="cls-4" x1="560.4" y1="-9.15" x2="169.11" y2="382.14"/><line class="cls-4" x1="563.51" y1="-6.04" x2="172.22" y2="385.25"/><line class="cls-4" x1="566.62" y1="-2.93" x2="175.33" y2="388.36"/><line class="cls-4" x1="569.73" y1="0.18" x2="178.44" y2="391.47"/><line class="cls-4" x1="572.84" y1="3.29" x2="181.55" y2="394.58"/><line class="cls-4" x1="575.95" y1="6.4" x2="184.66" y2="397.69"/><line class="cls-4" x1="579.06" y1="9.51" x2="187.77" y2="400.8"/><line class="cls-4" x1="582.17" y1="12.62" x2="190.88" y2="403.91"/><line class="cls-4" x1="585.28" y1="15.73" x2="193.99" y2="407.02"/><line class="cls-4" x1="588.39" y1="18.84" x2="197.1" y2="410.13"/><line class="cls-4" x1="591.5" y1="21.95" x2="200.21" y2="413.24"/><line class="cls-4" x1="594.61" y1="25.06" x2="203.32" y2="416.35"/><line class="cls-4" x1="597.72" y1="28.17" x2="206.43" y2="419.46"/><line class="cls-4" x1="600.83" y1="31.28" x2="209.54" y2="422.56"/><line class="cls-4" x1="603.93" y1="34.38" x2="212.65" y2="425.67"/><line class="cls-4" x1="607.04" y1="37.49" x2="215.75" y2="428.78"/><line class="cls-4" x1="610.15" y1="40.6" x2="218.86" y2="431.89"/><line class="cls-4" x1="613.26" y1="43.71" x2="221.97" y2="435"/><line class="cls-4" x1="616.37" y1="46.82" x2="225.08" y2="438.11"/><line class="cls-4" x1="619.48" y1="49.93" x2="228.19" y2="441.22"/><line class="cls-4" x1="622.59" y1="53.04" x2="231.3" y2="444.33"/><line class="cls-4" x1="625.7" y1="56.15" x2="234.41" y2="447.44"/><line class="cls-4" x1="628.81" y1="59.26" x2="237.52" y2="450.55"/><line class="cls-4" x1="631.92" y1="62.37" x2="240.63" y2="453.66"/><line class="cls-4" x1="635.03" y1="65.48" x2="243.74" y2="456.77"/><line class="cls-4" x1="638.14" y1="68.59" x2="246.85" y2="459.88"/><line class="cls-4" x1="641.25" y1="71.7" x2="249.96" y2="462.99"/><line class="cls-4" x1="644.36" y1="74.81" x2="253.07" y2="466.1"/><line class="cls-4" x1="647.47" y1="77.92" x2="256.18" y2="469.21"/><line class="cls-4" x1="650.58" y1="81.03" x2="259.29" y2="472.32"/><line class="cls-4" x1="653.69" y1="84.14" x2="262.4" y2="475.43"/><line class="cls-4" x1="656.8" y1="87.25" x2="265.51" y2="478.54"/><line class="cls-4" x1="659.91" y1="90.36" x2="268.62" y2="481.64"/><line class="cls-4" x1="663.01" y1="93.46" x2="271.73" y2="484.75"/><line class="cls-4" x1="666.12" y1="96.57" x2="274.83" y2="487.86"/><line class="cls-4" x1="669.23" y1="99.68" x2="277.94" y2="490.97"/><line class="cls-4" x1="672.34" y1="102.79" x2="281.05" y2="494.08"/><line class="cls-4" x1="675.45" y1="105.9" x2="284.16" y2="497.19"/><line class="cls-4" x1="678.56" y1="109.01" x2="287.27" y2="500.3"/><line class="cls-4" x1="681.67" y1="112.12" x2="290.38" y2="503.41"/><line class="cls-4" x1="684.78" y1="115.23" x2="293.49" y2="506.52"/><line class="cls-4" x1="687.89" y1="118.34" x2="296.6" y2="509.63"/><line class="cls-4" x1="691" y1="121.45" x2="299.71" y2="512.74"/><line class="cls-4" x1="694.11" y1="124.56" x2="302.82" y2="515.85"/><line class="cls-4" x1="697.22" y1="127.67" x2="305.93" y2="518.96"/><line class="cls-4" x1="700.33" y1="130.78" x2="309.04" y2="522.07"/><line class="cls-4" x1="703.44" y1="133.89" x2="312.15" y2="525.18"/><line class="cls-4" x1="706.55" y1="137" x2="315.26" y2="528.29"/><line class="cls-4" x1="709.66" y1="140.11" x2="318.37" y2="531.4"/><line class="cls-4" x1="712.77" y1="143.22" x2="321.48" y2="534.51"/><line class="cls-4" x1="715.88" y1="146.33" x2="324.59" y2="537.62"/><line class="cls-4" x1="365.93" y1="-218.85" x2="-25.36" y2="172.44"/><line class="cls-4" x1="369.04" y1="-215.74" x2="-22.25" y2="175.55"/><line class="cls-4" x1="372.15" y1="-212.63" x2="-19.14" y2="178.66"/><line class="cls-4" x1="375.25" y1="-209.52" x2="-16.03" y2="181.77"/><line class="cls-4" x1="378.36" y1="-206.41" x2="-12.93" y2="184.88"/><line class="cls-4" x1="381.47" y1="-203.3" x2="-9.82" y2="187.99"/><line class="cls-4" x1="384.58" y1="-200.19" x2="-6.71" y2="191.1"/><line class="cls-4" x1="387.69" y1="-197.08" x2="-3.6" y2="194.21"/><line class="cls-4" x1="390.8" y1="-193.97" x2="-0.49" y2="197.32"/><line class="cls-4" x1="393.91" y1="-190.86" x2="2.62" y2="200.43"/><line class="cls-4" x1="397.02" y1="-187.75" x2="5.73" y2="203.54"/><line class="cls-4" x1="400.13" y1="-184.64" x2="8.84" y2="206.64"/><line class="cls-4" x1="403.24" y1="-181.54" x2="11.95" y2="209.75"/><line class="cls-4" x1="406.35" y1="-178.43" x2="15.06" y2="212.86"/><line class="cls-4" x1="409.46" y1="-175.32" x2="18.17" y2="215.97"/><line class="cls-4" x1="412.57" y1="-172.21" x2="21.28" y2="219.08"/><line class="cls-4" x1="415.68" y1="-169.1" x2="24.39" y2="222.19"/><line class="cls-4" x1="418.79" y1="-165.99" x2="27.5" y2="225.3"/><line class="cls-4" x1="421.9" y1="-162.88" x2="30.61" y2="228.41"/><line class="cls-4" x1="425.01" y1="-159.77" x2="33.72" y2="231.52"/><line class="cls-4" x1="428.12" y1="-156.66" x2="36.83" y2="234.63"/><line class="cls-4" x1="431.23" y1="-153.55" x2="39.94" y2="237.74"/><line class="cls-4" x1="434.33" y1="-150.44" x2="43.05" y2="240.85"/><line class="cls-4" x1="437.44" y1="-147.33" x2="46.15" y2="243.96"/><line class="cls-4" x1="440.55" y1="-144.22" x2="49.26" y2="247.07"/><line class="cls-4" x1="443.66" y1="-141.11" x2="52.37" y2="250.18"/><line class="cls-4" x1="446.77" y1="-138" x2="55.48" y2="253.29"/><line class="cls-4" x1="449.88" y1="-134.89" x2="58.59" y2="256.4"/><line class="cls-4" x1="452.99" y1="-131.78" x2="61.7" y2="259.51"/><line class="cls-4" x1="456.1" y1="-128.67" x2="64.81" y2="262.62"/><line class="cls-4" x1="459.21" y1="-125.56" x2="67.92" y2="265.72"/><line class="cls-4" x1="462.32" y1="-122.46" x2="71.03" y2="268.83"/><line class="cls-4" x1="465.43" y1="-119.35" x2="74.14" y2="271.94"/><line class="cls-4" x1="468.54" y1="-116.24" x2="77.25" y2="275.05"/><line class="cls-4" x1="471.65" y1="-113.13" x2="80.36" y2="278.16"/><line class="cls-4" x1="474.76" y1="-110.02" x2="83.47" y2="281.27"/><line class="cls-4" x1="477.87" y1="-106.91" x2="86.58" y2="284.38"/><line class="cls-4" x1="480.98" y1="-103.8" x2="89.69" y2="287.49"/><line class="cls-4" x1="484.09" y1="-100.69" x2="92.8" y2="290.6"/><line class="cls-4" x1="487.2" y1="-97.58" x2="95.91" y2="293.71"/><line class="cls-4" x1="490.31" y1="-94.47" x2="99.02" y2="296.82"/><line class="cls-4" x1="493.41" y1="-91.36" x2="102.13" y2="299.93"/><line class="cls-4" x1="496.52" y1="-88.25" x2="105.23" y2="303.04"/><line class="cls-4" x1="499.63" y1="-85.14" x2="108.34" y2="306.15"/><line class="cls-4" x1="502.74" y1="-82.03" x2="111.45" y2="309.26"/><line class="cls-4" x1="505.85" y1="-78.92" x2="114.56" y2="312.37"/><line class="cls-4" x1="508.96" y1="-75.81" x2="117.67" y2="315.48"/><line class="cls-4" x1="512.07" y1="-72.7" x2="120.78" y2="318.59"/><line class="cls-4" x1="515.18" y1="-69.59" x2="123.89" y2="321.7"/><line class="cls-4" x1="518.29" y1="-66.48" x2="127" y2="324.8"/><line class="cls-4" x1="521.4" y1="-63.38" x2="130.11" y2="327.91"/><line class="cls-4" x1="524.51" y1="-60.27" x2="133.22" y2="331.02"/><line class="cls-4" x1="527.62" y1="-57.16" x2="136.33" y2="334.13"/><line class="cls-4" x1="530.73" y1="-54.05" x2="139.44" y2="337.24"/><line class="cls-4" x1="533.84" y1="-50.94" x2="142.55" y2="340.35"/><line class="cls-4" x1="536.95" y1="-47.83" x2="145.66" y2="343.46"/><line class="cls-4" x1="540.06" y1="-44.72" x2="148.77" y2="346.57"/><line class="cls-4" x1="543.17" y1="-41.61" x2="151.88" y2="349.68"/></g><polygon class="cls-9" points="169.87 218.49 94.31 349.35 245.42 349.35 169.87 218.49"/><rect class="cls-9" x="254.82" y="218.49" width="130.86" height="130.86" rx="65.43" ry="65.43"/></g></g></svg>