<svg xmlns="http://www.w3.org/2000/svg" xmlns:xlink="http://www.w3.org/1999/xlink" viewBox="0 0 480 480"><defs><style>.cls-1,.cls-4{fill:none;}.cls-2{isolation:isolate;}.cls-3{clip-path:url(#clip-path);}.cls-4{stroke:#565656;stroke-miterlimit:10;stroke-width:0.57px;}.cls-5{clip-path:url(#clip-path-2);}.cls-6,.cls-7{fill:#9fcfff;}.cls-7{mix-blend-mode:multiply;}.cls-8{clip-path:url(#clip-path-3);}</style><clipPath id="clip-path"><polygon class="cls-1" points="376.47 -538.59 301.5 -538.59 301.5 -613.31 226.54 -613.31 226.54 -538.59 151.57 -538.59 151.57 -463.15 226.54 -463.15 226.54 -388.42 301.5 -388.42 301.5 -463.15 376.47 -463.15 376.47 -538.59"/></clipPath><clipPath id="clip-path-2"><path class="cls-1" d="M-291.35,125.56a68.19,68.19,0,0,1,11.68,37.68c.24,39.16-31.49,70.41-70.73,70.64l-91.44.56,45.07-44.7-24.13-23.37-85.67,86.83,86.72,85.65L-396,314.06l-45.68-45.79,91.51-.56c57.94-.35,104.76-46.89,104.41-104.67-.14-23.55-8.2-44.4-21.45-61.84"/></clipPath><clipPath id="clip-path-3"><polyline class="cls-1" points="344 87.6 264.97 87.6 217.98 197.3 259.69 197.3 211.27 322.68 375.11 158.12 313.92 158.12 344 87.6"/></clipPath></defs><title>ELS_Webshop_Illustrations_480px RGB</title><g class="cls-2"><g id="Illustrations"><g class="cls-3"><line class="cls-4" x1="721.63" y1="-390.62" x2="330.34" y2="0.67"/><line class="cls-4" x1="724.74" y1="-387.51" x2="333.45" y2="3.78"/><line class="cls-4" x1="727.85" y1="-384.4" x2="336.56" y2="6.89"/><line class="cls-4" x1="730.96" y1="-381.29" x2="339.67" y2="10"/><line class="cls-4" x1="734.07" y1="-378.18" x2="342.78" y2="13.11"/><line class="cls-4" x1="737.18" y1="-375.07" x2="345.89" y2="16.22"/><line class="cls-4" x1="740.29" y1="-371.96" x2="349" y2="19.33"/><line class="cls-4" x1="743.4" y1="-368.85" x2="352.11" y2="22.44"/><line class="cls-4" x1="746.5" y1="-365.74" x2="355.22" y2="25.54"/><line class="cls-4" x1="749.61" y1="-362.64" x2="358.33" y2="28.65"/><line class="cls-4" x1="752.72" y1="-359.53" x2="361.43" y2="31.76"/><line class="cls-4" x1="755.83" y1="-356.42" x2="364.54" y2="34.87"/><line class="cls-4" x1="758.94" y1="-353.31" x2="367.65" y2="37.98"/><line class="cls-4" x1="762.05" y1="-350.2" x2="370.76" y2="41.09"/><line class="cls-4" x1="765.16" y1="-347.09" x2="373.87" y2="44.2"/><line class="cls-4" x1="768.27" y1="-343.98" x2="376.98" y2="47.31"/><line class="cls-4" x1="771.38" y1="-340.87" x2="380.09" y2="50.42"/><line class="cls-4" x1="774.49" y1="-337.76" x2="383.2" y2="53.53"/><line class="cls-4" x1="777.6" y1="-334.65" x2="386.31" y2="56.64"/><line class="cls-4" x1="780.71" y1="-331.54" x2="389.42" y2="59.75"/><line class="cls-4" x1="783.82" y1="-328.43" x2="392.53" y2="62.86"/></g><g class="cls-5"><line class="cls-4" x1="0.96" y1="242.98" x2="-390.33" y2="634.27"/><line class="cls-4" x1="4.07" y1="246.09" x2="-387.22" y2="637.38"/><line class="cls-4" x1="7.18" y1="249.2" x2="-384.11" y2="640.48"/><line class="cls-4" x1="10.29" y1="252.31" x2="-381" y2="643.59"/><line class="cls-4" x1="13.4" y1="255.41" x2="-377.89" y2="646.7"/><line class="cls-4" x1="16.51" y1="258.52" x2="-374.78" y2="649.81"/><line class="cls-4" x1="19.62" y1="261.63" x2="-371.67" y2="652.92"/><line class="cls-4" x1="22.73" y1="264.74" x2="-368.56" y2="656.03"/><line class="cls-4" x1="25.84" y1="267.85" x2="-365.45" y2="659.14"/><line class="cls-4" x1="28.95" y1="270.96" x2="-362.34" y2="662.25"/><line class="cls-4" x1="32.06" y1="274.07" x2="-359.23" y2="665.36"/><line class="cls-4" x1="35.17" y1="277.18" x2="-356.12" y2="668.47"/><line class="cls-4" x1="38.27" y1="280.29" x2="-353.01" y2="671.58"/></g><rect class="cls-6" x="104.89" y="137.5" width="169.94" height="169.94"/><rect class="cls-7" x="189.86" y="222.46" width="169.94" height="169.94"/><g class="cls-8"><line class="cls-4" x1="547.89" y1="28.11" x2="156.6" y2="419.4"/><line class="cls-4" x1="551" y1="31.22" x2="159.71" y2="422.51"/><line class="cls-4" x1="554.1" y1="34.33" x2="162.82" y2="425.62"/><line class="cls-4" x1="557.21" y1="37.44" x2="165.93" y2="428.73"/><line class="cls-4" x1="560.32" y1="40.55" x2="169.03" y2="431.84"/><line class="cls-4" x1="563.43" y1="43.66" x2="172.14" y2="434.95"/><line class="cls-4" x1="566.54" y1="46.77" x2="175.25" y2="438.05"/><line class="cls-4" x1="569.65" y1="49.87" x2="178.36" y2="441.16"/><line class="cls-4" x1="572.76" y1="52.98" x2="181.47" y2="444.27"/><line class="cls-4" x1="575.87" y1="56.09" x2="184.58" y2="447.38"/><line class="cls-4" x1="578.98" y1="59.2" x2="187.69" y2="450.49"/><line class="cls-4" x1="582.09" y1="62.31" x2="190.8" y2="453.6"/><line class="cls-4" x1="585.2" y1="65.42" x2="193.91" y2="456.71"/><line class="cls-4" x1="588.31" y1="68.53" x2="197.02" y2="459.82"/><line class="cls-4" x1="591.42" y1="71.64" x2="200.13" y2="462.93"/><line class="cls-4" x1="594.53" y1="74.75" x2="203.24" y2="466.04"/><line class="cls-4" x1="597.64" y1="77.86" x2="206.35" y2="469.15"/><line class="cls-4" x1="600.75" y1="80.97" x2="209.46" y2="472.26"/><line class="cls-4" x1="603.86" y1="84.08" x2="212.57" y2="475.37"/><line class="cls-4" x1="606.97" y1="87.19" x2="215.68" y2="478.48"/><line class="cls-4" x1="610.08" y1="90.3" x2="218.79" y2="481.59"/><line class="cls-4" x1="613.18" y1="93.41" x2="221.9" y2="484.7"/><line class="cls-4" x1="616.29" y1="96.52" x2="225.01" y2="487.81"/><line class="cls-4" x1="619.4" y1="99.63" x2="228.11" y2="490.92"/><line class="cls-4" x1="622.51" y1="102.74" x2="231.22" y2="494.03"/><line class="cls-4" x1="625.62" y1="105.85" x2="234.33" y2="497.13"/><line class="cls-4" x1="628.73" y1="108.95" x2="237.44" y2="500.24"/><line class="cls-4" x1="631.84" y1="112.06" x2="240.55" y2="503.35"/><line class="cls-4" x1="634.95" y1="115.17" x2="243.66" y2="506.46"/><line class="cls-4" x1="638.06" y1="118.28" x2="246.77" y2="509.57"/><line class="cls-4" x1="641.17" y1="121.39" x2="249.88" y2="512.68"/><line class="cls-4" x1="644.28" y1="124.5" x2="252.99" y2="515.79"/><line class="cls-4" x1="647.39" y1="127.61" x2="256.1" y2="518.9"/><line class="cls-4" x1="650.5" y1="130.72" x2="259.21" y2="522.01"/><line class="cls-4" x1="653.61" y1="133.83" x2="262.32" y2="525.12"/><line class="cls-4" x1="656.72" y1="136.94" x2="265.43" y2="528.23"/><line class="cls-4" x1="659.83" y1="140.05" x2="268.54" y2="531.34"/><line class="cls-4" x1="662.94" y1="143.16" x2="271.65" y2="534.45"/><line class="cls-4" x1="666.05" y1="146.27" x2="274.76" y2="537.56"/><line class="cls-4" x1="669.16" y1="149.38" x2="277.87" y2="540.67"/><line class="cls-4" x1="672.26" y1="152.49" x2="280.98" y2="543.78"/><line class="cls-4" x1="675.37" y1="155.6" x2="284.08" y2="546.89"/><line class="cls-4" x1="678.48" y1="158.71" x2="287.19" y2="550"/><line class="cls-4" x1="681.59" y1="161.82" x2="290.3" y2="553.11"/><line class="cls-4" x1="684.7" y1="164.93" x2="293.41" y2="556.21"/><line class="cls-4" x1="687.81" y1="168.03" x2="296.52" y2="559.32"/><line class="cls-4" x1="690.92" y1="171.14" x2="299.63" y2="562.43"/><line class="cls-4" x1="694.03" y1="174.25" x2="302.74" y2="565.54"/><line class="cls-4" x1="697.14" y1="177.36" x2="305.85" y2="568.65"/><line class="cls-4" x1="700.25" y1="180.47" x2="308.96" y2="571.76"/><line class="cls-4" x1="703.36" y1="183.58" x2="312.07" y2="574.87"/><line class="cls-4" x1="706.47" y1="186.69" x2="315.18" y2="577.98"/><line class="cls-4" x1="709.58" y1="189.8" x2="318.29" y2="581.09"/><line class="cls-4" x1="712.69" y1="192.91" x2="321.4" y2="584.2"/><line class="cls-4" x1="715.8" y1="196.02" x2="324.51" y2="587.31"/><line class="cls-4" x1="718.91" y1="199.13" x2="327.62" y2="590.42"/><line class="cls-4" x1="722.02" y1="202.24" x2="330.73" y2="593.53"/><line class="cls-4" x1="725.13" y1="205.35" x2="333.84" y2="596.64"/><line class="cls-4" x1="375.18" y1="-159.83" x2="-16.11" y2="231.46"/><line class="cls-4" x1="378.29" y1="-156.72" x2="-13" y2="234.57"/><line class="cls-4" x1="381.4" y1="-153.61" x2="-9.89" y2="237.68"/><line class="cls-4" x1="384.5" y1="-150.5" x2="-6.78" y2="240.79"/><line class="cls-4" x1="387.61" y1="-147.39" x2="-3.67" y2="243.9"/><line class="cls-4" x1="390.72" y1="-144.28" x2="-0.57" y2="247.01"/><line class="cls-4" x1="393.83" y1="-141.17" x2="2.54" y2="250.12"/><line class="cls-4" x1="396.94" y1="-138.06" x2="5.65" y2="253.23"/><line class="cls-4" x1="400.05" y1="-134.95" x2="8.76" y2="256.34"/><line class="cls-4" x1="403.16" y1="-131.84" x2="11.87" y2="259.45"/><line class="cls-4" x1="406.27" y1="-128.73" x2="14.98" y2="262.56"/><line class="cls-4" x1="409.38" y1="-125.62" x2="18.09" y2="265.67"/><line class="cls-4" x1="412.49" y1="-122.51" x2="21.2" y2="268.78"/><line class="cls-4" x1="415.6" y1="-119.4" x2="24.31" y2="271.89"/><line class="cls-4" x1="418.71" y1="-116.29" x2="27.42" y2="275"/><line class="cls-4" x1="421.82" y1="-113.18" x2="30.53" y2="278.11"/><line class="cls-4" x1="424.93" y1="-110.07" x2="33.64" y2="281.21"/><line class="cls-4" x1="428.04" y1="-106.97" x2="36.75" y2="284.32"/><line class="cls-4" x1="431.15" y1="-103.86" x2="39.86" y2="287.43"/><line class="cls-4" x1="434.26" y1="-100.75" x2="42.97" y2="290.54"/><line class="cls-4" x1="437.37" y1="-97.64" x2="46.08" y2="293.65"/><line class="cls-4" x1="440.48" y1="-94.53" x2="49.19" y2="296.76"/><line class="cls-4" x1="443.58" y1="-91.42" x2="52.3" y2="299.87"/><line class="cls-4" x1="446.69" y1="-88.31" x2="55.41" y2="302.98"/><line class="cls-4" x1="449.8" y1="-85.2" x2="58.51" y2="306.09"/><line class="cls-4" x1="452.91" y1="-82.09" x2="61.62" y2="309.2"/><line class="cls-4" x1="456.02" y1="-78.98" x2="64.73" y2="312.31"/><line class="cls-4" x1="459.13" y1="-75.87" x2="67.84" y2="315.42"/><line class="cls-4" x1="462.24" y1="-72.76" x2="70.95" y2="318.53"/><line class="cls-4" x1="465.35" y1="-69.65" x2="74.06" y2="321.64"/><line class="cls-4" x1="468.46" y1="-66.54" x2="77.17" y2="324.75"/><line class="cls-4" x1="471.57" y1="-63.43" x2="80.28" y2="327.86"/><line class="cls-4" x1="474.68" y1="-60.32" x2="83.39" y2="330.97"/><line class="cls-4" x1="477.79" y1="-57.21" x2="86.5" y2="334.08"/><line class="cls-4" x1="480.9" y1="-54.1" x2="89.61" y2="337.19"/><line class="cls-4" x1="484.01" y1="-50.99" x2="92.72" y2="340.29"/><line class="cls-4" x1="487.12" y1="-47.89" x2="95.83" y2="343.4"/><line class="cls-4" x1="490.23" y1="-44.78" x2="98.94" y2="346.51"/><line class="cls-4" x1="493.34" y1="-41.67" x2="102.05" y2="349.62"/><line class="cls-4" x1="496.45" y1="-38.56" x2="105.16" y2="352.73"/><line class="cls-4" x1="499.56" y1="-35.45" x2="108.27" y2="355.84"/><line class="cls-4" x1="502.66" y1="-32.34" x2="111.38" y2="358.95"/><line class="cls-4" x1="505.77" y1="-29.23" x2="114.48" y2="362.06"/><line class="cls-4" x1="508.88" y1="-26.12" x2="117.59" y2="365.17"/><line class="cls-4" x1="511.99" y1="-23.01" x2="120.7" y2="368.28"/><line class="cls-4" x1="515.1" y1="-19.9" x2="123.81" y2="371.39"/><line class="cls-4" x1="518.21" y1="-16.79" x2="126.92" y2="374.5"/><line class="cls-4" x1="521.32" y1="-13.68" x2="130.03" y2="377.61"/><line class="cls-4" x1="524.43" y1="-10.57" x2="133.14" y2="380.72"/><line class="cls-4" x1="527.54" y1="-7.46" x2="136.25" y2="383.83"/><line class="cls-4" x1="530.65" y1="-4.35" x2="139.36" y2="386.94"/><line class="cls-4" x1="533.76" y1="-1.24" x2="142.47" y2="390.05"/><line class="cls-4" x1="536.87" y1="1.87" x2="145.58" y2="393.16"/><line class="cls-4" x1="539.98" y1="4.98" x2="148.69" y2="396.27"/><line class="cls-4" x1="543.09" y1="8.09" x2="151.8" y2="399.37"/><line class="cls-4" x1="546.2" y1="11.19" x2="154.91" y2="402.48"/><line class="cls-4" x1="549.31" y1="14.3" x2="158.02" y2="405.59"/><line class="cls-4" x1="552.42" y1="17.41" x2="161.13" y2="408.7"/><line class="cls-4" x1="202.47" y1="-347.76" x2="-188.82" y2="43.53"/><line class="cls-4" x1="205.58" y1="-344.65" x2="-185.71" y2="46.64"/><line class="cls-4" x1="208.69" y1="-341.54" x2="-182.6" y2="49.75"/><line class="cls-4" x1="211.8" y1="-338.43" x2="-179.49" y2="52.86"/><line class="cls-4" x1="214.9" y1="-335.32" x2="-176.38" y2="55.97"/><line class="cls-4" x1="218.01" y1="-332.21" x2="-173.27" y2="59.08"/><line class="cls-4" x1="221.12" y1="-329.1" x2="-170.17" y2="62.19"/><line class="cls-4" x1="224.23" y1="-325.99" x2="-167.06" y2="65.29"/><line class="cls-4" x1="227.34" y1="-322.89" x2="-163.95" y2="68.4"/><line class="cls-4" x1="230.45" y1="-319.78" x2="-160.84" y2="71.51"/><line class="cls-4" x1="233.56" y1="-316.67" x2="-157.73" y2="74.62"/><line class="cls-4" x1="236.67" y1="-313.56" x2="-154.62" y2="77.73"/><line class="cls-4" x1="239.78" y1="-310.45" x2="-151.51" y2="80.84"/><line class="cls-4" x1="242.89" y1="-307.34" x2="-148.4" y2="83.95"/><line class="cls-4" x1="246" y1="-304.23" x2="-145.29" y2="87.06"/><line class="cls-4" x1="249.11" y1="-301.12" x2="-142.18" y2="90.17"/><line class="cls-4" x1="252.22" y1="-298.01" x2="-139.07" y2="93.28"/><line class="cls-4" x1="255.33" y1="-294.9" x2="-135.96" y2="96.39"/><line class="cls-4" x1="258.44" y1="-291.79" x2="-132.85" y2="99.5"/><line class="cls-4" x1="261.55" y1="-288.68" x2="-129.74" y2="102.61"/><line class="cls-4" x1="264.66" y1="-285.57" x2="-126.63" y2="105.72"/><line class="cls-4" x1="267.77" y1="-282.46" x2="-123.52" y2="108.83"/><line class="cls-4" x1="270.88" y1="-279.35" x2="-120.41" y2="111.94"/><line class="cls-4" x1="273.98" y1="-276.24" x2="-117.3" y2="115.05"/><line class="cls-4" x1="277.09" y1="-273.13" x2="-114.2" y2="118.16"/><line class="cls-4" x1="280.2" y1="-270.02" x2="-111.09" y2="121.27"/><line class="cls-4" x1="283.31" y1="-266.91" x2="-107.98" y2="124.37"/><line class="cls-4" x1="286.42" y1="-263.81" x2="-104.87" y2="127.48"/><line class="cls-4" x1="289.53" y1="-260.7" x2="-101.76" y2="130.59"/><line class="cls-4" x1="292.64" y1="-257.59" x2="-98.65" y2="133.7"/><line class="cls-4" x1="295.75" y1="-254.48" x2="-95.54" y2="136.81"/><line class="cls-4" x1="298.86" y1="-251.37" x2="-92.43" y2="139.92"/><line class="cls-4" x1="301.97" y1="-248.26" x2="-89.32" y2="143.03"/><line class="cls-4" x1="305.08" y1="-245.15" x2="-86.21" y2="146.14"/><line class="cls-4" x1="308.19" y1="-242.04" x2="-83.1" y2="149.25"/><line class="cls-4" x1="311.3" y1="-238.93" x2="-79.99" y2="152.36"/><line class="cls-4" x1="314.41" y1="-235.82" x2="-76.88" y2="155.47"/><line class="cls-4" x1="317.52" y1="-232.71" x2="-73.77" y2="158.58"/><line class="cls-4" x1="320.63" y1="-229.6" x2="-70.66" y2="161.69"/><line class="cls-4" x1="323.74" y1="-226.49" x2="-67.55" y2="164.8"/><line class="cls-4" x1="326.85" y1="-223.38" x2="-64.44" y2="167.91"/><line class="cls-4" x1="329.96" y1="-220.27" x2="-61.33" y2="171.02"/><line class="cls-4" x1="333.06" y1="-217.16" x2="-58.22" y2="174.13"/><line class="cls-4" x1="336.17" y1="-214.05" x2="-55.12" y2="177.24"/><line class="cls-4" x1="339.28" y1="-210.94" x2="-52.01" y2="180.35"/><line class="cls-4" x1="342.39" y1="-207.83" x2="-48.9" y2="183.45"/><line class="cls-4" x1="345.5" y1="-204.73" x2="-45.79" y2="186.56"/><line class="cls-4" x1="348.61" y1="-201.62" x2="-42.68" y2="189.67"/><line class="cls-4" x1="351.72" y1="-198.51" x2="-39.57" y2="192.78"/><line class="cls-4" x1="354.83" y1="-195.4" x2="-36.46" y2="195.89"/><line class="cls-4" x1="357.94" y1="-192.29" x2="-33.35" y2="199"/><line class="cls-4" x1="361.05" y1="-189.18" x2="-30.24" y2="202.11"/><line class="cls-4" x1="364.16" y1="-186.07" x2="-27.13" y2="205.22"/><line class="cls-4" x1="367.27" y1="-182.96" x2="-24.02" y2="208.33"/><line class="cls-4" x1="370.38" y1="-179.85" x2="-20.91" y2="211.44"/><line class="cls-4" x1="373.49" y1="-176.74" x2="-17.8" y2="214.55"/><line class="cls-4" x1="376.6" y1="-173.63" x2="-14.69" y2="217.66"/><line class="cls-4" x1="379.71" y1="-170.52" x2="-11.58" y2="220.77"/></g></g></g></svg>