<svg xmlns="http://www.w3.org/2000/svg" xmlns:xlink="http://www.w3.org/1999/xlink" viewBox="0 0 480 480"><defs><style>.cls-1,.cls-6{fill:none;}.cls-2{isolation:isolate;}.cls-3,.cls-4{fill:#fdd300;}.cls-4{mix-blend-mode:multiply;}.cls-5{clip-path:url(#clip-path);}.cls-6{stroke:#565656;stroke-miterlimit:10;stroke-width:0.57px;}.cls-7{clip-path:url(#clip-path-2);}</style><clipPath id="clip-path"><polygon class="cls-1" points="410.97 280.81 195.34 280.81 195.34 65.18 410.97 280.81"/></clipPath><clipPath id="clip-path-2"><polygon class="cls-1" points="247.43 930.3 244.62 958.95 369.6 835.89 356.66 822.75 356.63 822.78 317.79 783.33 193.08 906.12 221.77 903.76 247.65 930.04 247.64 930.09 247.43 930.3"/></clipPath></defs><title>ELS_Webshop_Illustrations_480px RGB</title><g class="cls-2"><g id="Illustrations"><circle class="cls-3" cx="193.37" cy="290.47" r="124.34"/><circle class="cls-4" cx="193.37" cy="290.47" r="68.38"/><g class="cls-5"><line class="cls-6" x1="457.38" y1="97.49" x2="225.8" y2="329.07"/><line class="cls-6" x1="459.77" y1="99.88" x2="228.19" y2="331.46"/><line class="cls-6" x1="462.15" y1="102.27" x2="230.58" y2="333.85"/><line class="cls-6" x1="464.54" y1="104.65" x2="232.96" y2="336.23"/><line class="cls-6" x1="466.93" y1="107.04" x2="235.35" y2="338.62"/><line class="cls-6" x1="469.31" y1="109.43" x2="237.74" y2="341.01"/><line class="cls-6" x1="471.7" y1="111.81" x2="240.12" y2="343.39"/><line class="cls-6" x1="474.09" y1="114.2" x2="242.51" y2="345.78"/><line class="cls-6" x1="476.47" y1="116.59" x2="244.9" y2="348.17"/><line class="cls-6" x1="478.86" y1="118.97" x2="247.28" y2="350.55"/><line class="cls-6" x1="481.25" y1="121.36" x2="249.67" y2="352.94"/><line class="cls-6" x1="483.63" y1="123.75" x2="252.06" y2="355.33"/><line class="cls-6" x1="486.02" y1="126.13" x2="254.44" y2="357.71"/><line class="cls-6" x1="488.41" y1="128.52" x2="256.83" y2="360.1"/><line class="cls-6" x1="490.79" y1="130.91" x2="259.22" y2="362.49"/><line class="cls-6" x1="493.18" y1="133.29" x2="261.6" y2="364.87"/><line class="cls-6" x1="495.57" y1="135.68" x2="263.99" y2="367.26"/><line class="cls-6" x1="497.95" y1="138.07" x2="266.38" y2="369.65"/><line class="cls-6" x1="500.34" y1="140.45" x2="268.76" y2="372.03"/><line class="cls-6" x1="502.73" y1="142.84" x2="271.15" y2="374.42"/><line class="cls-6" x1="505.11" y1="145.23" x2="273.54" y2="376.81"/><line class="cls-6" x1="507.5" y1="147.61" x2="275.92" y2="379.19"/><line class="cls-6" x1="509.89" y1="150" x2="278.31" y2="381.58"/><line class="cls-6" x1="512.27" y1="152.39" x2="280.7" y2="383.97"/><line class="cls-6" x1="514.66" y1="154.77" x2="283.08" y2="386.35"/><line class="cls-6" x1="517.05" y1="157.16" x2="285.47" y2="388.74"/><line class="cls-6" x1="519.43" y1="159.55" x2="287.86" y2="391.13"/><line class="cls-6" x1="521.82" y1="161.93" x2="290.24" y2="393.51"/><line class="cls-6" x1="524.21" y1="164.32" x2="292.63" y2="395.9"/><line class="cls-6" x1="526.59" y1="166.71" x2="295.02" y2="398.29"/><line class="cls-6" x1="528.98" y1="169.09" x2="297.4" y2="400.67"/><line class="cls-6" x1="531.37" y1="171.48" x2="299.79" y2="403.06"/><line class="cls-6" x1="533.75" y1="173.87" x2="302.18" y2="405.45"/><line class="cls-6" x1="536.14" y1="176.25" x2="304.56" y2="407.83"/><line class="cls-6" x1="538.53" y1="178.64" x2="306.95" y2="410.22"/><line class="cls-6" x1="540.92" y1="181.03" x2="309.34" y2="412.61"/><line class="cls-6" x1="543.3" y1="183.41" x2="311.72" y2="414.99"/><line class="cls-6" x1="545.69" y1="185.8" x2="314.11" y2="417.38"/><line class="cls-6" x1="548.08" y1="188.19" x2="316.5" y2="419.77"/><line class="cls-6" x1="550.46" y1="190.57" x2="318.88" y2="422.15"/><line class="cls-6" x1="552.85" y1="192.96" x2="321.27" y2="424.54"/><line class="cls-6" x1="555.24" y1="195.35" x2="323.66" y2="426.93"/><line class="cls-6" x1="557.62" y1="197.73" x2="326.04" y2="429.31"/><line class="cls-6" x1="560.01" y1="200.12" x2="328.43" y2="431.7"/><line class="cls-6" x1="562.4" y1="202.51" x2="330.82" y2="434.09"/><line class="cls-6" x1="564.78" y1="204.89" x2="333.2" y2="436.47"/><line class="cls-6" x1="567.17" y1="207.28" x2="335.59" y2="438.86"/><line class="cls-6" x1="569.56" y1="209.67" x2="337.98" y2="441.25"/><line class="cls-6" x1="571.94" y1="212.05" x2="340.36" y2="443.63"/><line class="cls-6" x1="574.33" y1="214.44" x2="342.75" y2="446.02"/><line class="cls-6" x1="576.72" y1="216.83" x2="345.14" y2="448.41"/><line class="cls-6" x1="579.1" y1="219.21" x2="347.52" y2="450.79"/><line class="cls-6" x1="581.49" y1="221.6" x2="349.91" y2="453.18"/><line class="cls-6" x1="583.88" y1="223.99" x2="352.3" y2="455.57"/><line class="cls-6" x1="586.26" y1="226.37" x2="354.68" y2="457.95"/><line class="cls-6" x1="588.65" y1="228.76" x2="357.07" y2="460.34"/><line class="cls-6" x1="591.04" y1="231.15" x2="359.46" y2="462.73"/><line class="cls-6" x1="593.42" y1="233.53" x2="361.84" y2="465.11"/><line class="cls-6" x1="323.48" y1="-45.42" x2="91.9" y2="186.16"/><line class="cls-6" x1="325.87" y1="-43.03" x2="94.29" y2="188.55"/><line class="cls-6" x1="328.25" y1="-40.64" x2="96.67" y2="190.94"/><line class="cls-6" x1="330.64" y1="-38.26" x2="99.06" y2="193.32"/><line class="cls-6" x1="333.03" y1="-35.87" x2="101.45" y2="195.71"/><line class="cls-6" x1="335.41" y1="-33.48" x2="103.83" y2="198.1"/><line class="cls-6" x1="337.8" y1="-31.1" x2="106.22" y2="200.48"/><line class="cls-6" x1="340.19" y1="-28.71" x2="108.61" y2="202.87"/><line class="cls-6" x1="342.57" y1="-26.32" x2="110.99" y2="205.26"/><line class="cls-6" x1="344.96" y1="-23.94" x2="113.38" y2="207.64"/><line class="cls-6" x1="347.35" y1="-21.55" x2="115.77" y2="210.03"/><line class="cls-6" x1="349.73" y1="-19.16" x2="118.15" y2="212.42"/><line class="cls-6" x1="352.12" y1="-16.78" x2="120.54" y2="214.8"/><line class="cls-6" x1="354.51" y1="-14.39" x2="122.93" y2="217.19"/><line class="cls-6" x1="356.89" y1="-12" x2="125.31" y2="219.58"/><line class="cls-6" x1="359.28" y1="-9.62" x2="127.7" y2="221.96"/><line class="cls-6" x1="361.67" y1="-7.23" x2="130.09" y2="224.35"/><line class="cls-6" x1="364.05" y1="-4.84" x2="132.47" y2="226.74"/><line class="cls-6" x1="366.44" y1="-2.46" x2="134.86" y2="229.12"/><line class="cls-6" x1="368.83" y1="-0.07" x2="137.25" y2="231.51"/><line class="cls-6" x1="371.21" y1="2.32" x2="139.63" y2="233.9"/><line class="cls-6" x1="373.6" y1="4.7" x2="142.02" y2="236.28"/><line class="cls-6" x1="375.99" y1="7.09" x2="144.41" y2="238.67"/><line class="cls-6" x1="378.37" y1="9.48" x2="146.79" y2="241.06"/><line class="cls-6" x1="380.76" y1="11.86" x2="149.18" y2="243.44"/><line class="cls-6" x1="383.15" y1="14.25" x2="151.57" y2="245.83"/><line class="cls-6" x1="385.53" y1="16.64" x2="153.95" y2="248.22"/><line class="cls-6" x1="387.92" y1="19.02" x2="156.34" y2="250.6"/><line class="cls-6" x1="390.31" y1="21.41" x2="158.73" y2="252.99"/><line class="cls-6" x1="392.69" y1="23.8" x2="161.11" y2="255.38"/><line class="cls-6" x1="395.08" y1="26.18" x2="163.5" y2="257.76"/><line class="cls-6" x1="397.47" y1="28.57" x2="165.89" y2="260.15"/><line class="cls-6" x1="399.85" y1="30.96" x2="168.27" y2="262.54"/><line class="cls-6" x1="402.24" y1="33.34" x2="170.66" y2="264.92"/><line class="cls-6" x1="404.63" y1="35.73" x2="173.05" y2="267.31"/><line class="cls-6" x1="407.01" y1="38.12" x2="175.43" y2="269.7"/><line class="cls-6" x1="409.4" y1="40.5" x2="177.82" y2="272.08"/><line class="cls-6" x1="411.79" y1="42.89" x2="180.21" y2="274.47"/><line class="cls-6" x1="414.17" y1="45.28" x2="182.59" y2="276.86"/><line class="cls-6" x1="416.56" y1="47.66" x2="184.98" y2="279.24"/><line class="cls-6" x1="418.95" y1="50.05" x2="187.37" y2="281.63"/><line class="cls-6" x1="421.33" y1="52.44" x2="189.75" y2="284.02"/><line class="cls-6" x1="423.72" y1="54.82" x2="192.14" y2="286.4"/><line class="cls-6" x1="426.11" y1="57.21" x2="194.53" y2="288.79"/><line class="cls-6" x1="428.49" y1="59.6" x2="196.91" y2="291.18"/><line class="cls-6" x1="430.88" y1="61.98" x2="199.3" y2="293.56"/><line class="cls-6" x1="433.27" y1="64.37" x2="201.69" y2="295.95"/><line class="cls-6" x1="435.65" y1="66.76" x2="204.07" y2="298.34"/><line class="cls-6" x1="438.04" y1="69.14" x2="206.46" y2="300.72"/><line class="cls-6" x1="440.43" y1="71.53" x2="208.85" y2="303.11"/><line class="cls-6" x1="442.81" y1="73.92" x2="211.23" y2="305.5"/><line class="cls-6" x1="445.2" y1="76.3" x2="213.62" y2="307.88"/><line class="cls-6" x1="447.59" y1="78.69" x2="216.01" y2="310.27"/><line class="cls-6" x1="449.97" y1="81.08" x2="218.39" y2="312.66"/><line class="cls-6" x1="452.36" y1="83.46" x2="220.78" y2="315.04"/><line class="cls-6" x1="454.75" y1="85.85" x2="223.17" y2="317.43"/><line class="cls-6" x1="457.13" y1="88.24" x2="225.55" y2="319.82"/><line class="cls-6" x1="459.52" y1="90.62" x2="227.94" y2="322.2"/><line class="cls-6" x1="189.58" y1="-188.33" x2="-42" y2="43.25"/><line class="cls-6" x1="191.97" y1="-185.94" x2="-39.61" y2="45.64"/><line class="cls-6" x1="194.35" y1="-183.56" x2="-37.23" y2="48.02"/><line class="cls-6" x1="196.74" y1="-181.17" x2="-34.84" y2="50.41"/><line class="cls-6" x1="199.13" y1="-178.78" x2="-32.45" y2="52.8"/><line class="cls-6" x1="201.51" y1="-176.4" x2="-30.07" y2="55.18"/><line class="cls-6" x1="203.9" y1="-174.01" x2="-27.68" y2="57.57"/><line class="cls-6" x1="206.29" y1="-171.62" x2="-25.29" y2="59.96"/><line class="cls-6" x1="208.67" y1="-169.24" x2="-22.91" y2="62.34"/><line class="cls-6" x1="211.06" y1="-166.85" x2="-20.52" y2="64.73"/><line class="cls-6" x1="213.45" y1="-164.46" x2="-18.13" y2="67.12"/><line class="cls-6" x1="215.83" y1="-162.08" x2="-15.75" y2="69.5"/><line class="cls-6" x1="218.22" y1="-159.69" x2="-13.36" y2="71.89"/><line class="cls-6" x1="220.61" y1="-157.3" x2="-10.97" y2="74.28"/><line class="cls-6" x1="222.99" y1="-154.92" x2="-8.59" y2="76.66"/><line class="cls-6" x1="225.38" y1="-152.53" x2="-6.2" y2="79.05"/><line class="cls-6" x1="227.77" y1="-150.14" x2="-3.81" y2="81.44"/><line class="cls-6" x1="230.15" y1="-147.76" x2="-1.43" y2="83.82"/><line class="cls-6" x1="232.54" y1="-145.37" x2="0.96" y2="86.21"/><line class="cls-6" x1="234.93" y1="-142.98" x2="3.35" y2="88.6"/><line class="cls-6" x1="237.31" y1="-140.6" x2="5.73" y2="90.98"/><line class="cls-6" x1="239.7" y1="-138.21" x2="8.12" y2="93.37"/><line class="cls-6" x1="242.09" y1="-135.82" x2="10.51" y2="95.76"/><line class="cls-6" x1="244.47" y1="-133.44" x2="12.89" y2="98.14"/><line class="cls-6" x1="246.86" y1="-131.05" x2="15.28" y2="100.53"/><line class="cls-6" x1="249.25" y1="-128.66" x2="17.67" y2="102.92"/><line class="cls-6" x1="251.63" y1="-126.28" x2="20.05" y2="105.3"/><line class="cls-6" x1="254.02" y1="-123.89" x2="22.44" y2="107.69"/><line class="cls-6" x1="256.41" y1="-121.5" x2="24.83" y2="110.08"/><line class="cls-6" x1="258.79" y1="-119.12" x2="27.21" y2="112.46"/><line class="cls-6" x1="261.18" y1="-116.73" x2="29.6" y2="114.85"/><line class="cls-6" x1="263.57" y1="-114.34" x2="31.99" y2="117.24"/><line class="cls-6" x1="265.95" y1="-111.96" x2="34.37" y2="119.62"/><line class="cls-6" x1="268.34" y1="-109.57" x2="36.76" y2="122.01"/><line class="cls-6" x1="270.73" y1="-107.18" x2="39.15" y2="124.4"/><line class="cls-6" x1="273.11" y1="-104.8" x2="41.53" y2="126.78"/><line class="cls-6" x1="275.5" y1="-102.41" x2="43.92" y2="129.17"/><line class="cls-6" x1="277.89" y1="-100.02" x2="46.31" y2="131.56"/><line class="cls-6" x1="280.27" y1="-97.64" x2="48.69" y2="133.94"/><line class="cls-6" x1="282.66" y1="-95.25" x2="51.08" y2="136.33"/><line class="cls-6" x1="285.05" y1="-92.86" x2="53.47" y2="138.72"/><line class="cls-6" x1="287.43" y1="-90.48" x2="55.85" y2="141.1"/><line class="cls-6" x1="289.82" y1="-88.09" x2="58.24" y2="143.49"/><line class="cls-6" x1="292.21" y1="-85.7" x2="60.63" y2="145.88"/><line class="cls-6" x1="294.59" y1="-83.32" x2="63.01" y2="148.26"/><line class="cls-6" x1="296.98" y1="-80.93" x2="65.4" y2="150.65"/><line class="cls-6" x1="299.37" y1="-78.54" x2="67.79" y2="153.04"/><line class="cls-6" x1="301.75" y1="-76.16" x2="70.17" y2="155.42"/><line class="cls-6" x1="304.14" y1="-73.77" x2="72.56" y2="157.81"/><line class="cls-6" x1="306.53" y1="-71.38" x2="74.95" y2="160.2"/><line class="cls-6" x1="308.91" y1="-69" x2="77.33" y2="162.58"/><line class="cls-6" x1="311.3" y1="-66.61" x2="79.72" y2="164.97"/><line class="cls-6" x1="313.69" y1="-64.22" x2="82.11" y2="167.36"/><line class="cls-6" x1="316.07" y1="-61.84" x2="84.49" y2="169.74"/><line class="cls-6" x1="318.46" y1="-59.45" x2="86.88" y2="172.13"/><line class="cls-6" x1="320.85" y1="-57.06" x2="89.27" y2="174.52"/><line class="cls-6" x1="323.23" y1="-54.68" x2="91.65" y2="176.9"/><line class="cls-6" x1="325.62" y1="-52.29" x2="94.04" y2="179.29"/></g><g class="cls-7"><line class="cls-6" x1="264.85" y1="453.78" x2="-126.44" y2="845.07"/><line class="cls-6" x1="267.96" y1="456.89" x2="-123.33" y2="848.18"/><line class="cls-6" x1="271.07" y1="460" x2="-120.22" y2="851.29"/><line class="cls-6" x1="274.18" y1="463.11" x2="-117.11" y2="854.4"/><line class="cls-6" x1="277.29" y1="466.22" x2="-114" y2="857.51"/><line class="cls-6" x1="280.4" y1="469.33" x2="-110.89" y2="860.62"/><line class="cls-6" x1="283.51" y1="472.44" x2="-107.78" y2="863.73"/><line class="cls-6" x1="286.62" y1="475.55" x2="-104.67" y2="866.84"/><line class="cls-6" x1="289.73" y1="478.66" x2="-101.56" y2="869.95"/></g></g></g></svg>