<svg xmlns="http://www.w3.org/2000/svg" xmlns:xlink="http://www.w3.org/1999/xlink" viewBox="0 0 480 480"><defs><style>.cls-1,.cls-4{fill:none;}.cls-2{isolation:isolate;}.cls-3{clip-path:url(#clip-path);}.cls-4{stroke:#565656;stroke-miterlimit:10;stroke-width:0.57px;}.cls-5,.cls-6{fill:#fdd300;}.cls-6{mix-blend-mode:multiply;}.cls-7{clip-path:url(#clip-path-2);}.cls-8{clip-path:url(#clip-path-3);}</style><clipPath id="clip-path"><polygon class="cls-1" points="-313.03 278.91 -311.8 228.1 -394.92 230.05 -271.62 106.75 -306.7 71.67 -430.38 195.36 -428.42 111.49 -479.23 112.71 -483.2 282.88 -313.03 278.91"/></clipPath><clipPath id="clip-path-2"><polyline class="cls-1" points="353.52 65.94 274.49 65.94 227.5 175.64 269.21 175.64 220.79 301.02 384.63 136.46 323.43 136.46 353.52 65.94"/></clipPath><clipPath id="clip-path-3"><path class="cls-1" d="M388.65,805.56a68.19,68.19,0,0,1,11.68,37.68c.24,39.16-31.49,70.41-70.73,70.64l-91.44.56,45.07-44.7-24.13-23.37L173.42,933.2l86.72,85.65L284,994.06,238.3,948.27l91.51-.56c57.94-.35,104.76-46.89,104.41-104.67-.14-23.55-8.2-44.4-21.45-61.84"/></clipPath></defs><title>ELS_Webshop_Illustrations_480px RGB</title><g class="cls-2"><g id="Illustrations"><g class="cls-3"><line class="cls-4" x1="1.18" y1="208.89" x2="-390.11" y2="600.18"/><line class="cls-4" x1="4.29" y1="212" x2="-387" y2="603.29"/><line class="cls-4" x1="7.4" y1="215.11" x2="-383.89" y2="606.4"/><line class="cls-4" x1="10.51" y1="218.22" x2="-380.78" y2="609.51"/><line class="cls-4" x1="13.62" y1="221.33" x2="-377.67" y2="612.62"/><line class="cls-4" x1="16.73" y1="224.44" x2="-374.56" y2="615.73"/><line class="cls-4" x1="19.84" y1="227.55" x2="-371.45" y2="618.84"/><line class="cls-4" x1="22.95" y1="230.66" x2="-368.34" y2="621.95"/><line class="cls-4" x1="26.05" y1="233.77" x2="-365.23" y2="625.06"/><line class="cls-4" x1="29.16" y1="236.88" x2="-362.12" y2="628.17"/><line class="cls-4" x1="32.27" y1="239.99" x2="-359.02" y2="631.28"/><line class="cls-4" x1="35.38" y1="243.1" x2="-355.91" y2="634.39"/></g><circle class="cls-5" cx="219.71" cy="289.72" r="124.34"/><circle class="cls-6" cx="219.71" cy="289.72" r="68.38"/><g class="cls-7"><line class="cls-4" x1="557.4" y1="6.45" x2="166.11" y2="397.74"/><line class="cls-4" x1="560.51" y1="9.56" x2="169.22" y2="400.85"/><line class="cls-4" x1="563.62" y1="12.67" x2="172.33" y2="403.96"/><line class="cls-4" x1="566.73" y1="15.78" x2="175.44" y2="407.07"/><line class="cls-4" x1="569.84" y1="18.89" x2="178.55" y2="410.18"/><line class="cls-4" x1="572.95" y1="22" x2="181.66" y2="413.28"/><line class="cls-4" x1="576.06" y1="25.1" x2="184.77" y2="416.39"/><line class="cls-4" x1="579.17" y1="28.21" x2="187.88" y2="419.5"/><line class="cls-4" x1="582.28" y1="31.32" x2="190.99" y2="422.61"/><line class="cls-4" x1="585.39" y1="34.43" x2="194.1" y2="425.72"/><line class="cls-4" x1="588.5" y1="37.54" x2="197.21" y2="428.83"/><line class="cls-4" x1="591.61" y1="40.65" x2="200.32" y2="431.94"/><line class="cls-4" x1="594.72" y1="43.76" x2="203.43" y2="435.05"/><line class="cls-4" x1="597.83" y1="46.87" x2="206.54" y2="438.16"/><line class="cls-4" x1="600.94" y1="49.98" x2="209.65" y2="441.27"/><line class="cls-4" x1="604.05" y1="53.09" x2="212.76" y2="444.38"/><line class="cls-4" x1="607.16" y1="56.2" x2="215.87" y2="447.49"/><line class="cls-4" x1="610.27" y1="59.31" x2="218.98" y2="450.6"/><line class="cls-4" x1="613.37" y1="62.42" x2="222.09" y2="453.71"/><line class="cls-4" x1="616.48" y1="65.53" x2="225.19" y2="456.82"/><line class="cls-4" x1="619.59" y1="68.64" x2="228.3" y2="459.93"/><line class="cls-4" x1="622.7" y1="71.75" x2="231.41" y2="463.04"/><line class="cls-4" x1="625.81" y1="74.86" x2="234.52" y2="466.15"/><line class="cls-4" x1="628.92" y1="77.97" x2="237.63" y2="469.26"/><line class="cls-4" x1="632.03" y1="81.08" x2="240.74" y2="472.36"/><line class="cls-4" x1="635.14" y1="84.18" x2="243.85" y2="475.47"/><line class="cls-4" x1="638.25" y1="87.29" x2="246.96" y2="478.58"/><line class="cls-4" x1="641.36" y1="90.4" x2="250.07" y2="481.69"/><line class="cls-4" x1="644.47" y1="93.51" x2="253.18" y2="484.8"/><line class="cls-4" x1="647.58" y1="96.62" x2="256.29" y2="487.91"/><line class="cls-4" x1="650.69" y1="99.73" x2="259.4" y2="491.02"/><line class="cls-4" x1="653.8" y1="102.84" x2="262.51" y2="494.13"/><line class="cls-4" x1="656.91" y1="105.95" x2="265.62" y2="497.24"/><line class="cls-4" x1="660.02" y1="109.06" x2="268.73" y2="500.35"/><line class="cls-4" x1="663.13" y1="112.17" x2="271.84" y2="503.46"/><line class="cls-4" x1="666.24" y1="115.28" x2="274.95" y2="506.57"/><line class="cls-4" x1="669.35" y1="118.39" x2="278.06" y2="509.68"/><line class="cls-4" x1="672.45" y1="121.5" x2="281.17" y2="512.79"/><line class="cls-4" x1="675.56" y1="124.61" x2="284.27" y2="515.9"/><line class="cls-4" x1="678.67" y1="127.72" x2="287.38" y2="519.01"/><line class="cls-4" x1="681.78" y1="130.83" x2="290.49" y2="522.12"/><line class="cls-4" x1="684.89" y1="133.94" x2="293.6" y2="525.23"/><line class="cls-4" x1="688" y1="137.05" x2="296.71" y2="528.34"/><line class="cls-4" x1="691.11" y1="140.16" x2="299.82" y2="531.44"/><line class="cls-4" x1="694.22" y1="143.26" x2="302.93" y2="534.55"/><line class="cls-4" x1="697.33" y1="146.37" x2="306.04" y2="537.66"/><line class="cls-4" x1="700.44" y1="149.48" x2="309.15" y2="540.77"/><line class="cls-4" x1="703.55" y1="152.59" x2="312.26" y2="543.88"/><line class="cls-4" x1="706.66" y1="155.7" x2="315.37" y2="546.99"/><line class="cls-4" x1="709.77" y1="158.81" x2="318.48" y2="550.1"/><line class="cls-4" x1="712.88" y1="161.92" x2="321.59" y2="553.21"/><line class="cls-4" x1="715.99" y1="165.03" x2="324.7" y2="556.32"/><line class="cls-4" x1="719.1" y1="168.14" x2="327.81" y2="559.43"/><line class="cls-4" x1="722.21" y1="171.25" x2="330.92" y2="562.54"/><line class="cls-4" x1="725.32" y1="174.36" x2="334.03" y2="565.65"/><line class="cls-4" x1="728.42" y1="177.47" x2="337.14" y2="568.76"/><line class="cls-4" x1="731.53" y1="180.58" x2="340.25" y2="571.87"/><line class="cls-4" x1="734.64" y1="183.69" x2="343.35" y2="574.98"/><line class="cls-4" x1="384.69" y1="-181.49" x2="-6.59" y2="209.8"/><line class="cls-4" x1="387.8" y1="-178.38" x2="-3.49" y2="212.91"/><line class="cls-4" x1="390.91" y1="-175.27" x2="-0.38" y2="216.02"/><line class="cls-4" x1="394.02" y1="-172.16" x2="2.73" y2="219.13"/><line class="cls-4" x1="397.13" y1="-169.05" x2="5.84" y2="222.24"/><line class="cls-4" x1="400.24" y1="-165.94" x2="8.95" y2="225.35"/><line class="cls-4" x1="403.35" y1="-162.83" x2="12.06" y2="228.46"/><line class="cls-4" x1="406.46" y1="-159.72" x2="15.17" y2="231.57"/><line class="cls-4" x1="409.57" y1="-156.61" x2="18.28" y2="234.68"/><line class="cls-4" x1="412.68" y1="-153.5" x2="21.39" y2="237.79"/><line class="cls-4" x1="415.79" y1="-150.39" x2="24.5" y2="240.9"/><line class="cls-4" x1="418.9" y1="-147.28" x2="27.61" y2="244.01"/><line class="cls-4" x1="422.01" y1="-144.17" x2="30.72" y2="247.12"/><line class="cls-4" x1="425.12" y1="-141.06" x2="33.83" y2="250.23"/><line class="cls-4" x1="428.23" y1="-137.95" x2="36.94" y2="253.34"/><line class="cls-4" x1="431.34" y1="-134.84" x2="40.05" y2="256.45"/><line class="cls-4" x1="434.45" y1="-131.73" x2="43.16" y2="259.55"/><line class="cls-4" x1="437.56" y1="-128.63" x2="46.27" y2="262.66"/><line class="cls-4" x1="440.67" y1="-125.52" x2="49.38" y2="265.77"/><line class="cls-4" x1="443.77" y1="-122.41" x2="52.49" y2="268.88"/><line class="cls-4" x1="446.88" y1="-119.3" x2="55.59" y2="271.99"/><line class="cls-4" x1="449.99" y1="-116.19" x2="58.7" y2="275.1"/><line class="cls-4" x1="453.1" y1="-113.08" x2="61.81" y2="278.21"/><line class="cls-4" x1="456.21" y1="-109.97" x2="64.92" y2="281.32"/><line class="cls-4" x1="459.32" y1="-106.86" x2="68.03" y2="284.43"/><line class="cls-4" x1="462.43" y1="-103.75" x2="71.14" y2="287.54"/><line class="cls-4" x1="465.54" y1="-100.64" x2="74.25" y2="290.65"/><line class="cls-4" x1="468.65" y1="-97.53" x2="77.36" y2="293.76"/><line class="cls-4" x1="471.76" y1="-94.42" x2="80.47" y2="296.87"/><line class="cls-4" x1="474.87" y1="-91.31" x2="83.58" y2="299.98"/><line class="cls-4" x1="477.98" y1="-88.2" x2="86.69" y2="303.09"/><line class="cls-4" x1="481.09" y1="-85.09" x2="89.8" y2="306.2"/><line class="cls-4" x1="484.2" y1="-81.98" x2="92.91" y2="309.31"/><line class="cls-4" x1="487.31" y1="-78.87" x2="96.02" y2="312.42"/><line class="cls-4" x1="490.42" y1="-75.76" x2="99.13" y2="315.53"/><line class="cls-4" x1="493.53" y1="-72.65" x2="102.24" y2="318.63"/><line class="cls-4" x1="496.64" y1="-69.55" x2="105.35" y2="321.74"/><line class="cls-4" x1="499.75" y1="-66.44" x2="108.46" y2="324.85"/><line class="cls-4" x1="502.85" y1="-63.33" x2="111.57" y2="327.96"/><line class="cls-4" x1="505.96" y1="-60.22" x2="114.67" y2="331.07"/><line class="cls-4" x1="509.07" y1="-57.11" x2="117.78" y2="334.18"/><line class="cls-4" x1="512.18" y1="-54" x2="120.89" y2="337.29"/><line class="cls-4" x1="515.29" y1="-50.89" x2="124" y2="340.4"/><line class="cls-4" x1="518.4" y1="-47.78" x2="127.11" y2="343.51"/><line class="cls-4" x1="521.51" y1="-44.67" x2="130.22" y2="346.62"/><line class="cls-4" x1="524.62" y1="-41.56" x2="133.33" y2="349.73"/><line class="cls-4" x1="527.73" y1="-38.45" x2="136.44" y2="352.84"/><line class="cls-4" x1="530.84" y1="-35.34" x2="139.55" y2="355.95"/><line class="cls-4" x1="533.95" y1="-32.23" x2="142.66" y2="359.06"/><line class="cls-4" x1="537.06" y1="-29.12" x2="145.77" y2="362.17"/><line class="cls-4" x1="540.17" y1="-26.01" x2="148.88" y2="365.28"/><line class="cls-4" x1="543.28" y1="-22.9" x2="151.99" y2="368.39"/><line class="cls-4" x1="546.39" y1="-19.79" x2="155.1" y2="371.5"/><line class="cls-4" x1="549.5" y1="-16.68" x2="158.21" y2="374.61"/><line class="cls-4" x1="552.61" y1="-13.57" x2="161.32" y2="377.71"/><line class="cls-4" x1="555.72" y1="-10.47" x2="164.43" y2="380.82"/><line class="cls-4" x1="558.82" y1="-7.36" x2="167.54" y2="383.93"/><line class="cls-4" x1="561.93" y1="-4.25" x2="170.65" y2="387.04"/><line class="cls-4" x1="211.99" y1="-369.42" x2="-179.3" y2="21.87"/><line class="cls-4" x1="215.09" y1="-366.31" x2="-176.19" y2="24.98"/><line class="cls-4" x1="218.2" y1="-363.2" x2="-173.09" y2="28.09"/><line class="cls-4" x1="221.31" y1="-360.09" x2="-169.98" y2="31.2"/><line class="cls-4" x1="224.42" y1="-356.98" x2="-166.87" y2="34.31"/><line class="cls-4" x1="227.53" y1="-353.87" x2="-163.76" y2="37.42"/><line class="cls-4" x1="230.64" y1="-350.76" x2="-160.65" y2="40.53"/><line class="cls-4" x1="233.75" y1="-347.65" x2="-157.54" y2="43.63"/><line class="cls-4" x1="236.86" y1="-344.55" x2="-154.43" y2="46.74"/><line class="cls-4" x1="239.97" y1="-341.44" x2="-151.32" y2="49.85"/><line class="cls-4" x1="243.08" y1="-338.33" x2="-148.21" y2="52.96"/><line class="cls-4" x1="246.19" y1="-335.22" x2="-145.1" y2="56.07"/><line class="cls-4" x1="249.3" y1="-332.11" x2="-141.99" y2="59.18"/><line class="cls-4" x1="252.41" y1="-329" x2="-138.88" y2="62.29"/><line class="cls-4" x1="255.52" y1="-325.89" x2="-135.77" y2="65.4"/><line class="cls-4" x1="258.63" y1="-322.78" x2="-132.66" y2="68.51"/><line class="cls-4" x1="261.74" y1="-319.67" x2="-129.55" y2="71.62"/><line class="cls-4" x1="264.85" y1="-316.56" x2="-126.44" y2="74.73"/><line class="cls-4" x1="267.96" y1="-313.45" x2="-123.33" y2="77.84"/><line class="cls-4" x1="271.07" y1="-310.34" x2="-120.22" y2="80.95"/><line class="cls-4" x1="274.17" y1="-307.23" x2="-117.11" y2="84.06"/><line class="cls-4" x1="277.28" y1="-304.12" x2="-114.01" y2="87.17"/><line class="cls-4" x1="280.39" y1="-301.01" x2="-110.9" y2="90.28"/><line class="cls-4" x1="283.5" y1="-297.9" x2="-107.79" y2="93.39"/><line class="cls-4" x1="286.61" y1="-294.79" x2="-104.68" y2="96.5"/><line class="cls-4" x1="289.72" y1="-291.68" x2="-101.57" y2="99.61"/><line class="cls-4" x1="292.83" y1="-288.57" x2="-98.46" y2="102.71"/><line class="cls-4" x1="295.94" y1="-285.47" x2="-95.35" y2="105.82"/><line class="cls-4" x1="299.05" y1="-282.36" x2="-92.24" y2="108.93"/><line class="cls-4" x1="302.16" y1="-279.25" x2="-89.13" y2="112.04"/><line class="cls-4" x1="305.27" y1="-276.14" x2="-86.02" y2="115.15"/><line class="cls-4" x1="308.38" y1="-273.03" x2="-82.91" y2="118.26"/><line class="cls-4" x1="311.49" y1="-269.92" x2="-79.8" y2="121.37"/><line class="cls-4" x1="314.6" y1="-266.81" x2="-76.69" y2="124.48"/><line class="cls-4" x1="317.71" y1="-263.7" x2="-73.58" y2="127.59"/><line class="cls-4" x1="320.82" y1="-260.59" x2="-70.47" y2="130.7"/><line class="cls-4" x1="323.93" y1="-257.48" x2="-67.36" y2="133.81"/><line class="cls-4" x1="327.04" y1="-254.37" x2="-64.25" y2="136.92"/><line class="cls-4" x1="330.15" y1="-251.26" x2="-61.14" y2="140.03"/><line class="cls-4" x1="333.25" y1="-248.15" x2="-58.03" y2="143.14"/><line class="cls-4" x1="336.36" y1="-245.04" x2="-54.93" y2="146.25"/><line class="cls-4" x1="339.47" y1="-241.93" x2="-51.82" y2="149.36"/><line class="cls-4" x1="342.58" y1="-238.82" x2="-48.71" y2="152.47"/><line class="cls-4" x1="345.69" y1="-235.71" x2="-45.6" y2="155.58"/><line class="cls-4" x1="348.8" y1="-232.6" x2="-42.49" y2="158.69"/><line class="cls-4" x1="351.91" y1="-229.49" x2="-39.38" y2="161.79"/><line class="cls-4" x1="355.02" y1="-226.39" x2="-36.27" y2="164.9"/><line class="cls-4" x1="358.13" y1="-223.28" x2="-33.16" y2="168.01"/><line class="cls-4" x1="361.24" y1="-220.17" x2="-30.05" y2="171.12"/><line class="cls-4" x1="364.35" y1="-217.06" x2="-26.94" y2="174.23"/><line class="cls-4" x1="367.46" y1="-213.95" x2="-23.83" y2="177.34"/><line class="cls-4" x1="370.57" y1="-210.84" x2="-20.72" y2="180.45"/><line class="cls-4" x1="373.68" y1="-207.73" x2="-17.61" y2="183.56"/><line class="cls-4" x1="376.79" y1="-204.62" x2="-14.5" y2="186.67"/><line class="cls-4" x1="379.9" y1="-201.51" x2="-11.39" y2="189.78"/><line class="cls-4" x1="383.01" y1="-198.4" x2="-8.28" y2="192.89"/><line class="cls-4" x1="386.12" y1="-195.29" x2="-5.17" y2="196"/><line class="cls-4" x1="389.22" y1="-192.18" x2="-2.06" y2="199.11"/></g><g class="cls-8"><line class="cls-4" x1="195.62" y1="407.18" x2="-195.67" y2="798.47"/><line class="cls-4" x1="198.73" y1="410.29" x2="-192.56" y2="801.58"/><line class="cls-4" x1="201.84" y1="413.4" x2="-189.45" y2="804.69"/><line class="cls-4" x1="204.94" y1="416.51" x2="-186.34" y2="807.8"/><line class="cls-4" x1="208.05" y1="419.62" x2="-183.24" y2="810.91"/><line class="cls-4" x1="211.16" y1="422.73" x2="-180.13" y2="814.02"/><line class="cls-4" x1="214.27" y1="425.84" x2="-177.02" y2="817.13"/><line class="cls-4" x1="217.38" y1="428.95" x2="-173.91" y2="820.24"/><line class="cls-4" x1="220.49" y1="432.06" x2="-170.8" y2="823.35"/><line class="cls-4" x1="223.6" y1="435.17" x2="-167.69" y2="826.46"/><line class="cls-4" x1="226.71" y1="438.28" x2="-164.58" y2="829.57"/><line class="cls-4" x1="229.82" y1="441.39" x2="-161.47" y2="832.67"/><line class="cls-4" x1="232.93" y1="444.49" x2="-158.36" y2="835.78"/><line class="cls-4" x1="236.04" y1="447.6" x2="-155.25" y2="838.89"/><line class="cls-4" x1="239.15" y1="450.71" x2="-152.14" y2="842"/><line class="cls-4" x1="242.26" y1="453.82" x2="-149.03" y2="845.11"/><line class="cls-4" x1="245.37" y1="456.93" x2="-145.92" y2="848.22"/><line class="cls-4" x1="248.48" y1="460.04" x2="-142.81" y2="851.33"/><line class="cls-4" x1="251.59" y1="463.15" x2="-139.7" y2="854.44"/><line class="cls-4" x1="254.7" y1="466.26" x2="-136.59" y2="857.55"/><line class="cls-4" x1="257.81" y1="469.37" x2="-133.48" y2="860.66"/><line class="cls-4" x1="260.91" y1="472.48" x2="-130.37" y2="863.77"/><line class="cls-4" x1="264.02" y1="475.59" x2="-127.26" y2="866.88"/><line class="cls-4" x1="267.13" y1="478.7" x2="-124.16" y2="869.99"/></g></g></g></svg>