<svg xmlns="http://www.w3.org/2000/svg" xmlns:xlink="http://www.w3.org/1999/xlink" viewBox="0 0 128 128"><defs><style>.cls-1,.cls-2,.cls-5{fill:none;}.cls-1{clip-rule:evenodd;}.cls-3{isolation:isolate;}.cls-4{clip-path:url(#clip-path);}.cls-5{stroke:#565656;stroke-miterlimit:10;stroke-width:0.28px;}.cls-6{clip-path:url(#clip-path-2);}.cls-7,.cls-8{fill:#ff6c00;fill-rule:evenodd;}.cls-7{opacity:0.5;}.cls-8{mix-blend-mode:multiply;}.cls-9{clip-path:url(#clip-path-3);}.cls-10{clip-path:url(#clip-path-4);}.cls-11{clip-path:url(#clip-path-5);}.cls-12{clip-path:url(#clip-path-6);}</style><clipPath id="clip-path"><polygon class="cls-1" points="392 69.03 440.85 89.22 392 109.42 343.15 89.22 392 69.03"/></clipPath><clipPath id="clip-path-2"><polygon class="cls-1" points="64 69.03 112.85 89.22 64 109.42 15.15 89.22 64 69.03"/></clipPath><clipPath id="clip-path-3"><polygon class="cls-2" points="-248.39 10.48 -296.47 10.48 -296.47 102.38 -231.53 102.38 -231.53 27.34 -248.39 10.48"/></clipPath><clipPath id="clip-path-4"><path class="cls-2" d="M75.58,354.28H17a9.72,9.72,0,0,0-9.76,9.61V407A9.72,9.72,0,0,0,17,416.59h4v10.55A2.63,2.63,0,0,0,25.4,429l13.12-12.41H75.58A9.73,9.73,0,0,0,85.37,407V363.9A9.73,9.73,0,0,0,75.58,354.28Z"/></clipPath><clipPath id="clip-path-5"><polygon class="cls-2" points="418.28 346.05 370.2 346.05 370.2 437.95 435.15 437.95 435.15 362.92 418.28 346.05"/></clipPath><clipPath id="clip-path-6"><ellipse class="cls-2" cx="370.63" cy="392.05" rx="16.41" ry="16.45"/></clipPath></defs><title>ELS_Webshop_Picto Icons_128px RGB</title><g class="cls-3"><g id="Picto_Illustration" data-name="Picto Illustration"><g class="cls-4"><line class="cls-5" x1="343.08" y1="-191.34" x2="93.06" y2="58.69"/><line class="cls-5" x1="345.06" y1="-189.35" x2="95.04" y2="60.67"/><line class="cls-5" x1="347.05" y1="-187.36" x2="97.03" y2="62.66"/><line class="cls-5" x1="349.04" y1="-185.38" x2="99.02" y2="64.65"/><line class="cls-5" x1="351.03" y1="-183.39" x2="101" y2="66.63"/><line class="cls-5" x1="353.01" y1="-181.4" x2="102.99" y2="68.62"/><line class="cls-5" x1="355" y1="-179.42" x2="104.98" y2="70.61"/><line class="cls-5" x1="356.99" y1="-177.43" x2="106.96" y2="72.59"/><line class="cls-5" x1="358.97" y1="-175.44" x2="108.95" y2="74.58"/><line class="cls-5" x1="360.96" y1="-173.45" x2="110.94" y2="76.57"/><line class="cls-5" x1="362.95" y1="-171.47" x2="112.92" y2="78.55"/><line class="cls-5" x1="364.93" y1="-169.48" x2="114.91" y2="80.54"/><line class="cls-5" x1="366.92" y1="-167.49" x2="116.9" y2="82.53"/><line class="cls-5" x1="368.91" y1="-165.51" x2="118.88" y2="84.51"/><line class="cls-5" x1="370.89" y1="-163.52" x2="120.87" y2="86.5"/><line class="cls-5" x1="372.88" y1="-161.53" x2="122.86" y2="88.49"/><line class="cls-5" x1="374.87" y1="-159.55" x2="124.85" y2="90.48"/><line class="cls-5" x1="376.85" y1="-157.56" x2="126.83" y2="92.46"/></g><g class="cls-6"><line class="cls-5" x1="196.24" y1="23.89" x2="-53.78" y2="273.91"/><line class="cls-5" x1="198.23" y1="25.87" x2="-51.79" y2="275.9"/><line class="cls-5" x1="200.22" y1="27.86" x2="-49.8" y2="277.88"/><line class="cls-5" x1="202.21" y1="29.85" x2="-47.82" y2="279.87"/><line class="cls-5" x1="204.19" y1="31.83" x2="-45.83" y2="281.86"/><line class="cls-5" x1="206.18" y1="33.82" x2="-43.84" y2="283.84"/><line class="cls-5" x1="208.17" y1="35.81" x2="-41.86" y2="285.83"/><line class="cls-5" x1="210.15" y1="37.79" x2="-39.87" y2="287.82"/><line class="cls-5" x1="212.14" y1="39.78" x2="-37.88" y2="289.8"/><line class="cls-5" x1="214.13" y1="41.77" x2="-35.9" y2="291.79"/><line class="cls-5" x1="216.11" y1="43.76" x2="-33.91" y2="293.78"/><line class="cls-5" x1="218.1" y1="45.74" x2="-31.92" y2="295.76"/><line class="cls-5" x1="220.09" y1="47.73" x2="-29.94" y2="297.75"/><line class="cls-5" x1="222.07" y1="49.72" x2="-27.95" y2="299.74"/><line class="cls-5" x1="224.06" y1="51.7" x2="-25.96" y2="301.72"/><line class="cls-5" x1="226.05" y1="53.69" x2="-23.97" y2="303.71"/><line class="cls-5" x1="228.03" y1="55.68" x2="-21.99" y2="305.7"/><line class="cls-5" x1="230.02" y1="57.66" x2="-20" y2="307.69"/><line class="cls-5" x1="232.01" y1="59.65" x2="-18.01" y2="309.67"/><line class="cls-5" x1="233.99" y1="61.64" x2="-16.03" y2="311.66"/><line class="cls-5" x1="235.98" y1="63.62" x2="-14.04" y2="313.65"/><line class="cls-5" x1="237.97" y1="65.61" x2="-12.05" y2="315.63"/><line class="cls-5" x1="239.96" y1="67.6" x2="-10.07" y2="317.62"/><line class="cls-5" x1="241.94" y1="69.58" x2="-8.08" y2="319.61"/><line class="cls-5" x1="243.93" y1="71.57" x2="-6.09" y2="321.59"/><line class="cls-5" x1="245.92" y1="73.56" x2="-4.11" y2="323.58"/><line class="cls-5" x1="247.9" y1="75.54" x2="-2.12" y2="325.57"/><line class="cls-5" x1="249.89" y1="77.53" x2="-0.13" y2="327.55"/><line class="cls-5" x1="251.88" y1="79.52" x2="1.85" y2="329.54"/><line class="cls-5" x1="253.86" y1="81.51" x2="3.84" y2="331.53"/><line class="cls-5" x1="255.85" y1="83.49" x2="5.83" y2="333.51"/><line class="cls-5" x1="257.84" y1="85.48" x2="7.82" y2="335.5"/><line class="cls-5" x1="259.82" y1="87.47" x2="9.8" y2="337.49"/><line class="cls-5" x1="261.81" y1="89.45" x2="11.79" y2="339.47"/><line class="cls-5" x1="263.8" y1="91.44" x2="13.78" y2="341.46"/><line class="cls-5" x1="265.78" y1="93.43" x2="15.76" y2="343.45"/><line class="cls-5" x1="267.77" y1="95.41" x2="17.75" y2="345.44"/><line class="cls-5" x1="269.76" y1="97.4" x2="19.74" y2="347.42"/><line class="cls-5" x1="271.75" y1="99.39" x2="21.72" y2="349.41"/><line class="cls-5" x1="273.73" y1="101.37" x2="23.71" y2="351.4"/><line class="cls-5" x1="275.72" y1="103.36" x2="25.7" y2="353.38"/><line class="cls-5" x1="277.71" y1="105.35" x2="27.68" y2="355.37"/><line class="cls-5" x1="279.69" y1="107.33" x2="29.67" y2="357.36"/><line class="cls-5" x1="281.68" y1="109.32" x2="31.66" y2="359.34"/><line class="cls-5" x1="283.67" y1="111.31" x2="33.64" y2="361.33"/><line class="cls-5" x1="285.65" y1="113.3" x2="35.63" y2="363.32"/><line class="cls-5" x1="287.64" y1="115.28" x2="37.62" y2="365.3"/><line class="cls-5" x1="289.63" y1="117.27" x2="39.6" y2="367.29"/><line class="cls-5" x1="291.61" y1="119.26" x2="41.59" y2="369.28"/><line class="cls-5" x1="293.6" y1="121.24" x2="43.58" y2="371.26"/><line class="cls-5" x1="295.59" y1="123.23" x2="45.57" y2="373.25"/><line class="cls-5" x1="297.57" y1="125.22" x2="47.55" y2="375.24"/><line class="cls-5" x1="299.56" y1="127.2" x2="49.54" y2="377.23"/><line class="cls-5" x1="85.89" y1="-96.2" x2="-164.13" y2="153.82"/><line class="cls-5" x1="87.88" y1="-94.21" x2="-162.15" y2="155.81"/><line class="cls-5" x1="89.86" y1="-92.22" x2="-160.16" y2="157.8"/><line class="cls-5" x1="91.85" y1="-90.24" x2="-158.17" y2="159.78"/><line class="cls-5" x1="93.84" y1="-88.25" x2="-156.19" y2="161.77"/><line class="cls-5" x1="95.82" y1="-86.26" x2="-154.2" y2="163.76"/><line class="cls-5" x1="97.81" y1="-84.28" x2="-152.21" y2="165.75"/><line class="cls-5" x1="99.8" y1="-82.29" x2="-150.23" y2="167.73"/><line class="cls-5" x1="101.78" y1="-80.3" x2="-148.24" y2="169.72"/><line class="cls-5" x1="103.77" y1="-78.32" x2="-146.25" y2="171.71"/><line class="cls-5" x1="105.76" y1="-76.33" x2="-144.26" y2="173.69"/><line class="cls-5" x1="107.74" y1="-74.34" x2="-142.28" y2="175.68"/><line class="cls-5" x1="109.73" y1="-72.36" x2="-140.29" y2="177.67"/><line class="cls-5" x1="111.72" y1="-70.37" x2="-138.3" y2="179.65"/><line class="cls-5" x1="113.7" y1="-68.38" x2="-136.32" y2="181.64"/><line class="cls-5" x1="115.69" y1="-66.39" x2="-134.33" y2="183.63"/><line class="cls-5" x1="117.68" y1="-64.41" x2="-132.34" y2="185.61"/><line class="cls-5" x1="119.66" y1="-62.42" x2="-130.36" y2="187.6"/><line class="cls-5" x1="121.65" y1="-60.43" x2="-128.37" y2="189.59"/><line class="cls-5" x1="123.64" y1="-58.45" x2="-126.38" y2="191.57"/><line class="cls-5" x1="125.63" y1="-56.46" x2="-124.4" y2="193.56"/><line class="cls-5" x1="127.61" y1="-54.47" x2="-122.41" y2="195.55"/><line class="cls-5" x1="129.6" y1="-52.49" x2="-120.42" y2="197.54"/><line class="cls-5" x1="131.59" y1="-50.5" x2="-118.44" y2="199.52"/><line class="cls-5" x1="133.57" y1="-48.51" x2="-116.45" y2="201.51"/><line class="cls-5" x1="135.56" y1="-46.53" x2="-114.46" y2="203.5"/><line class="cls-5" x1="137.55" y1="-44.54" x2="-112.48" y2="205.48"/><line class="cls-5" x1="139.53" y1="-42.55" x2="-110.49" y2="207.47"/><line class="cls-5" x1="141.52" y1="-40.57" x2="-108.5" y2="209.46"/><line class="cls-5" x1="143.51" y1="-38.58" x2="-106.51" y2="211.44"/><line class="cls-5" x1="145.49" y1="-36.59" x2="-104.53" y2="213.43"/><line class="cls-5" x1="147.48" y1="-34.61" x2="-102.54" y2="215.42"/><line class="cls-5" x1="149.47" y1="-32.62" x2="-100.55" y2="217.4"/><line class="cls-5" x1="151.45" y1="-30.63" x2="-98.57" y2="219.39"/><line class="cls-5" x1="153.44" y1="-28.64" x2="-96.58" y2="221.38"/><line class="cls-5" x1="155.43" y1="-26.66" x2="-94.59" y2="223.36"/><line class="cls-5" x1="157.42" y1="-24.67" x2="-92.61" y2="225.35"/><line class="cls-5" x1="159.4" y1="-22.68" x2="-90.62" y2="227.34"/><line class="cls-5" x1="161.39" y1="-20.7" x2="-88.63" y2="229.32"/><line class="cls-5" x1="163.38" y1="-18.71" x2="-86.65" y2="231.31"/><line class="cls-5" x1="165.36" y1="-16.72" x2="-84.66" y2="233.3"/><line class="cls-5" x1="167.35" y1="-14.74" x2="-82.67" y2="235.29"/><line class="cls-5" x1="169.34" y1="-12.75" x2="-80.69" y2="237.27"/><line class="cls-5" x1="171.32" y1="-10.76" x2="-78.7" y2="239.26"/><line class="cls-5" x1="173.31" y1="-8.78" x2="-76.71" y2="241.25"/><line class="cls-5" x1="175.3" y1="-6.79" x2="-74.72" y2="243.23"/><line class="cls-5" x1="177.28" y1="-4.8" x2="-72.74" y2="245.22"/><line class="cls-5" x1="179.27" y1="-2.82" x2="-70.75" y2="247.21"/><line class="cls-5" x1="181.26" y1="-0.83" x2="-68.76" y2="249.19"/><line class="cls-5" x1="183.24" y1="1.16" x2="-66.78" y2="251.18"/><line class="cls-5" x1="185.23" y1="3.15" x2="-64.79" y2="253.17"/><line class="cls-5" x1="187.22" y1="5.13" x2="-62.8" y2="255.15"/><line class="cls-5" x1="189.2" y1="7.12" x2="-60.82" y2="257.14"/><line class="cls-5" x1="191.19" y1="9.11" x2="-58.83" y2="259.13"/><line class="cls-5" x1="193.18" y1="11.09" x2="-56.84" y2="261.11"/><line class="cls-5" x1="195.17" y1="13.08" x2="-54.86" y2="263.1"/><line class="cls-5" x1="197.15" y1="15.07" x2="-52.87" y2="265.09"/><line class="cls-5" x1="199.14" y1="17.05" x2="-50.88" y2="267.08"/><line class="cls-5" x1="1.36" y1="-190.45" x2="-248.66" y2="59.57"/><line class="cls-5" x1="3.35" y1="-188.47" x2="-246.67" y2="61.56"/><line class="cls-5" x1="5.34" y1="-186.48" x2="-244.69" y2="63.54"/><line class="cls-5" x1="7.32" y1="-184.49" x2="-242.7" y2="65.53"/><line class="cls-5" x1="9.31" y1="-182.51" x2="-240.71" y2="67.52"/><line class="cls-5" x1="11.3" y1="-180.52" x2="-238.73" y2="69.5"/><line class="cls-5" x1="13.28" y1="-178.53" x2="-236.74" y2="71.49"/><line class="cls-5" x1="15.27" y1="-176.55" x2="-234.75" y2="73.48"/><line class="cls-5" x1="17.26" y1="-174.56" x2="-232.77" y2="75.46"/><line class="cls-5" x1="19.24" y1="-172.57" x2="-230.78" y2="77.45"/><line class="cls-5" x1="21.23" y1="-170.58" x2="-228.79" y2="79.44"/><line class="cls-5" x1="23.22" y1="-168.6" x2="-226.81" y2="81.42"/><line class="cls-5" x1="25.2" y1="-166.61" x2="-224.82" y2="83.41"/><line class="cls-5" x1="27.19" y1="-164.62" x2="-222.83" y2="85.4"/><line class="cls-5" x1="29.18" y1="-162.64" x2="-220.84" y2="87.38"/><line class="cls-5" x1="31.16" y1="-160.65" x2="-218.86" y2="89.37"/><line class="cls-5" x1="33.15" y1="-158.66" x2="-216.87" y2="91.36"/><line class="cls-5" x1="35.14" y1="-156.68" x2="-214.88" y2="93.35"/><line class="cls-5" x1="37.12" y1="-154.69" x2="-212.9" y2="95.33"/><line class="cls-5" x1="39.11" y1="-152.7" x2="-210.91" y2="97.32"/><line class="cls-5" x1="41.1" y1="-150.72" x2="-208.92" y2="99.31"/><line class="cls-5" x1="43.09" y1="-148.73" x2="-206.94" y2="101.29"/><line class="cls-5" x1="45.07" y1="-146.74" x2="-204.95" y2="103.28"/><line class="cls-5" x1="47.06" y1="-144.76" x2="-202.96" y2="105.27"/><line class="cls-5" x1="49.05" y1="-142.77" x2="-200.98" y2="107.25"/><line class="cls-5" x1="51.03" y1="-140.78" x2="-198.99" y2="109.24"/><line class="cls-5" x1="53.02" y1="-138.79" x2="-197" y2="111.23"/><line class="cls-5" x1="55.01" y1="-136.81" x2="-195.02" y2="113.21"/><line class="cls-5" x1="56.99" y1="-134.82" x2="-193.03" y2="115.2"/><line class="cls-5" x1="58.98" y1="-132.83" x2="-191.04" y2="117.19"/><line class="cls-5" x1="60.97" y1="-130.85" x2="-189.05" y2="119.17"/><line class="cls-5" x1="62.95" y1="-128.86" x2="-187.07" y2="121.16"/><line class="cls-5" x1="64.94" y1="-126.87" x2="-185.08" y2="123.15"/><line class="cls-5" x1="66.93" y1="-124.89" x2="-183.09" y2="125.14"/><line class="cls-5" x1="68.91" y1="-122.9" x2="-181.11" y2="127.12"/><line class="cls-5" x1="70.9" y1="-120.91" x2="-179.12" y2="129.11"/><line class="cls-5" x1="72.89" y1="-118.93" x2="-177.13" y2="131.1"/><line class="cls-5" x1="74.88" y1="-116.94" x2="-175.15" y2="133.08"/><line class="cls-5" x1="76.86" y1="-114.95" x2="-173.16" y2="135.07"/><line class="cls-5" x1="78.85" y1="-112.97" x2="-171.17" y2="137.06"/><line class="cls-5" x1="80.84" y1="-110.98" x2="-169.19" y2="139.04"/><line class="cls-5" x1="82.82" y1="-108.99" x2="-167.2" y2="141.03"/><line class="cls-5" x1="84.81" y1="-107.01" x2="-165.21" y2="143.02"/><line class="cls-5" x1="86.8" y1="-105.02" x2="-163.23" y2="145"/><line class="cls-5" x1="88.78" y1="-103.03" x2="-161.24" y2="146.99"/></g><polygon class="cls-7" points="64 55.11 112.85 75.3 64 95.5 15.15 75.3 64 55.11"/><polygon class="cls-7" points="64 41.19 112.85 61.38 64 81.58 15.15 61.38 64 41.19"/><path class="cls-8" d="M58.82,18.58,110,39.39Q112.49,46.76,97,55.25A134.42,134.42,0,0,1,66.36,67.66L15.15,46.85Q33.93,41.3,46.41,34.47T58.82,18.58Z"/><g class="cls-9"><line class="cls-5" x1="1.71" y1="108.03" x2="-248.31" y2="358.06"/></g><g class="cls-10"><line class="cls-5" x1="110.29" y1="80.77" x2="-139.73" y2="330.79"/><line class="cls-5" x1="112.28" y1="82.75" x2="-137.74" y2="332.78"/><line class="cls-5" x1="114.27" y1="84.74" x2="-135.75" y2="334.76"/><line class="cls-5" x1="116.25" y1="86.73" x2="-133.77" y2="336.75"/><line class="cls-5" x1="118.24" y1="88.71" x2="-131.78" y2="338.74"/><line class="cls-5" x1="120.23" y1="90.7" x2="-129.79" y2="340.72"/><line class="cls-5" x1="122.21" y1="92.69" x2="-127.81" y2="342.71"/><line class="cls-5" x1="124.2" y1="94.67" x2="-125.82" y2="344.7"/><line class="cls-5" x1="126.19" y1="96.66" x2="-123.83" y2="346.68"/><line class="cls-5" x1="128.18" y1="98.65" x2="-121.85" y2="348.67"/><line class="cls-5" x1="130.16" y1="100.64" x2="-119.86" y2="350.66"/><line class="cls-5" x1="132.15" y1="102.62" x2="-117.87" y2="352.64"/><line class="cls-5" x1="134.14" y1="104.61" x2="-115.89" y2="354.63"/><line class="cls-5" x1="136.12" y1="106.6" x2="-113.9" y2="356.62"/><line class="cls-5" x1="138.11" y1="108.58" x2="-111.91" y2="358.6"/><line class="cls-5" x1="140.1" y1="110.57" x2="-109.93" y2="360.59"/><line class="cls-5" x1="142.08" y1="112.56" x2="-107.94" y2="362.58"/><line class="cls-5" x1="144.07" y1="114.54" x2="-105.95" y2="364.57"/><line class="cls-5" x1="146.06" y1="116.53" x2="-103.97" y2="366.55"/><line class="cls-5" x1="148.04" y1="118.52" x2="-101.98" y2="368.54"/><line class="cls-5" x1="150.03" y1="120.5" x2="-99.99" y2="370.53"/><line class="cls-5" x1="152.02" y1="122.49" x2="-98" y2="372.51"/><line class="cls-5" x1="154" y1="124.48" x2="-96.02" y2="374.5"/><line class="cls-5" x1="155.99" y1="126.46" x2="-94.03" y2="376.49"/></g><g class="cls-11"><line class="cls-5" x1="326.81" y1="61.33" x2="76.79" y2="311.35"/><line class="cls-5" x1="328.8" y1="63.31" x2="78.77" y2="313.34"/><line class="cls-5" x1="330.78" y1="65.3" x2="80.76" y2="315.32"/><line class="cls-5" x1="332.77" y1="67.29" x2="82.75" y2="317.31"/><line class="cls-5" x1="334.76" y1="69.28" x2="84.74" y2="319.3"/><line class="cls-5" x1="336.74" y1="71.26" x2="86.72" y2="321.28"/><line class="cls-5" x1="338.73" y1="73.25" x2="88.71" y2="323.27"/><line class="cls-5" x1="340.72" y1="75.24" x2="90.7" y2="325.26"/><line class="cls-5" x1="342.7" y1="77.22" x2="92.68" y2="327.24"/><line class="cls-5" x1="344.69" y1="79.21" x2="94.67" y2="329.23"/><line class="cls-5" x1="346.68" y1="81.2" x2="96.66" y2="331.22"/><line class="cls-5" x1="348.67" y1="83.18" x2="98.64" y2="333.21"/><line class="cls-5" x1="350.65" y1="85.17" x2="100.63" y2="335.19"/><line class="cls-5" x1="352.64" y1="87.16" x2="102.62" y2="337.18"/><line class="cls-5" x1="354.63" y1="89.14" x2="104.6" y2="339.17"/><line class="cls-5" x1="356.61" y1="91.13" x2="106.59" y2="341.15"/><line class="cls-5" x1="358.6" y1="93.12" x2="108.58" y2="343.14"/><line class="cls-5" x1="360.59" y1="95.1" x2="110.56" y2="345.13"/><line class="cls-5" x1="362.57" y1="97.09" x2="112.55" y2="347.11"/><line class="cls-5" x1="364.56" y1="99.08" x2="114.54" y2="349.1"/><line class="cls-5" x1="366.55" y1="101.07" x2="116.52" y2="351.09"/><line class="cls-5" x1="368.53" y1="103.05" x2="118.51" y2="353.07"/><line class="cls-5" x1="370.52" y1="105.04" x2="120.5" y2="355.06"/><line class="cls-5" x1="372.51" y1="107.03" x2="122.49" y2="357.05"/><line class="cls-5" x1="374.49" y1="109.01" x2="124.47" y2="359.03"/><line class="cls-5" x1="376.48" y1="111" x2="126.46" y2="361.02"/></g><g class="cls-12"><line class="cls-5" x1="317.81" y1="101.33" x2="67.79" y2="351.35"/><line class="cls-5" x1="319.8" y1="103.31" x2="69.77" y2="353.34"/><line class="cls-5" x1="321.78" y1="105.3" x2="71.76" y2="355.32"/><line class="cls-5" x1="323.77" y1="107.29" x2="73.75" y2="357.31"/><line class="cls-5" x1="325.76" y1="109.28" x2="75.74" y2="359.3"/><line class="cls-5" x1="327.74" y1="111.26" x2="77.72" y2="361.28"/><line class="cls-5" x1="329.73" y1="113.25" x2="79.71" y2="363.27"/><line class="cls-5" x1="331.72" y1="115.24" x2="81.7" y2="365.26"/><line class="cls-5" x1="333.7" y1="117.22" x2="83.68" y2="367.24"/><line class="cls-5" x1="335.69" y1="119.21" x2="85.67" y2="369.23"/><line class="cls-5" x1="337.68" y1="121.2" x2="87.66" y2="371.22"/><line class="cls-5" x1="339.67" y1="123.18" x2="89.64" y2="373.21"/><line class="cls-5" x1="341.65" y1="125.17" x2="91.63" y2="375.19"/><line class="cls-5" x1="343.64" y1="127.16" x2="93.62" y2="377.18"/></g></g></g></svg>