<?xml version="1.0" encoding="utf-8"?>
<!-- Generator: Adobe Illustrator 19.0.0, SVG Export Plug-In . SVG Version: 6.00 Build 0)  -->
<svg version="1.1" id="Layer_1" xmlns:sketch="http://www.bohemiancoding.com/sketch/ns"
	 xmlns="http://www.w3.org/2000/svg" xmlns:xlink="http://www.w3.org/1999/xlink" x="0px" y="0px" viewBox="456 170.9 1226 501"
	 style="enable-background:new 456 170.9 1226 501;" xml:space="preserve">
<style type="text/css">
	.st0{fill:#53565A;}
</style>
<title>amex-outline</title>
<desc>Created with Sketch.</desc>
<g id="surface1">
	<path id="XMLID_32_" class="st0" d="M604,464.5c-1.6,0.8-3.4,1.3-5.3,1.3c-4.4,0-8.2-2.5-10.3-6.3l-0.8-1.8l-32.1-73.5
		c-0.3-0.8-0.6-1.7-0.6-2.6c0-3.4,2.6-6.1,5.9-6.1c1.3,0,2.5,0.5,3.5,1.2l37.9,28.1c2.8,1.9,6.1,3,9.6,3c2.1,0,4.1-0.4,6-1.1
		L796,324c-31.9-39.3-84.5-64.9-144-64.9c-97.3,0-176.2,68.6-176.2,153.3c0,46.2,23.7,87.8,60.9,115.9c3,2.2,4.9,5.9,4.9,10
		c0,1.4-0.3,2.6-0.6,3.9c-3,11.6-7.7,30.1-7.9,30.9c-0.4,1.4-0.9,3-0.9,4.5c0,3.4,2.6,6.1,5.9,6.1c1.3,0,2.3-0.5,3.4-1.1l38.6-23.3
		c2.9-1.7,6-2.8,9.4-2.8c1.8,0,3.5,0.3,5.2,0.8c18,5.4,37.4,8.4,57.5,8.4c97.3,0,176.3-68.6,176.3-153.3c0-25.6-7.3-49.8-20.1-71
		l-203,122.3L604,464.5z"/>
	<path id="XMLID_31_" class="st0" d="M1018.3,435l-2.3,8.7c-2,7.2-3.7,13.6-5.2,19.9c-1.9-9.3-4.5-19.7-6.9-28.9l-15.7-61.8
		l-0.3-1.1h-10.3L960,435.1c-3.1,10.7-5.9,20.4-7.9,28.8c-1.5-6.7-3.3-14.1-5.2-22l-17-69.1l-0.3-1.1h-11.9l28.6,112.9l0.3,1.1h10.1
		l18.4-64.6c3.2-11,5.6-19.7,7.4-27.2c1.6,8,3.7,16.8,6.5,27.2l15.9,63.6l0.3,1.1h10.1l32.2-112l0.6-1.9h-11.9L1018.3,435z"/>
	<path id="XMLID_28_" class="st0" d="M1061.8,435.4c2.9-17,13.6-23,22.7-23c5.8,0,10.5,1.8,13.9,5.4c5,5.3,6.1,13,6.3,17.6H1061.8z
		 M1085.3,401.6c-21.4,0-35.7,17.9-35.7,44.4c0,24.7,14.9,41.3,37,41.3c13.9,0,21.8-3.7,24.5-5.3l1.7-1l-5-9l-1.2,0.6
		c-3.9,1.9-9.2,3.8-19.1,3.8c-16.2,0-25.8-11.1-26.4-30.5h54.7l0.4-1.7c0.3-1.7,0.3-2.9,0.3-5.2c0-3-0.4-13.7-5.7-22.9
		C1105.4,406.4,1096.8,401.6,1085.3,401.6"/>
	<path id="XMLID_27_" class="st0" d="M1204.8,471.8L1204.8,471.8c-5.9,2.8-14.2,4.5-22.2,4.5c-26.5,0-42.4-17.5-42.4-46.8
		c0-30.4,16.3-48.6,43.6-48.6c7.6,0,14.7,1.5,20.2,4.2l1.2,0.6l5.3-9.7l-1.6-0.9c-2.1-1.2-10.2-5.1-25.3-5.1
		c-33.1,0-55.3,23.9-55.3,59.4c0,42.8,27.9,57.9,51.8,57.9c13.5,0,23.9-3,29.3-5.8l1.7-0.9l-5.2-9.4L1204.8,471.8z"/>
	<path id="XMLID_26_" class="st0" d="M1258.7,401.6c-5.8,0-11.4,1.7-16.1,4.8c-2.7,1.6-5.2,3.9-7.4,6.5V370h-11.6v115.7h11.6v-49.8
		c0-3,0.1-4.9,0.8-7.1c3.2-9.5,11.7-16.1,20.7-16.1c16.1,0,18.5,15.5,18.5,24.7v48.3h11.6v-49.1
		C1286.8,403.2,1263.3,401.6,1258.7,401.6"/>
	<path id="XMLID_25_" class="st0" d="M1390.2,385.8h-11.6v18.3H1366v9.9h12.6v47.1c0,9.4,1.7,16,5.1,20c3.1,4.2,8.1,6.4,14.4,6.4
		c4.4,0,8.2-0.7,11.3-2.1l1.9-0.9l-4.9-8.8l-1,0.2c-1.8,0.4-3.9,0.6-6.3,0.6c-6.2,0-8.9-4.2-8.9-14v-48.6h21.4V404h-21.4V385.8z"/>
	<path id="XMLID_22_" class="st0" d="M1474.2,382.7c2.3-0.4,6.5-0.9,12.8-0.9c16.9,0,26.6,8.3,26.6,22.9c0,15.7-10.2,24.7-28,24.7
		c-3.5,0-7.8-0.1-11.3-1.1L1474.2,382.7L1474.2,382.7z M1487.2,371c-7.7,0-15.4,0.7-23,2.1l-1.7,0.3v112.3h11.6v-46.3
		c3.1,0.6,6.6,0.7,10.7,0.7c13.9,0,25.4-4.6,32.4-12.9c5.3-6,7.9-13.7,7.9-23.4c0-9.5-3-17.4-8.7-23
		C1510.1,374.4,1499.9,371,1487.2,371"/>
	<path id="XMLID_21_" class="st0" d="M1652.7,403.4l-18.7,52c-1.5,4.1-2.8,8.1-3.9,11.6c-1.2-3.8-2.5-7.7-3.8-11.1l-19.6-51.1
		l-0.5-1.4h-12.4l28.9,75.3c0.8,2,0.8,2.6,0.8,2.6c0,0.5-0.4,1.6-0.8,2.6c-3.7,9.2-8.6,15.4-12,19c-4.7,4.7-9.8,7.1-12.4,8.2
		l-2.1,0.8l8.7,9.4c2-0.8,5-3.1,10.9-8.3c10-9.1,16.3-22.9,25.8-48.5l22.8-59.1l0.8-2L1652.7,403.4L1652.7,403.4z"/>
	<path id="XMLID_18_" class="st0" d="M1315.7,451.5c5-5.1,14.5-7.7,28.1-7.7h1.4v14.7c0,1-0.1,2.6-0.7,4
		c-2.2,6.9-8.7,14.2-20.2,14.2c-6,0-12.9-3.7-12.9-14.1C1311.4,458.1,1312.8,454.4,1315.7,451.5 M1356.8,465v-30.6
		c0-21.5-9.7-32.9-27.9-32.9c-8.1,0-16.7,2.6-23.1,7l-1.2,0.8l5,9.1l1.3-0.9c4.7-3.3,10.8-5.2,17.2-5.2h0.3c5.2,0,9.2,1.4,11.9,4.3
		c3.3,3.4,4.9,8.8,4.9,16.5c-17.9,0.1-30.8,4.1-38.4,11.9c-4.8,5-7.3,11.3-7.3,18.9c0,11.4,7.5,23.6,24,23.6
		c11.5,0,18.9-5.8,22.7-10.1l0.8,8.3h11.1l-0.4-2.5C1356.9,477.2,1356.8,470.9,1356.8,465"/>
	<path id="XMLID_15_" class="st0" d="M1573.6,458.5c0,1-0.1,2.6-0.7,4c-2.2,6.8-8.7,14.2-20.2,14.2c-6,0-12.9-3.7-12.9-14.1
		c0-4.5,1.4-8.2,4.2-11c5-5.1,14.5-7.7,28.1-7.7h1.4L1573.6,458.5z M1585.1,465v-30.6c0-21.5-9.7-32.9-27.9-32.9
		c-7.6,0-15.9,2.4-22.2,6.4l-1.2,0.8l5,9l1.2-0.8c4.6-3,10.4-4.6,16.4-4.6h0.3c5.1,0,9.1,1.4,11.9,4.3c3.3,3.4,4.9,8.8,4.9,16.5
		c-17.9,0.1-30.8,4.1-38.4,11.9c-4.8,5-7.2,11.3-7.2,18.9c0,11.4,7.5,23.6,24,23.6c11.5,0,18.9-5.8,22.7-10.1l0.8,8.3h11.1l-0.4-2.5
		C1585.3,477.2,1585.1,470.9,1585.1,465"/>
</g>
</svg>
