<svg id="Layer_1" data-name="Layer 1" xmlns="http://www.w3.org/2000/svg" xmlns:xlink="http://www.w3.org/1999/xlink" viewBox="0 0 727.69 931.1"><defs><style>.cls-1,.cls-7{fill:none;}.cls-2{fill:#fff;}.cls-3{clip-path:url(#clip-path);}.cls-4{isolation:isolate;}.cls-5{clip-path:url(#clip-path-2);}.cls-6{fill:#4975ba;}.cls-7{stroke:#272b33;stroke-linecap:square;stroke-width:2.5px;}.cls-8{clip-path:url(#clip-path-4);}.cls-9{clip-path:url(#clip-path-5);}.cls-10{fill:#3679e0;}</style><clipPath id="clip-path"><path class="cls-1" d="M84.31,625.63V335.21a27.29,27.29,0,0,1,27.28-27.27H596.05a27.29,27.29,0,0,1,27.27,27.27V625.63a27.29,27.29,0,0,1-27.27,27.27H111.59a27.29,27.29,0,0,1-27.28-27.27Z"/></clipPath><clipPath id="clip-path-2"><rect class="cls-1" x="83.96" y="307.15" width="539.51" height="345.76"/></clipPath><clipPath id="clip-path-4"><rect class="cls-1" x="44.36" y="51.7" width="618.89" height="812.51"/></clipPath><clipPath id="clip-path-5"><rect class="cls-1" x="44.36" y="51.32" width="619.79" height="813.55"/></clipPath></defs><rect class="cls-2" x="108.29" y="303.42" width="489.37" height="306.79"/><g class="cls-3"><g class="cls-4"><g class="cls-5"><path class="cls-6" d="M68.74,265.34l17.51-17.52m17.52,0-35,35m0,17.51,52.54-52.55m17.53,0L68.74,317.88m0,17.53,87.58-87.59m17.52,0L68.74,352.92m0,17.52L191.35,247.82m17.55,0L68.74,388m0,17.5L226.41,247.79m17.52,0L68.76,423m0,17.51L261.44,247.78m17.53,0L68.76,458m0,17.52L296.48,247.78m17.51,0L68.76,493m0,17.5L331.51,247.78m17.53,0L68.77,528m0,17.52,297.79-297.8m17.51,0L68.76,563.06m0,17.52L401.59,247.75m17.51,0L68.76,598.09m0,17.53L436.62,247.75m17.53,0L68.77,633.12m0,17.54,402.9-402.9m17.52,0L68.78,668.17m0,17.52L506.7,247.76m17.51,0L68.77,703.2m0,17.52,473-473m17.54,0L68.77,738.23m0,17.55,508-508m17.5,0L68.77,773.29m17.52,0,508-508m0,17.54L103.8,773.29m17.52,0,473-473m0,17.51L138.84,773.29m17.52,0L594.29,335.36m0,17.51L173.88,773.28m17.5,0,402.9-402.9m0,17.52L208.91,773.29m17.51,0L594.28,405.43m0,17.52L243.94,773.29m17.51,0L594.28,440.46m0,17.53L279,773.28m17.5,0L594.27,475.52m0,17.52L314,773.31m17.53,0L594.26,510.55m0,17.5L349,773.29m17.52,0L594.28,545.57m0,17.52L384.07,773.29m17.53,0L594.28,580.6m0,17.54L419.12,773.29m17.49,0L594.26,615.66m0,17.49L454.12,773.31m17.55,0L594.28,650.67m0,17.51L489.18,773.29m17.52,0,87.58-87.58m0,17.52-70.08,70.06m17.54,0,52.54-52.55m0,17.51-35,35m17.52,0,17.51-17.51"/></g><g class="cls-5"><path class="cls-7" d="M68.74,265.34l17.51-17.52m17.52,0-35,35m0,17.51,52.54-52.55m17.53,0L68.74,317.88m0,17.53,87.58-87.59m17.52,0L68.74,352.92m0,17.52L191.35,247.82m17.55,0L68.74,388m0,17.5L226.41,247.79m17.52,0L68.76,423m0,17.51L261.44,247.78m17.53,0L68.76,458m0,17.52L296.48,247.78m17.51,0L68.76,493m0,17.5L331.51,247.78m17.53,0L68.77,528m0,17.52,297.79-297.8m17.51,0L68.76,563.06m0,17.52L401.59,247.75m17.51,0L68.76,598.09m0,17.53L436.62,247.75m17.53,0L68.77,633.12m0,17.54,402.9-402.9m17.52,0L68.78,668.17m0,17.52L506.7,247.76m17.51,0L68.77,703.2m0,17.52,473-473m17.54,0L68.77,738.23m0,17.55,508-508m17.5,0L68.77,773.29m17.52,0,508-508m0,17.54L103.8,773.29m17.52,0,473-473m0,17.51L138.84,773.29m17.52,0L594.29,335.36m0,17.51L173.88,773.28m17.5,0,402.9-402.9m0,17.52L208.91,773.29m17.51,0L594.28,405.43m0,17.52L243.94,773.29m17.51,0L594.28,440.46m0,17.53L279,773.28m17.5,0L594.27,475.52m0,17.52L314,773.31m17.53,0L594.26,510.55m0,17.5L349,773.29m17.52,0L594.28,545.57m0,17.52L384.07,773.29m17.53,0L594.28,580.6m0,17.54L419.12,773.29m17.49,0L594.26,615.66m0,17.49L454.12,773.31m17.55,0L594.28,650.67m0,17.51L489.18,773.29m17.52,0,87.58-87.58m0,17.52-70.08,70.06m17.54,0,52.54-52.55m0,17.51-35,35m17.52,0,17.51-17.51"/></g></g></g><g class="cls-8"><g class="cls-4"><g class="cls-9"><path class="cls-10" d="M552.54,468.28,505,550.33a23.81,23.81,0,0,1-41.21-23.86l40.49-69.88L464,389.81a23.81,23.81,0,1,1,40.25-25.44c.19.29.36.58.53.88l47.52,78.84a23.71,23.71,0,0,1,.21,24.22m-141.2-90.53-70.81,178A23.8,23.8,0,0,1,296,539c.1-.27.21-.54.32-.81l70.8-178a23.8,23.8,0,0,1,44.46,17c-.07.2-.15.39-.23.58M235.14,559a23.78,23.78,0,0,1-32.5-8.58l0-.1-47.52-82.05a23.78,23.78,0,0,1,.23-24.22l47.51-78.82a23.81,23.81,0,1,1,40.8,24.56l-40.3,66.76,40.5,69.89A23.79,23.79,0,0,1,235.14,559h0m261.5-316.84a23.82,23.82,0,0,1-23.81-23.81V51.71H68.16A23.81,23.81,0,0,0,44.35,75.52v764.9a23.82,23.82,0,0,0,23.81,23.81H639.45a23.81,23.81,0,0,0,23.79-23.81V242.14Z"/></g><g class="cls-9"><polygon class="cls-10" points="520.44 65.65 520.44 194.53 649.31 194.53 520.44 65.65"/></g></g></g></svg>