<?xml version="1.0" encoding="UTF-8"?>
<svg width="140px" height="22px" viewBox="0 0 140 22" version="1.1" xmlns="http://www.w3.org/2000/svg" xmlns:xlink="http://www.w3.org/1999/xlink">
    <!-- Generator: Sketch 52.2 (67145) - http://www.bohemiancoding.com/sketch -->
    <title>Group 6</title>
    <desc>Created with Sketch.</desc>
    <g id="Symbols-" stroke="none" stroke-width="1" fill="none" fill-rule="evenodd">
        <g id="Nav-/-768-/-Footer" transform="translate(-26.000000, -541.000000)" fill="#FF6C00" fill-rule="nonzero">
            <g id="Group-6" transform="translate(25.000000, 541.000000)">
                <path d="M1.3051602,20.7473128 C3.56238992,20.7473128 4.35846648,20.2686438 4.35846648,17.8040072 L4.35846648,4.16703074 C4.35846648,1.70239421 3.57246684,1.22372514 1.3051602,1.22372514 L1.3051602,0.622842676 L18.2243062,0.622842676 L18.4762292,5.16510669 L17.9119217,5.16510669 C17.5995373,2.63936347 16.3903071,1.88571429 14.0423851,1.88571429 L8.67138756,1.88571429 C7.40169584,1.88571429 7.40169584,2.24216998 7.40169584,3.99389512 L7.40169584,9.78884629 L13.3571546,9.78884629 C15.3019999,9.78884629 15.8965381,8.94353707 16.0980764,6.93720072 L16.6623839,6.93720072 L16.6623839,13.9033635 L16.0980764,13.9033635 C15.9267688,11.917396 15.281846,11.0517179 13.3571546,11.0517179 L7.40169584,11.0517179 L7.40169584,17.5697649 C7.40169584,19.4640723 7.51254194,20.0955081 8.81246442,20.0955081 L14.7679232,20.0955081 C17.3073066,20.0955081 18.8893828,18.4456275 19.6249979,16.072651 L20.1590746,16.2865244 L18.6374599,21.3685642 L1.3051602,21.3685642 L1.3051602,20.7473128" id="Shape"></path>
                <path d="M19.9978439,20.7473128 C22.083766,20.6250995 22.8496118,20.2380904 22.8496118,17.8651139 L22.8496118,4.10592405 C22.8496118,1.73294756 22.083766,1.34593852 19.9978439,1.22372514 L19.9978439,0.622842676 L28.9461474,0.622842676 L28.9461474,1.22372514 C26.6889177,1.22372514 25.8928411,1.70239421 25.8928411,4.16703074 L25.8928411,17.4169982 C25.8928411,19.0974322 25.9533026,20.0955081 27.6159942,20.0955081 L31.6568385,20.0955081 C34.679914,20.0955081 36.0906826,18.7715298 37.2797589,15.9198843 L37.9549125,16.0420976 L36.2317594,21.3583797 L19.9978439,21.3583797 L19.9978439,20.7473128" id="Shape"></path>
                <path d="M38.4587584,15.2171573 L39.0230658,15.2171573 C40.1516807,17.8651139 41.9352953,20.7167595 45.0087554,20.7167595 C47.0140621,20.7167595 48.7069844,19.3927812 48.7069844,17.3253382 C48.7069844,15.6449042 47.0644467,14.1681591 44.4948325,12.3044051 C41.1896033,9.90087523 39.0432197,8.48523689 39.0432197,5.7558047 C39.0432197,2.27272333 41.6128339,0.13398915 44.7165247,0.13398915 C46.9435237,0.13398915 47.7396003,1.10151175 48.9488305,1.10151175 C49.4325226,1.10151175 49.5131379,0.826531646 49.4325226,0.347862568 L49.99683,0.347862568 L50.6417528,6.54000723 L50.0774453,6.54000723 C49.2914457,3.87168174 47.5380619,1.25427848 44.686294,1.25427848 C42.9329102,1.25427848 41.5221416,2.63936347 41.5221416,4.50311754 C41.5221416,6.45853165 43.4669869,7.72140325 46.5807546,9.61571067 C49.1201381,11.1433779 51.6091369,13.0376854 51.6091369,15.980991 C51.6091369,19.2909367 48.9790612,21.8370488 45.5932166,21.8370488 C43.5576791,21.8370488 41.4112955,20.9713707 40.8772188,20.9713707 C40.5346036,20.9713707 40.1718345,21.1852441 40.111373,21.6333599 L39.5470656,21.6333599 L38.4587584,15.2171573" id="Shape"></path>
                <path d="M51.7099061,20.7473128 C53.9671358,20.7473128 54.7632124,20.2686438 54.7632124,17.8040072 L54.7632124,4.16703074 C54.7632124,1.70239421 53.9772128,1.22372514 51.7099061,1.22372514 L51.7099061,0.622842676 L68.6290521,0.622842676 L68.8809751,5.16510669 L68.3166677,5.16510669 C68.0042832,2.63936347 66.795053,1.88571429 64.447131,1.88571429 L59.0862104,1.88571429 C57.8165187,1.88571429 57.8165187,2.24216998 57.8165187,3.99389512 L57.8165187,9.78884629 L63.7719775,9.78884629 C65.7168227,9.78884629 66.3113609,8.94353707 66.5128993,6.93720072 L67.0772067,6.93720072 L67.0772067,13.9033635 L66.5128993,13.9033635 C66.3415917,11.917396 65.6966689,11.0517179 63.7719775,11.0517179 L57.8165187,11.0517179 L57.8165187,17.5697649 C57.8165187,19.4640723 57.9273648,20.0955081 59.2272873,20.0955081 L65.182746,20.0955081 C67.7221295,20.0955081 69.3042057,18.4456275 70.0398207,16.072651 L70.5738974,16.2865244 L69.0522827,21.3685642 L51.7099061,21.3685642 L51.7099061,20.7473128" id="Shape"></path>
                <path d="M80.0663546,21.5926221 L79.643124,21.5926221 L74.1915111,8.82132369 C73.2845885,6.72332731 72.4683581,4.58459313 71.3397432,2.56807233 C70.8560511,1.72276311 69.9793592,1.21354069 69.022052,1.21354069 L69.022052,0.612658228 L77.4060481,0.612658228 L77.4060481,1.21354069 C76.6200485,1.21354069 75.0379723,1.21354069 75.0379723,2.38475226 C75.0379723,2.7717613 75.9146642,4.87994213 76.7006638,6.77424955 L80.7918927,16.6327957 L85.7094289,5.06326221 C86.3039671,3.67817722 86.4752747,2.92452803 86.4752747,2.30327667 C86.4752747,1.68202532 85.8001211,1.31538517 84.328891,1.22372514 L84.328891,0.622842676 L90.3145806,0.622842676 L90.3145806,1.22372514 C89.9719654,1.28483183 89.6091963,1.34593852 89.2665811,1.52925859 C88.1984277,2.0995877 87.1201974,5.16510669 86.6062746,6.36687161 L80.0663546,21.5926221" id="Shape"></path>
                <path d="M90.506042,20.7473128 C92.7632718,20.7473128 93.5593483,20.2686438 93.5593483,17.8040072 L93.5593483,4.16703074 C93.5593483,1.70239421 92.7733487,1.22372514 90.506042,1.22372514 L90.506042,0.622842676 L99.655884,0.622842676 L99.655884,1.22372514 C97.3986542,1.22372514 96.6025777,1.70239421 96.6025777,4.16703074 L96.6025777,17.8040072 C96.6025777,20.2686438 97.3885773,20.7473128 99.655884,20.7473128 L99.655884,21.3481953 L90.506042,21.3481953 L90.506042,20.7473128" id="Shape"></path>
                <path d="M100.925576,20.7473128 C103.182805,20.7473128 103.978882,20.2686438 103.978882,17.8040072 L103.978882,4.16703074 C103.978882,1.70239421 103.192882,1.22372514 100.925576,1.22372514 L100.925576,0.622842676 L117.844722,0.622842676 L118.096645,5.16510669 L117.532337,5.16510669 C117.219953,2.63936347 116.010723,1.88571429 113.662801,1.88571429 L108.30188,1.88571429 C107.032188,1.88571429 107.032188,2.24216998 107.032188,3.99389512 L107.032188,9.78884629 L112.987647,9.78884629 C114.942569,9.78884629 115.52703,8.94353707 115.728569,6.93720072 L116.292876,6.93720072 L116.292876,13.9033635 L115.728569,13.9033635 C115.557261,11.917396 114.912338,11.0517179 112.987647,11.0517179 L107.032188,11.0517179 L107.032188,17.5697649 C107.032188,19.4640723 107.143034,20.0955081 108.442957,20.0955081 L114.398416,20.0955081 C116.937799,20.0955081 118.519875,18.4456275 119.25549,16.072651 L119.789567,16.2865244 L118.267952,21.3685642 L100.925576,21.3685642 L100.925576,20.7473128" id="Shape"></path>
                <path d="M125.855872,3.23006148 C125.855872,1.81442315 126.198487,1.72276311 128.062717,1.72276311 C130.8641,1.72276311 133.403484,2.71065461 133.403484,6.1122604 C133.403484,9.77866184 130.491254,10.82766 127.448025,10.82766 L125.865949,10.82766 L125.865949,3.23006148 L125.855872,3.23006148 Z M140.366634,20.7473128 C139.096943,20.3908571 138.643481,20.0547703 137.877636,19.0974322 L131.660177,11.3470669 C134.713483,10.6850778 136.829636,9.12685714 136.829636,5.69469801 C136.829636,0.857084991 132.536869,0.612658228 129.009947,0.612658228 L119.749259,0.612658228 L119.749259,1.21354069 C122.006489,1.21354069 122.802566,1.69220976 122.802566,4.15684629 L122.802566,17.7938228 C122.802566,20.2584593 122.016566,20.7371284 119.759336,20.7371284 L119.759336,21.3380108 L128.909178,21.3380108 L128.909178,20.7371284 C126.651948,20.7371284 125.855872,20.2584593 125.855872,17.7938228 L125.855872,12.0905316 L128.425486,12.0905316 L135.80179,21.3481953 L140.376711,21.3481953 L140.376711,20.7473128 L140.366634,20.7473128 Z" id="Shape"></path>
            </g>
        </g>
    </g>
</svg>