<svg id="Layer_1" data-name="Layer 1" xmlns="http://www.w3.org/2000/svg" xmlns:xlink="http://www.w3.org/1999/xlink" viewBox="0 0 1291.8 1026.17"><defs><style>.cls-1,.cls-12,.cls-6{fill:none;}.cls-2{fill:#acd2ff;}.cls-3{clip-path:url(#clip-path);}.cls-4{isolation:isolate;}.cls-5{clip-path:url(#clip-path-2);}.cls-6{stroke:#343842;stroke-linecap:square;}.cls-12,.cls-6{stroke-width:2.5px;}.cls-7{fill:#ff6c00;}.cls-8{fill:#ac5800;}.cls-9{clip-path:url(#clip-path-3);}.cls-10{clip-path:url(#clip-path-4);}.cls-11{clip-path:url(#clip-path-5);}.cls-12{stroke:#575757;stroke-miterlimit:10;}</style><clipPath id="clip-path"><path class="cls-1" d="M1075.81,557.14c0,225.45-182.76,408.21-408.21,408.21S259.39,782.59,259.39,557.14,442.15,148.93,667.6,148.93s408.21,182.76,408.21,408.21"/></clipPath><clipPath id="clip-path-2"><rect class="cls-1" x="259.38" y="148.9" width="816.45" height="816.45"/></clipPath><clipPath id="clip-path-3"><path class="cls-1" d="M1691.83,448.64q0-9.88,1-19.72t2.89-19.53q1.92-9.69,4.78-19.15t6.63-18.59q3.78-9.13,8.42-17.85t10.12-16.93q5.47-8.22,11.73-15.86t13.23-14.63q7-7,14.59-13.26T1781,281.36q8.21-5.49,16.89-10.15t17.8-8.44q9.1-3.78,18.54-6.65t19.1-4.8q9.66-1.94,19.48-2.9t19.67-1q9.85,0,19.67,1t19.48,2.9q9.67,1.94,19.1,4.8t18.54,6.65q9.1,3.78,17.8,8.44T2004,281.36q8.19,5.49,15.82,11.76t14.59,13.26q7,7,13.23,14.63t11.73,15.86q5.47,8.22,10.12,16.93t8.42,17.85q3.78,9.14,6.63,18.59t4.79,19.15q1.92,9.69,2.89,19.53t1,19.72q0,9.89-1,19.72t-2.89,19.53q-1.92,9.69-4.79,19.15t-6.63,18.59q-3.77,9.14-8.42,17.85t-10.13,16.93q-5.48,8.22-11.73,15.86t-13.23,14.63q-7,7-14.59,13.26T2004,615.92q-8.19,5.49-16.89,10.15t-17.8,8.44q-9.11,3.78-18.54,6.65t-19.1,4.8q-9.68,1.93-19.48,2.9t-19.67,1q-9.86,0-19.67-1t-19.48-2.9q-9.67-1.94-19.1-4.8t-18.54-6.65q-9.11-3.78-17.8-8.44T1781,615.92q-8.19-5.49-15.82-11.76t-14.59-13.26q-7-7-13.23-14.63t-11.73-15.86q-5.48-8.22-10.12-16.93t-8.42-17.85q-3.78-9.14-6.63-18.59t-4.78-19.15q-1.92-9.69-2.89-19.53T1691.83,448.64Z"/></clipPath><clipPath id="clip-path-4"><rect class="cls-1" x="1691.37" y="247.32" width="401.93" height="402.63"/></clipPath><clipPath id="clip-path-5"><rect class="cls-1" x="1690.67" y="246.62" width="403.33" height="404.03"/></clipPath></defs><path class="cls-2" d="M458.38,619.88a45.18,45.18,0,0,0-63.66,5.56l-19.25,22.94A45.18,45.18,0,0,0,381,712L548,852.14a45.19,45.19,0,0,0,63.66-5.56l19.25-22.94A45.19,45.19,0,0,0,625.33,760l-167-140.1M913.53,406.33l-87.45-61.55a105.28,105.28,0,0,0-114.9-4.08L531.26,449.06a41.93,41.93,0,0,0,38.35,74.37l115.06-50L892.12,647.67A65.08,65.08,0,0,1,912,676.48L1177.88,619V353.15Z"/><g class="cls-3"><g class="cls-4"><g class="cls-5"><path class="cls-6" d="M157.34,63.88l34-34m34,0-68,68m0,34,102-102m34,0L157.34,165.94m0,34L327.43,29.86m34,0L157.33,234m0,34L395.46,29.87m34,0L157.34,302m0,34L463.5,29.87m34,0L157.33,370.05m0,34L531.53,29.87m34,0L157.34,438.08m0,34L599.57,29.87m34,0L157.33,506.12m0,34L667.6,29.87m34,0L157.34,574.15m0,34,578.3-578.3m34,0L157.33,642.19m0,34L803.68,29.86m34,0L157.34,710.22m0,34L871.71,29.87m34,0L157.34,778.26m0,34L939.75,29.86m34,0L157.34,846.29m0,34L1007.78,29.87m34,0L157.34,914.33m0,34L1075.82,29.86m34,0L157.34,982.36m0,34L1143.85,29.87m34,0L157.34,1050.4m34,0L1177.86,63.89m0,34-952.5,952.49m34,0,918.48-918.48m0,34L293.41,1050.4m34,0L1177.87,200m0,34L361.45,1050.39m34,0L1177.87,268m0,34L429.48,1050.4m34,0L1177.87,336m0,34L497.52,1050.39m34,0,646.34-646.34m0,34L565.55,1050.4m34,0,578.3-578.3m0,34L633.59,1050.39m34,0,510.27-510.27m0,34L701.62,1050.4m34,0,442.23-442.23m0,34L769.66,1050.39m34,0,374.19-374.19m0,34L837.69,1050.4m34,0,306.16-306.16m0,34L905.73,1050.39m34,0,238.12-238.12m0,34L973.76,1050.4m34,0,170.09-170.09m0,34L1041.8,1050.4m34,0,102-102.05m0,34-68,68m34,0,34-34"/></g></g></g><path class="cls-7" d="M892.12,647.67,603.69,405.42,670,365.48S630.94,342,624,337.87a105.26,105.26,0,0,0-114.75,4.18l-87.55,61.61L157.34,350.48V616.35l234,47.68L614,824.71a114.6,114.6,0,0,0,120.43,8.49l146.09-76.88c41.87-22,46.84-79.13,11.59-108.65"/><path class="cls-8" d="M900.38,656.11c1.21,1.45,2.42,2.91,3.49,4.45-1.07-1.54-2.29-3-3.49-4.45M603.7,405.44l-72.44,43.63a41.93,41.93,0,0,0,38.35,74.37l115-50-81-68M458.38,619.88a45.18,45.18,0,0,0-63.66,5.56l-19.25,22.94a44,44,0,0,0-6.62,11.08L391.37,664,614,824.72a116.48,116.48,0,0,0,10.42,6.62l6.46-7.71A45.19,45.19,0,0,0,625.34,760l-167-140.09"/><g class="cls-9"><g class="cls-4"><g class="cls-10"><g class="cls-11"><g class="cls-4"><g class="cls-10"><line class="cls-12" x1="2602.39" y1="-189.15" x2="549.25" y2="1863.99"/></g><g class="cls-10"><line class="cls-12" x1="2586.06" y1="-205.4" x2="532.92" y2="1847.74"/></g><g class="cls-10"><line class="cls-12" x1="2618.72" y1="-172.82" x2="565.58" y2="1880.32"/></g><g class="cls-10"><line class="cls-12" x1="2634.97" y1="-156.5" x2="581.82" y2="1896.65"/></g><g class="cls-10"><line class="cls-12" x1="2651.3" y1="-140.17" x2="598.15" y2="1912.98"/></g><g class="cls-10"><line class="cls-12" x1="2667.62" y1="-123.84" x2="614.48" y2="1929.3"/></g><g class="cls-10"><line class="cls-12" x1="2683.95" y1="-107.51" x2="630.81" y2="1945.63"/></g><g class="cls-10"><line class="cls-12" x1="2700.28" y1="-91.26" x2="647.14" y2="1961.88"/></g><g class="cls-10"><line class="cls-12" x1="2716.61" y1="-74.94" x2="663.47" y2="1978.21"/></g><g class="cls-10"><line class="cls-12" x1="2732.86" y1="-58.61" x2="679.71" y2="1994.54"/></g><g class="cls-10"><line class="cls-12" x1="2749.18" y1="-42.28" x2="696.04" y2="2010.86"/></g><g class="cls-10"><line class="cls-12" x1="2765.51" y1="-25.95" x2="712.37" y2="2027.19"/></g><g class="cls-10"><line class="cls-12" x1="2781.84" y1="-9.62" x2="728.7" y2="2043.52"/></g><g class="cls-10"><line class="cls-12" x1="2798.17" y1="6.63" x2="745.03" y2="2059.85"/></g><g class="cls-10"><line class="cls-12" x1="2814.5" y1="22.95" x2="761.36" y2="2076.1"/></g><g class="cls-10"><line class="cls-12" x1="2830.83" y1="39.28" x2="777.6" y2="2092.43"/></g><g class="cls-10"><line class="cls-12" x1="2847.07" y1="55.61" x2="793.93" y2="2108.75"/></g><g class="cls-10"><line class="cls-12" x1="2863.4" y1="71.94" x2="810.26" y2="2125.08"/></g><g class="cls-10"><line class="cls-12" x1="2879.73" y1="88.27" x2="826.59" y2="2141.41"/></g><g class="cls-10"><line class="cls-12" x1="2896.06" y1="104.6" x2="842.92" y2="2157.74"/></g><g class="cls-10"><line class="cls-12" x1="2912.39" y1="120.84" x2="859.24" y2="2173.99"/></g><g class="cls-10"><line class="cls-12" x1="2928.72" y1="137.17" x2="875.57" y2="2190.31"/></g><g class="cls-10"><line class="cls-12" x1="2944.96" y1="153.5" x2="891.82" y2="2206.64"/></g><g class="cls-10"><line class="cls-12" x1="2961.29" y1="169.83" x2="908.15" y2="2222.97"/></g><g class="cls-10"><line class="cls-12" x1="2977.62" y1="186.16" x2="924.48" y2="2239.3"/></g><g class="cls-10"><line class="cls-12" x1="2993.95" y1="202.49" x2="940.81" y2="2255.63"/></g><g class="cls-10"><line class="cls-12" x1="3010.28" y1="218.73" x2="957.13" y2="2271.96"/></g><g class="cls-10"><line class="cls-12" x1="3026.61" y1="235.06" x2="973.46" y2="2288.2"/></g><g class="cls-10"><line class="cls-12" x1="3042.85" y1="251.39" x2="989.71" y2="2304.53"/></g><g class="cls-10"><line class="cls-12" x1="3059.18" y1="267.72" x2="1006.04" y2="2320.86"/></g><g class="cls-10"><line class="cls-12" x1="3075.51" y1="284.05" x2="1022.37" y2="2337.19"/></g><g class="cls-10"><line class="cls-12" x1="3087.43" y1="304.78" x2="1034.29" y2="2357.93"/></g><g class="cls-10"><line class="cls-12" x1="3108.17" y1="316.7" x2="1055.02" y2="2369.85"/></g><g class="cls-10"><line class="cls-12" x1="3124.49" y1="332.95" x2="1071.35" y2="2386.09"/></g><g class="cls-10"><line class="cls-12" x1="3140.82" y1="349.28" x2="1087.68" y2="2402.42"/></g><g class="cls-10"><line class="cls-12" x1="3157.07" y1="365.61" x2="1103.93" y2="2418.75"/></g><g class="cls-10"><line class="cls-12" x1="3173.4" y1="381.94" x2="1120.26" y2="2435.08"/></g><g class="cls-10"><line class="cls-12" x1="3189.73" y1="398.26" x2="1136.58" y2="2451.41"/></g><g class="cls-10"><line class="cls-12" x1="3206.06" y1="414.59" x2="1152.91" y2="2467.73"/></g><g class="cls-10"><line class="cls-12" x1="3222.38" y1="430.84" x2="1169.24" y2="2483.98"/></g><g class="cls-10"><line class="cls-12" x1="3238.71" y1="447.17" x2="1185.57" y2="2500.31"/></g><g class="cls-10"><line class="cls-12" x1="3254.96" y1="463.5" x2="1201.82" y2="2516.64"/></g><g class="cls-10"><line class="cls-12" x1="3271.29" y1="479.82" x2="1218.14" y2="2532.97"/></g><g class="cls-10"><line class="cls-12" x1="3287.62" y1="496.15" x2="1234.47" y2="2549.3"/></g><g class="cls-10"><line class="cls-12" x1="3303.95" y1="512.48" x2="1250.8" y2="2565.62"/></g><g class="cls-10"><line class="cls-12" x1="3320.27" y1="528.81" x2="1267.13" y2="2581.95"/></g><g class="cls-10"><line class="cls-12" x1="3336.6" y1="545.06" x2="1283.46" y2="2598.2"/></g><g class="cls-10"><line class="cls-12" x1="1696.16" y1="-1175.23" x2="-356.98" y2="877.91"/></g><g class="cls-10"><line class="cls-12" x1="1712.49" y1="-1158.9" x2="-340.65" y2="894.24"/></g><g class="cls-10"><line class="cls-12" x1="1728.74" y1="-1142.57" x2="-324.41" y2="910.57"/></g><g class="cls-10"><line class="cls-12" x1="1745.06" y1="-1126.33" x2="-308.08" y2="926.82"/></g><g class="cls-10"><line class="cls-12" x1="1761.39" y1="-1110" x2="-291.75" y2="943.15"/></g><g class="cls-10"><line class="cls-12" x1="1777.72" y1="-1093.67" x2="-275.42" y2="959.47"/></g><g class="cls-10"><line class="cls-12" x1="1794.05" y1="-1077.34" x2="-259.09" y2="975.8"/></g><g class="cls-10"><line class="cls-12" x1="1810.38" y1="-1061.01" x2="-242.76" y2="992.13"/></g><g class="cls-10"><line class="cls-12" x1="1826.63" y1="-1044.68" x2="-226.52" y2="1008.46"/></g><g class="cls-10"><line class="cls-12" x1="1842.95" y1="-1028.44" x2="-210.19" y2="1024.79"/></g><g class="cls-10"><line class="cls-12" x1="1859.28" y1="-1012.11" x2="-193.86" y2="1041.03"/></g><g class="cls-10"><line class="cls-12" x1="1875.61" y1="-995.78" x2="-177.53" y2="1057.36"/></g><g class="cls-10"><line class="cls-12" x1="1891.94" y1="-979.45" x2="-161.2" y2="1073.69"/></g><g class="cls-10"><line class="cls-12" x1="1908.27" y1="-963.12" x2="-144.88" y2="1090.02"/></g><g class="cls-10"><line class="cls-12" x1="1924.6" y1="-946.79" x2="-128.55" y2="1106.35"/></g><g class="cls-10"><line class="cls-12" x1="1940.84" y1="-930.47" x2="-112.3" y2="1122.68"/></g><g class="cls-10"><line class="cls-12" x1="1957.17" y1="-914.22" x2="-95.97" y2="1138.92"/></g><g class="cls-10"><line class="cls-12" x1="1973.5" y1="-897.89" x2="-79.64" y2="1155.25"/></g><g class="cls-10"><line class="cls-12" x1="1989.83" y1="-881.56" x2="-63.31" y2="1171.58"/></g><g class="cls-10"><line class="cls-12" x1="2006.16" y1="-865.23" x2="-46.99" y2="1187.91"/></g><g class="cls-10"><line class="cls-12" x1="2022.49" y1="-848.91" x2="-30.66" y2="1204.24"/></g><g class="cls-10"><line class="cls-12" x1="2038.73" y1="-832.58" x2="-14.41" y2="1220.57"/></g><g class="cls-10"><line class="cls-12" x1="2055.06" y1="-816.33" x2="1.92" y2="1236.81"/></g><g class="cls-10"><line class="cls-12" x1="2071.39" y1="-800" x2="18.25" y2="1253.14"/></g><g class="cls-10"><line class="cls-12" x1="2087.72" y1="-783.67" x2="34.57" y2="1269.47"/></g><g class="cls-10"><line class="cls-12" x1="2104.05" y1="-767.34" x2="50.9" y2="1285.8"/></g><g class="cls-10"><line class="cls-12" x1="2120.37" y1="-751.02" x2="67.23" y2="1302.13"/></g><g class="cls-10"><line class="cls-12" x1="2136.7" y1="-734.69" x2="83.48" y2="1318.46"/></g><g class="cls-10"><line class="cls-12" x1="2152.95" y1="-718.36" x2="99.81" y2="1334.78"/></g><g class="cls-10"><line class="cls-12" x1="2169.28" y1="-702.11" x2="116.14" y2="1351.03"/></g><g class="cls-10"><line class="cls-12" x1="2185.61" y1="-685.78" x2="132.46" y2="1367.36"/></g><g class="cls-10"><line class="cls-12" x1="2201.94" y1="-669.46" x2="148.79" y2="1383.69"/></g><g class="cls-10"><line class="cls-12" x1="2218.26" y1="-653.13" x2="165.12" y2="1400.02"/></g><g class="cls-10"><line class="cls-12" x1="2234.59" y1="-636.8" x2="181.45" y2="1416.35"/></g><g class="cls-10"><line class="cls-12" x1="2250.84" y1="-620.47" x2="197.7" y2="1432.67"/></g><g class="cls-10"><line class="cls-12" x1="2267.17" y1="-604.22" x2="214.03" y2="1448.92"/></g><g class="cls-10"><line class="cls-12" x1="2283.5" y1="-587.89" x2="230.35" y2="1465.25"/></g><g class="cls-10"><line class="cls-12" x1="2299.82" y1="-571.57" x2="246.68" y2="1481.58"/></g><g class="cls-10"><line class="cls-12" x1="2316.15" y1="-555.24" x2="263.01" y2="1497.91"/></g><g class="cls-10"><line class="cls-12" x1="2332.48" y1="-538.91" x2="279.34" y2="1514.23"/></g><g class="cls-10"><line class="cls-12" x1="2348.73" y1="-522.58" x2="295.59" y2="1530.56"/></g><g class="cls-10"><line class="cls-12" x1="2365.06" y1="-506.25" x2="311.91" y2="1546.89"/></g><g class="cls-10"><line class="cls-12" x1="2381.39" y1="-490.01" x2="328.24" y2="1563.14"/></g><g class="cls-10"><line class="cls-12" x1="2397.71" y1="-473.68" x2="344.57" y2="1579.47"/></g><g class="cls-10"><line class="cls-12" x1="2414.04" y1="-457.35" x2="360.9" y2="1595.8"/></g><g class="cls-10"><line class="cls-12" x1="2430.37" y1="-441.02" x2="377.23" y2="1612.12"/></g><g class="cls-10"><line class="cls-12" x1="2446.7" y1="-424.69" x2="393.56" y2="1628.45"/></g><g class="cls-10"><line class="cls-12" x1="2462.95" y1="-408.36" x2="409.8" y2="1644.78"/></g><g class="cls-10"><line class="cls-12" x1="2479.27" y1="-392.12" x2="426.13" y2="1661.03"/></g><g class="cls-10"><line class="cls-12" x1="2495.6" y1="-375.79" x2="442.46" y2="1677.36"/></g><g class="cls-10"><line class="cls-12" x1="2511.93" y1="-359.46" x2="458.79" y2="1693.68"/></g><g class="cls-10"><line class="cls-12" x1="2528.26" y1="-343.13" x2="475.12" y2="1710.01"/></g><g class="cls-10"><line class="cls-12" x1="2544.59" y1="-326.8" x2="491.45" y2="1726.34"/></g><g class="cls-10"><line class="cls-12" x1="2560.84" y1="-310.47" x2="507.69" y2="1742.67"/></g><g class="cls-10"><line class="cls-12" x1="2577.16" y1="-294.23" x2="524.02" y2="1759"/></g><g class="cls-10"><line class="cls-12" x1="2593.49" y1="-277.9" x2="540.35" y2="1775.24"/></g><g class="cls-10"><line class="cls-12" x1="2609.82" y1="-261.57" x2="556.68" y2="1791.57"/></g><g class="cls-10"><line class="cls-12" x1="1687.26" y1="-1263.98" x2="-365.88" y2="789.17"/></g><g class="cls-10"><line class="cls-12" x1="1703.59" y1="-1247.65" x2="-349.55" y2="805.5"/></g></g></g></g></g></g></svg>