<svg xmlns="http://www.w3.org/2000/svg" xmlns:xlink="http://www.w3.org/1999/xlink" viewBox="0 0 480 480"><defs><style>.cls-1,.cls-5{fill:none;}.cls-2{isolation:isolate;}.cls-3{fill:#c0f25d;}.cls-4{clip-path:url(#clip-path);}.cls-5{stroke:#565656;stroke-miterlimit:10;stroke-width:0.57px;}.cls-6{mix-blend-mode:multiply;}.cls-7{opacity:0.7;}.cls-8{clip-path:url(#clip-path-2);}</style><clipPath id="clip-path"><path class="cls-1" d="M398.71,357.47l14.87-15.08-68-67-14.87,15.08,68,67M355.12,228.08q0-29.8-21.13-50.93-21-20.92-50.82-20.92t-50.93,20.92q-20.92,21.13-20.92,50.93t20.92,50.82Q253.36,300,283.16,300T334,278.9q21.13-21,21.13-50.82m-36.09-36a50.61,50.61,0,0,1,0,71.83,50.61,50.61,0,0,1-71.83,0,51.09,51.09,0,0,1,0-71.83,51.09,51.09,0,0,1,71.83,0Z"/></clipPath><clipPath id="clip-path-2"><circle class="cls-1" cx="174.68" cy="830.82" r="66.25"/></clipPath></defs><title>ELS_Webshop_Illustrations_480px RGB</title><g class="cls-2"><g id="Illustrations"><circle class="cls-3" cx="175.91" cy="232.02" r="109.49"/><g class="cls-4"><line class="cls-5" x1="642.57" y1="207.82" x2="304.77" y2="545.62"/><line class="cls-5" x1="645.25" y1="210.51" x2="307.46" y2="548.3"/><line class="cls-5" x1="647.94" y1="213.19" x2="310.14" y2="550.99"/><line class="cls-5" x1="650.62" y1="215.87" x2="312.83" y2="553.67"/><line class="cls-5" x1="653.31" y1="218.56" x2="315.51" y2="556.35"/><line class="cls-5" x1="655.99" y1="221.24" x2="318.2" y2="559.04"/><line class="cls-5" x1="658.68" y1="223.93" x2="320.88" y2="561.72"/><line class="cls-5" x1="661.36" y1="226.61" x2="323.57" y2="564.41"/><line class="cls-5" x1="664.04" y1="229.3" x2="326.25" y2="567.09"/><line class="cls-5" x1="666.73" y1="231.98" x2="328.93" y2="569.78"/><line class="cls-5" x1="669.41" y1="234.66" x2="331.62" y2="572.46"/><line class="cls-5" x1="672.1" y1="237.35" x2="334.3" y2="575.14"/><line class="cls-5" x1="674.78" y1="240.03" x2="336.99" y2="577.83"/><line class="cls-5" x1="677.47" y1="242.72" x2="339.67" y2="580.51"/><line class="cls-5" x1="680.15" y1="245.4" x2="342.36" y2="583.2"/><line class="cls-5" x1="682.84" y1="248.09" x2="345.04" y2="585.88"/><line class="cls-5" x1="685.52" y1="250.77" x2="347.72" y2="588.57"/><line class="cls-5" x1="688.2" y1="253.46" x2="350.41" y2="591.25"/><line class="cls-5" x1="690.89" y1="256.14" x2="353.09" y2="593.94"/><line class="cls-5" x1="693.57" y1="258.82" x2="355.78" y2="596.62"/><line class="cls-5" x1="696.26" y1="261.51" x2="358.46" y2="599.3"/><line class="cls-5" x1="698.94" y1="264.19" x2="361.15" y2="601.99"/><line class="cls-5" x1="701.63" y1="266.88" x2="363.83" y2="604.67"/><line class="cls-5" x1="704.31" y1="269.56" x2="366.52" y2="607.36"/><line class="cls-5" x1="706.99" y1="272.25" x2="369.2" y2="610.04"/><line class="cls-5" x1="709.68" y1="274.93" x2="371.88" y2="612.73"/><line class="cls-5" x1="712.36" y1="277.61" x2="374.57" y2="615.41"/><line class="cls-5" x1="715.05" y1="280.3" x2="377.25" y2="618.09"/><line class="cls-5" x1="717.73" y1="282.98" x2="379.94" y2="620.78"/><line class="cls-5" x1="720.42" y1="285.67" x2="382.62" y2="623.46"/><line class="cls-5" x1="723.1" y1="288.35" x2="385.31" y2="626.15"/><line class="cls-5" x1="725.79" y1="291.04" x2="387.99" y2="628.83"/><line class="cls-5" x1="728.47" y1="293.72" x2="390.67" y2="631.52"/><line class="cls-5" x1="731.15" y1="296.41" x2="393.36" y2="634.2"/><line class="cls-5" x1="733.84" y1="299.09" x2="396.04" y2="636.89"/><line class="cls-5" x1="736.52" y1="301.77" x2="398.73" y2="639.57"/><line class="cls-5" x1="739.21" y1="304.46" x2="401.41" y2="642.25"/><line class="cls-5" x1="741.89" y1="307.14" x2="404.1" y2="644.94"/><line class="cls-5" x1="744.58" y1="309.83" x2="406.78" y2="647.62"/><line class="cls-5" x1="747.26" y1="312.51" x2="409.47" y2="650.31"/><line class="cls-5" x1="749.94" y1="315.2" x2="412.15" y2="652.99"/><line class="cls-5" x1="752.63" y1="317.88" x2="414.83" y2="655.68"/><line class="cls-5" x1="755.31" y1="320.56" x2="417.52" y2="658.36"/><line class="cls-5" x1="758" y1="323.25" x2="420.2" y2="661.04"/><line class="cls-5" x1="760.68" y1="325.93" x2="422.89" y2="663.73"/><line class="cls-5" x1="763.37" y1="328.62" x2="425.57" y2="666.41"/><line class="cls-5" x1="766.05" y1="331.3" x2="428.26" y2="669.1"/><line class="cls-5" x1="768.74" y1="333.99" x2="430.94" y2="671.78"/><line class="cls-5" x1="771.42" y1="336.67" x2="433.62" y2="674.47"/><line class="cls-5" x1="774.1" y1="339.36" x2="436.31" y2="677.15"/><line class="cls-5" x1="776.79" y1="342.04" x2="438.99" y2="679.84"/><line class="cls-5" x1="779.47" y1="344.72" x2="441.68" y2="682.52"/><line class="cls-5" x1="782.16" y1="347.41" x2="444.36" y2="685.2"/><line class="cls-5" x1="784.84" y1="350.09" x2="447.05" y2="687.89"/><line class="cls-5" x1="787.53" y1="352.78" x2="449.73" y2="690.57"/><line class="cls-5" x1="790.21" y1="355.46" x2="452.42" y2="693.26"/><line class="cls-5" x1="792.89" y1="358.15" x2="455.1" y2="695.94"/><line class="cls-5" x1="795.58" y1="360.83" x2="457.78" y2="698.63"/><line class="cls-5" x1="493.47" y1="45.58" x2="155.68" y2="383.38"/><line class="cls-5" x1="496.16" y1="48.26" x2="158.36" y2="386.06"/><line class="cls-5" x1="498.84" y1="50.95" x2="161.05" y2="388.74"/><line class="cls-5" x1="501.53" y1="53.63" x2="163.73" y2="391.43"/><line class="cls-5" x1="504.21" y1="56.32" x2="166.41" y2="394.11"/><line class="cls-5" x1="506.89" y1="59" x2="169.1" y2="396.8"/><line class="cls-5" x1="509.58" y1="61.69" x2="171.78" y2="399.48"/><line class="cls-5" x1="512.26" y1="64.37" x2="174.47" y2="402.17"/><line class="cls-5" x1="514.95" y1="67.05" x2="177.15" y2="404.85"/><line class="cls-5" x1="517.63" y1="69.74" x2="179.84" y2="407.53"/><line class="cls-5" x1="520.32" y1="72.42" x2="182.52" y2="410.22"/><line class="cls-5" x1="523" y1="75.11" x2="185.2" y2="412.9"/><line class="cls-5" x1="525.68" y1="77.79" x2="187.89" y2="415.59"/><line class="cls-5" x1="528.37" y1="80.48" x2="190.57" y2="418.27"/><line class="cls-5" x1="531.05" y1="83.16" x2="193.26" y2="420.96"/><line class="cls-5" x1="533.74" y1="85.85" x2="195.94" y2="423.64"/><line class="cls-5" x1="536.42" y1="88.53" x2="198.63" y2="426.32"/><line class="cls-5" x1="539.11" y1="91.21" x2="201.31" y2="429.01"/><line class="cls-5" x1="541.79" y1="93.9" x2="204" y2="431.69"/><line class="cls-5" x1="544.47" y1="96.58" x2="206.68" y2="434.38"/><line class="cls-5" x1="547.16" y1="99.27" x2="209.36" y2="437.06"/><line class="cls-5" x1="549.84" y1="101.95" x2="212.05" y2="439.75"/><line class="cls-5" x1="552.53" y1="104.64" x2="214.73" y2="442.43"/><line class="cls-5" x1="555.21" y1="107.32" x2="217.42" y2="445.12"/><line class="cls-5" x1="557.9" y1="110" x2="220.1" y2="447.8"/><line class="cls-5" x1="560.58" y1="112.69" x2="222.79" y2="450.48"/><line class="cls-5" x1="563.27" y1="115.37" x2="225.47" y2="453.17"/><line class="cls-5" x1="565.95" y1="118.06" x2="228.15" y2="455.85"/><line class="cls-5" x1="568.63" y1="120.74" x2="230.84" y2="458.54"/><line class="cls-5" x1="571.32" y1="123.43" x2="233.52" y2="461.22"/><line class="cls-5" x1="574" y1="126.11" x2="236.21" y2="463.91"/><line class="cls-5" x1="576.69" y1="128.8" x2="238.89" y2="466.59"/><line class="cls-5" x1="579.37" y1="131.48" x2="241.58" y2="469.27"/><line class="cls-5" x1="582.06" y1="134.16" x2="244.26" y2="471.96"/><line class="cls-5" x1="584.74" y1="136.85" x2="246.95" y2="474.64"/><line class="cls-5" x1="587.42" y1="139.53" x2="249.63" y2="477.33"/><line class="cls-5" x1="590.11" y1="142.22" x2="252.31" y2="480.01"/><line class="cls-5" x1="592.79" y1="144.9" x2="255" y2="482.7"/><line class="cls-5" x1="595.48" y1="147.59" x2="257.68" y2="485.38"/><line class="cls-5" x1="598.16" y1="150.27" x2="260.37" y2="488.07"/><line class="cls-5" x1="600.85" y1="152.95" x2="263.05" y2="490.75"/><line class="cls-5" x1="603.53" y1="155.64" x2="265.74" y2="493.43"/><line class="cls-5" x1="606.22" y1="158.32" x2="268.42" y2="496.12"/><line class="cls-5" x1="608.9" y1="161.01" x2="271.1" y2="498.8"/><line class="cls-5" x1="611.58" y1="163.69" x2="273.79" y2="501.49"/><line class="cls-5" x1="614.27" y1="166.38" x2="276.47" y2="504.17"/><line class="cls-5" x1="616.95" y1="169.06" x2="279.16" y2="506.86"/><line class="cls-5" x1="619.64" y1="171.75" x2="281.84" y2="509.54"/><line class="cls-5" x1="622.32" y1="174.43" x2="284.53" y2="512.22"/><line class="cls-5" x1="625.01" y1="177.11" x2="287.21" y2="514.91"/><line class="cls-5" x1="627.69" y1="179.8" x2="289.9" y2="517.59"/><line class="cls-5" x1="630.37" y1="182.48" x2="292.58" y2="520.28"/><line class="cls-5" x1="633.06" y1="185.17" x2="295.26" y2="522.96"/><line class="cls-5" x1="635.74" y1="187.85" x2="297.95" y2="525.65"/><line class="cls-5" x1="638.43" y1="190.54" x2="300.63" y2="528.33"/><line class="cls-5" x1="641.11" y1="193.22" x2="303.32" y2="531.02"/><line class="cls-5" x1="643.8" y1="195.9" x2="306" y2="533.7"/><line class="cls-5" x1="646.48" y1="198.59" x2="308.69" y2="536.38"/><line class="cls-5" x1="344.37" y1="-116.66" x2="6.58" y2="221.13"/><line class="cls-5" x1="347.06" y1="-113.98" x2="9.26" y2="223.82"/><line class="cls-5" x1="349.74" y1="-111.29" x2="11.95" y2="226.5"/><line class="cls-5" x1="352.43" y1="-108.61" x2="14.63" y2="229.19"/><line class="cls-5" x1="355.11" y1="-105.92" x2="17.32" y2="231.87"/><line class="cls-5" x1="357.8" y1="-103.24" x2="20" y2="234.56"/><line class="cls-5" x1="360.48" y1="-100.56" x2="22.69" y2="237.24"/><line class="cls-5" x1="363.16" y1="-97.87" x2="25.37" y2="239.92"/><line class="cls-5" x1="365.85" y1="-95.19" x2="28.05" y2="242.61"/><line class="cls-5" x1="368.53" y1="-92.5" x2="30.74" y2="245.29"/><line class="cls-5" x1="371.22" y1="-89.82" x2="33.42" y2="247.98"/><line class="cls-5" x1="373.9" y1="-87.13" x2="36.11" y2="250.66"/><line class="cls-5" x1="376.59" y1="-84.45" x2="38.79" y2="253.35"/><line class="cls-5" x1="379.27" y1="-81.77" x2="41.48" y2="256.03"/><line class="cls-5" x1="381.96" y1="-79.08" x2="44.16" y2="258.71"/><line class="cls-5" x1="384.64" y1="-76.4" x2="46.84" y2="261.4"/><line class="cls-5" x1="387.32" y1="-73.71" x2="49.53" y2="264.08"/><line class="cls-5" x1="390.01" y1="-71.03" x2="52.21" y2="266.77"/><line class="cls-5" x1="392.69" y1="-68.34" x2="54.9" y2="269.45"/><line class="cls-5" x1="395.38" y1="-65.66" x2="57.58" y2="272.14"/><line class="cls-5" x1="398.06" y1="-62.97" x2="60.27" y2="274.82"/><line class="cls-5" x1="400.75" y1="-60.29" x2="62.95" y2="277.51"/><line class="cls-5" x1="403.43" y1="-57.61" x2="65.63" y2="280.19"/><line class="cls-5" x1="406.11" y1="-54.92" x2="68.32" y2="282.87"/><line class="cls-5" x1="408.8" y1="-52.24" x2="71" y2="285.56"/><line class="cls-5" x1="411.48" y1="-49.55" x2="73.69" y2="288.24"/><line class="cls-5" x1="414.17" y1="-46.87" x2="76.37" y2="290.93"/><line class="cls-5" x1="416.85" y1="-44.18" x2="79.06" y2="293.61"/><line class="cls-5" x1="419.54" y1="-41.5" x2="81.74" y2="296.3"/><line class="cls-5" x1="422.22" y1="-38.82" x2="84.43" y2="298.98"/><line class="cls-5" x1="424.91" y1="-36.13" x2="87.11" y2="301.66"/><line class="cls-5" x1="427.59" y1="-33.45" x2="89.79" y2="304.35"/><line class="cls-5" x1="430.27" y1="-30.76" x2="92.48" y2="307.03"/><line class="cls-5" x1="432.96" y1="-28.08" x2="95.16" y2="309.72"/><line class="cls-5" x1="435.64" y1="-25.39" x2="97.85" y2="312.4"/><line class="cls-5" x1="438.33" y1="-22.71" x2="100.53" y2="315.09"/><line class="cls-5" x1="441.01" y1="-20.02" x2="103.22" y2="317.77"/><line class="cls-5" x1="443.7" y1="-17.34" x2="105.9" y2="320.46"/><line class="cls-5" x1="446.38" y1="-14.66" x2="108.58" y2="323.14"/><line class="cls-5" x1="449.06" y1="-11.97" x2="111.27" y2="325.82"/><line class="cls-5" x1="451.75" y1="-9.29" x2="113.95" y2="328.51"/><line class="cls-5" x1="454.43" y1="-6.6" x2="116.64" y2="331.19"/><line class="cls-5" x1="457.12" y1="-3.92" x2="119.32" y2="333.88"/><line class="cls-5" x1="459.8" y1="-1.23" x2="122.01" y2="336.56"/><line class="cls-5" x1="462.49" y1="1.45" x2="124.69" y2="339.25"/><line class="cls-5" x1="465.17" y1="4.13" x2="127.38" y2="341.93"/><line class="cls-5" x1="467.85" y1="6.82" x2="130.06" y2="344.61"/><line class="cls-5" x1="470.54" y1="9.5" x2="132.74" y2="347.3"/><line class="cls-5" x1="473.22" y1="12.19" x2="135.43" y2="349.98"/><line class="cls-5" x1="475.91" y1="14.87" x2="138.11" y2="352.67"/><line class="cls-5" x1="478.59" y1="17.56" x2="140.8" y2="355.35"/><line class="cls-5" x1="481.28" y1="20.24" x2="143.48" y2="358.04"/><line class="cls-5" x1="483.96" y1="22.93" x2="146.17" y2="360.72"/><line class="cls-5" x1="486.65" y1="25.61" x2="148.85" y2="363.41"/><line class="cls-5" x1="489.33" y1="28.29" x2="151.53" y2="366.09"/><line class="cls-5" x1="492.01" y1="30.98" x2="154.22" y2="368.77"/><line class="cls-5" x1="494.7" y1="33.66" x2="156.9" y2="371.46"/><line class="cls-5" x1="497.38" y1="36.35" x2="159.59" y2="374.14"/></g><g class="cls-6"><path class="cls-3" d="M271.48,178.57a50.61,50.61,0,0,0-39,49.51,48.33,48.33,0,0,0,14.76,35.87,49,49,0,0,0,28,14.35,109.63,109.63,0,0,0-3.68-99.73Z"/></g><g class="cls-7"><g class="cls-8"><line class="cls-5" x1="2.01" y1="334.67" x2="-389.28" y2="725.96"/><line class="cls-5" x1="5.12" y1="337.78" x2="-386.17" y2="729.07"/><line class="cls-5" x1="8.23" y1="340.89" x2="-383.06" y2="732.18"/><line class="cls-5" x1="11.34" y1="344" x2="-379.95" y2="735.29"/><line class="cls-5" x1="14.45" y1="347.11" x2="-376.84" y2="738.4"/><line class="cls-5" x1="17.56" y1="350.22" x2="-373.73" y2="741.51"/><line class="cls-5" x1="20.67" y1="353.33" x2="-370.62" y2="744.62"/><line class="cls-5" x1="23.78" y1="356.44" x2="-367.51" y2="747.73"/><line class="cls-5" x1="26.89" y1="359.55" x2="-364.4" y2="750.84"/><line class="cls-5" x1="30" y1="362.66" x2="-361.29" y2="753.95"/><line class="cls-5" x1="33.11" y1="365.77" x2="-358.18" y2="757.06"/><line class="cls-5" x1="36.22" y1="368.88" x2="-355.07" y2="760.17"/><line class="cls-5" x1="39.33" y1="371.99" x2="-351.96" y2="763.28"/><line class="cls-5" x1="42.43" y1="375.1" x2="-348.85" y2="766.39"/><line class="cls-5" x1="45.54" y1="378.21" x2="-345.75" y2="769.5"/><line class="cls-5" x1="48.65" y1="381.32" x2="-342.64" y2="772.61"/><line class="cls-5" x1="51.76" y1="384.43" x2="-339.53" y2="775.71"/><line class="cls-5" x1="54.87" y1="387.53" x2="-336.42" y2="778.82"/><line class="cls-5" x1="57.98" y1="390.64" x2="-333.31" y2="781.93"/><line class="cls-5" x1="61.09" y1="393.75" x2="-330.2" y2="785.04"/><line class="cls-5" x1="64.2" y1="396.86" x2="-327.09" y2="788.15"/><line class="cls-5" x1="67.31" y1="399.97" x2="-323.98" y2="791.26"/><line class="cls-5" x1="70.42" y1="403.08" x2="-320.87" y2="794.37"/><line class="cls-5" x1="73.53" y1="406.19" x2="-317.76" y2="797.48"/><line class="cls-5" x1="76.64" y1="409.3" x2="-314.65" y2="800.59"/><line class="cls-5" x1="79.75" y1="412.41" x2="-311.54" y2="803.7"/><line class="cls-5" x1="82.86" y1="415.52" x2="-308.43" y2="806.81"/><line class="cls-5" x1="85.97" y1="418.63" x2="-305.32" y2="809.92"/><line class="cls-5" x1="89.08" y1="421.74" x2="-302.21" y2="813.03"/><line class="cls-5" x1="92.19" y1="424.85" x2="-299.1" y2="816.14"/><line class="cls-5" x1="95.3" y1="427.96" x2="-295.99" y2="819.25"/><line class="cls-5" x1="98.41" y1="431.07" x2="-292.88" y2="822.36"/><line class="cls-5" x1="101.51" y1="434.18" x2="-289.77" y2="825.47"/><line class="cls-5" x1="104.62" y1="437.29" x2="-286.67" y2="828.58"/><line class="cls-5" x1="107.73" y1="440.4" x2="-283.56" y2="831.69"/><line class="cls-5" x1="110.84" y1="443.51" x2="-280.45" y2="834.79"/><line class="cls-5" x1="113.95" y1="446.61" x2="-277.34" y2="837.9"/><line class="cls-5" x1="117.06" y1="449.72" x2="-274.23" y2="841.01"/><line class="cls-5" x1="120.17" y1="452.83" x2="-271.12" y2="844.12"/><line class="cls-5" x1="123.28" y1="455.94" x2="-268.01" y2="847.23"/><line class="cls-5" x1="126.39" y1="459.05" x2="-264.9" y2="850.34"/><line class="cls-5" x1="129.5" y1="462.16" x2="-261.79" y2="853.45"/><line class="cls-5" x1="132.61" y1="465.27" x2="-258.68" y2="856.56"/><line class="cls-5" x1="135.72" y1="468.38" x2="-255.57" y2="859.67"/><line class="cls-5" x1="138.83" y1="471.49" x2="-252.46" y2="862.78"/><line class="cls-5" x1="141.94" y1="474.6" x2="-249.35" y2="865.89"/><line class="cls-5" x1="145.05" y1="477.71" x2="-246.24" y2="869"/></g></g></g></g></svg>