<svg xmlns="http://www.w3.org/2000/svg" xmlns:xlink="http://www.w3.org/1999/xlink" viewBox="0 0 480 480"><defs><style>.cls-1,.cls-6,.cls-7{fill:none;}.cls-2{isolation:isolate;}.cls-3,.cls-4{fill:#9fcfff;}.cls-4{mix-blend-mode:multiply;}.cls-5{clip-path:url(#clip-path);}.cls-6{opacity:0.4;}.cls-7{stroke:#565656;stroke-miterlimit:10;stroke-width:0.57px;}.cls-8{clip-path:url(#clip-path-2);}</style><clipPath id="clip-path"><path class="cls-1" d="M388.65,125.56a68.19,68.19,0,0,1,11.68,37.68c.24,39.16-31.49,70.41-70.73,70.64l-91.44.56,45.07-44.7-24.13-23.37L173.42,253.2l86.72,85.65L284,314.06,238.3,268.27l91.51-.56c57.94-.35,104.76-46.89,104.41-104.67-.14-23.55-8.2-44.4-21.45-61.84"/></clipPath><clipPath id="clip-path-2"><polygon class="cls-1" points="-432.57 930.3 -435.38 958.95 -310.4 835.89 -323.34 822.75 -323.37 822.78 -362.21 783.33 -486.92 906.12 -458.23 903.76 -432.35 930.04 -432.36 930.09 -432.57 930.3"/></clipPath></defs><title>ELS_Webshop_Illustrations_480px RGB</title><g class="cls-2"><g id="Illustrations"><rect class="cls-3" x="45.79" y="123.89" width="169.94" height="169.94"/><rect class="cls-4" x="130.75" y="208.86" width="169.94" height="169.94"/><g class="cls-5"><rect class="cls-6" x="156.06" y="84.72" width="295.65" height="271.02" transform="translate(-1.33 1.85) rotate(-0.35)"/><line class="cls-7" x1="541.04" y1="103.05" x2="149.75" y2="494.34"/><line class="cls-7" x1="544.14" y1="106.16" x2="152.86" y2="497.45"/><line class="cls-7" x1="547.25" y1="109.27" x2="155.96" y2="500.56"/><line class="cls-7" x1="550.36" y1="112.38" x2="159.07" y2="503.67"/><line class="cls-7" x1="553.47" y1="115.49" x2="162.18" y2="506.78"/><line class="cls-7" x1="556.58" y1="118.6" x2="165.29" y2="509.89"/><line class="cls-7" x1="559.69" y1="121.71" x2="168.4" y2="513"/><line class="cls-7" x1="562.8" y1="124.82" x2="171.51" y2="516.11"/><line class="cls-7" x1="565.91" y1="127.93" x2="174.62" y2="519.22"/><line class="cls-7" x1="569.02" y1="131.04" x2="177.73" y2="522.33"/><line class="cls-7" x1="572.13" y1="134.15" x2="180.84" y2="525.43"/><line class="cls-7" x1="575.24" y1="137.25" x2="183.95" y2="528.54"/><line class="cls-7" x1="578.35" y1="140.36" x2="187.06" y2="531.65"/><line class="cls-7" x1="581.46" y1="143.47" x2="190.17" y2="534.76"/><line class="cls-7" x1="584.57" y1="146.58" x2="193.28" y2="537.87"/><line class="cls-7" x1="587.68" y1="149.69" x2="196.39" y2="540.98"/><line class="cls-7" x1="590.79" y1="152.8" x2="199.5" y2="544.09"/><line class="cls-7" x1="593.9" y1="155.91" x2="202.61" y2="547.2"/><line class="cls-7" x1="597.01" y1="159.02" x2="205.72" y2="550.31"/><line class="cls-7" x1="600.12" y1="162.13" x2="208.83" y2="553.42"/><line class="cls-7" x1="603.22" y1="165.24" x2="211.94" y2="556.53"/><line class="cls-7" x1="606.33" y1="168.35" x2="215.04" y2="559.64"/><line class="cls-7" x1="609.44" y1="171.46" x2="218.15" y2="562.75"/><line class="cls-7" x1="612.55" y1="174.57" x2="221.26" y2="565.86"/><line class="cls-7" x1="615.66" y1="177.68" x2="224.37" y2="568.97"/><line class="cls-7" x1="618.77" y1="180.79" x2="227.48" y2="572.08"/><line class="cls-7" x1="621.88" y1="183.9" x2="230.59" y2="575.19"/><line class="cls-7" x1="624.99" y1="187.01" x2="233.7" y2="578.3"/><line class="cls-7" x1="628.1" y1="190.12" x2="236.81" y2="581.4"/><line class="cls-7" x1="631.21" y1="193.23" x2="239.92" y2="584.51"/><line class="cls-7" x1="634.32" y1="196.33" x2="243.03" y2="587.62"/><line class="cls-7" x1="637.43" y1="199.44" x2="246.14" y2="590.73"/><line class="cls-7" x1="640.54" y1="202.55" x2="249.25" y2="593.84"/><line class="cls-7" x1="643.65" y1="205.66" x2="252.36" y2="596.95"/><line class="cls-7" x1="646.76" y1="208.77" x2="255.47" y2="600.06"/><line class="cls-7" x1="649.87" y1="211.88" x2="258.58" y2="603.17"/><line class="cls-7" x1="652.98" y1="214.99" x2="261.69" y2="606.28"/><line class="cls-7" x1="656.09" y1="218.1" x2="264.8" y2="609.39"/><line class="cls-7" x1="659.19" y1="221.21" x2="267.91" y2="612.5"/><line class="cls-7" x1="662.3" y1="224.32" x2="271.02" y2="615.61"/><line class="cls-7" x1="665.41" y1="227.43" x2="274.12" y2="618.72"/><line class="cls-7" x1="668.52" y1="230.54" x2="277.23" y2="621.83"/><line class="cls-7" x1="671.63" y1="233.65" x2="280.34" y2="624.94"/><line class="cls-7" x1="674.74" y1="236.76" x2="283.45" y2="628.05"/><line class="cls-7" x1="677.85" y1="239.87" x2="286.56" y2="631.16"/><line class="cls-7" x1="680.96" y1="242.98" x2="289.67" y2="634.27"/><line class="cls-7" x1="684.07" y1="246.09" x2="292.78" y2="637.38"/><line class="cls-7" x1="687.18" y1="249.2" x2="295.89" y2="640.48"/><line class="cls-7" x1="690.29" y1="252.31" x2="299" y2="643.59"/><line class="cls-7" x1="693.4" y1="255.41" x2="302.11" y2="646.7"/><line class="cls-7" x1="696.51" y1="258.52" x2="305.22" y2="649.81"/><line class="cls-7" x1="699.62" y1="261.63" x2="308.33" y2="652.92"/><line class="cls-7" x1="702.73" y1="264.74" x2="311.44" y2="656.03"/><line class="cls-7" x1="705.84" y1="267.85" x2="314.55" y2="659.14"/><line class="cls-7" x1="708.95" y1="270.96" x2="317.66" y2="662.25"/><line class="cls-7" x1="712.06" y1="274.07" x2="320.77" y2="665.36"/><line class="cls-7" x1="715.17" y1="277.18" x2="323.88" y2="668.47"/><line class="cls-7" x1="718.27" y1="280.29" x2="326.99" y2="671.58"/><line class="cls-7" x1="368.33" y1="-84.88" x2="-22.96" y2="306.41"/><line class="cls-7" x1="371.44" y1="-81.77" x2="-19.85" y2="309.51"/><line class="cls-7" x1="374.54" y1="-78.67" x2="-16.74" y2="312.62"/><line class="cls-7" x1="377.65" y1="-75.56" x2="-13.64" y2="315.73"/><line class="cls-7" x1="380.76" y1="-72.45" x2="-10.53" y2="318.84"/><line class="cls-7" x1="383.87" y1="-69.34" x2="-7.42" y2="321.95"/><line class="cls-7" x1="386.98" y1="-66.23" x2="-4.31" y2="325.06"/><line class="cls-7" x1="390.09" y1="-63.12" x2="-1.2" y2="328.17"/><line class="cls-7" x1="393.2" y1="-60.01" x2="1.91" y2="331.28"/><line class="cls-7" x1="396.31" y1="-56.9" x2="5.02" y2="334.39"/><line class="cls-7" x1="399.42" y1="-53.79" x2="8.13" y2="337.5"/><line class="cls-7" x1="402.53" y1="-50.68" x2="11.24" y2="340.61"/><line class="cls-7" x1="405.64" y1="-47.57" x2="14.35" y2="343.72"/><line class="cls-7" x1="408.75" y1="-44.46" x2="17.46" y2="346.83"/><line class="cls-7" x1="411.86" y1="-41.35" x2="20.57" y2="349.94"/><line class="cls-7" x1="414.97" y1="-38.24" x2="23.68" y2="353.05"/><line class="cls-7" x1="418.08" y1="-35.13" x2="26.79" y2="356.16"/><line class="cls-7" x1="421.19" y1="-32.02" x2="29.9" y2="359.27"/><line class="cls-7" x1="424.3" y1="-28.91" x2="33.01" y2="362.38"/><line class="cls-7" x1="427.41" y1="-25.8" x2="36.12" y2="365.49"/><line class="cls-7" x1="430.52" y1="-22.69" x2="39.23" y2="368.59"/><line class="cls-7" x1="433.62" y1="-19.59" x2="42.34" y2="371.7"/><line class="cls-7" x1="436.73" y1="-16.48" x2="45.44" y2="374.81"/><line class="cls-7" x1="439.84" y1="-13.37" x2="48.55" y2="377.92"/><line class="cls-7" x1="442.95" y1="-10.26" x2="51.66" y2="381.03"/><line class="cls-7" x1="446.06" y1="-7.15" x2="54.77" y2="384.14"/><line class="cls-7" x1="449.17" y1="-4.04" x2="57.88" y2="387.25"/><line class="cls-7" x1="452.28" y1="-0.93" x2="60.99" y2="390.36"/><line class="cls-7" x1="455.39" y1="2.18" x2="64.1" y2="393.47"/><line class="cls-7" x1="458.5" y1="5.29" x2="67.21" y2="396.58"/><line class="cls-7" x1="461.61" y1="8.4" x2="70.32" y2="399.69"/><line class="cls-7" x1="464.72" y1="11.51" x2="73.43" y2="402.8"/><line class="cls-7" x1="467.83" y1="14.62" x2="76.54" y2="405.91"/><line class="cls-7" x1="470.94" y1="17.73" x2="79.65" y2="409.02"/><line class="cls-7" x1="474.05" y1="20.84" x2="82.76" y2="412.13"/><line class="cls-7" x1="477.16" y1="23.95" x2="85.87" y2="415.24"/><line class="cls-7" x1="480.27" y1="27.06" x2="88.98" y2="418.35"/><line class="cls-7" x1="483.38" y1="30.17" x2="92.09" y2="421.46"/><line class="cls-7" x1="486.49" y1="33.28" x2="95.2" y2="424.57"/><line class="cls-7" x1="489.59" y1="36.39" x2="98.31" y2="427.67"/><line class="cls-7" x1="492.7" y1="39.49" x2="101.42" y2="430.78"/><line class="cls-7" x1="495.81" y1="42.6" x2="104.52" y2="433.89"/><line class="cls-7" x1="498.92" y1="45.71" x2="107.63" y2="437"/><line class="cls-7" x1="502.03" y1="48.82" x2="110.74" y2="440.11"/><line class="cls-7" x1="505.14" y1="51.93" x2="113.85" y2="443.22"/><line class="cls-7" x1="508.25" y1="55.04" x2="116.96" y2="446.33"/><line class="cls-7" x1="511.36" y1="58.15" x2="120.07" y2="449.44"/><line class="cls-7" x1="514.47" y1="61.26" x2="123.18" y2="452.55"/><line class="cls-7" x1="517.58" y1="64.37" x2="126.29" y2="455.66"/><line class="cls-7" x1="520.69" y1="67.48" x2="129.4" y2="458.77"/><line class="cls-7" x1="523.8" y1="70.59" x2="132.51" y2="461.88"/><line class="cls-7" x1="526.91" y1="73.7" x2="135.62" y2="464.99"/><line class="cls-7" x1="530.02" y1="76.81" x2="138.73" y2="468.1"/><line class="cls-7" x1="533.13" y1="79.92" x2="141.84" y2="471.21"/><line class="cls-7" x1="536.24" y1="83.03" x2="144.95" y2="474.32"/><line class="cls-7" x1="539.35" y1="86.14" x2="148.06" y2="477.43"/><line class="cls-7" x1="542.46" y1="89.25" x2="151.17" y2="480.54"/><line class="cls-7" x1="545.57" y1="92.36" x2="154.28" y2="483.65"/><line class="cls-7" x1="195.62" y1="-272.82" x2="-195.67" y2="118.47"/><line class="cls-7" x1="198.73" y1="-269.71" x2="-192.56" y2="121.58"/><line class="cls-7" x1="201.84" y1="-266.6" x2="-189.45" y2="124.69"/><line class="cls-7" x1="204.94" y1="-263.49" x2="-186.34" y2="127.8"/><line class="cls-7" x1="208.05" y1="-260.38" x2="-183.24" y2="130.91"/><line class="cls-7" x1="211.16" y1="-257.27" x2="-180.13" y2="134.02"/><line class="cls-7" x1="214.27" y1="-254.16" x2="-177.02" y2="137.13"/><line class="cls-7" x1="217.38" y1="-251.05" x2="-173.91" y2="140.24"/><line class="cls-7" x1="220.49" y1="-247.94" x2="-170.8" y2="143.35"/><line class="cls-7" x1="223.6" y1="-244.83" x2="-167.69" y2="146.46"/><line class="cls-7" x1="226.71" y1="-241.72" x2="-164.58" y2="149.57"/><line class="cls-7" x1="229.82" y1="-238.61" x2="-161.47" y2="152.67"/><line class="cls-7" x1="232.93" y1="-235.51" x2="-158.36" y2="155.78"/><line class="cls-7" x1="236.04" y1="-232.4" x2="-155.25" y2="158.89"/><line class="cls-7" x1="239.15" y1="-229.29" x2="-152.14" y2="162"/><line class="cls-7" x1="242.26" y1="-226.18" x2="-149.03" y2="165.11"/><line class="cls-7" x1="245.37" y1="-223.07" x2="-145.92" y2="168.22"/><line class="cls-7" x1="248.48" y1="-219.96" x2="-142.81" y2="171.33"/><line class="cls-7" x1="251.59" y1="-216.85" x2="-139.7" y2="174.44"/><line class="cls-7" x1="254.7" y1="-213.74" x2="-136.59" y2="177.55"/><line class="cls-7" x1="257.81" y1="-210.63" x2="-133.48" y2="180.66"/><line class="cls-7" x1="260.91" y1="-207.52" x2="-130.37" y2="183.77"/><line class="cls-7" x1="264.02" y1="-204.41" x2="-127.26" y2="186.88"/><line class="cls-7" x1="267.13" y1="-201.3" x2="-124.16" y2="189.99"/><line class="cls-7" x1="270.24" y1="-198.19" x2="-121.05" y2="193.1"/><line class="cls-7" x1="273.35" y1="-195.08" x2="-117.94" y2="196.21"/><line class="cls-7" x1="276.46" y1="-191.97" x2="-114.83" y2="199.32"/><line class="cls-7" x1="279.57" y1="-188.86" x2="-111.72" y2="202.43"/><line class="cls-7" x1="282.68" y1="-185.75" x2="-108.61" y2="205.54"/><line class="cls-7" x1="285.79" y1="-182.64" x2="-105.5" y2="208.65"/><line class="cls-7" x1="288.9" y1="-179.53" x2="-102.39" y2="211.75"/><line class="cls-7" x1="292.01" y1="-176.43" x2="-99.28" y2="214.86"/><line class="cls-7" x1="295.12" y1="-173.32" x2="-96.17" y2="217.97"/><line class="cls-7" x1="298.23" y1="-170.21" x2="-93.06" y2="221.08"/><line class="cls-7" x1="301.34" y1="-167.1" x2="-89.95" y2="224.19"/><line class="cls-7" x1="304.45" y1="-163.99" x2="-86.84" y2="227.3"/><line class="cls-7" x1="307.56" y1="-160.88" x2="-83.73" y2="230.41"/><line class="cls-7" x1="310.67" y1="-157.77" x2="-80.62" y2="233.52"/><line class="cls-7" x1="313.78" y1="-154.66" x2="-77.51" y2="236.63"/><line class="cls-7" x1="316.89" y1="-151.55" x2="-74.4" y2="239.74"/><line class="cls-7" x1="319.99" y1="-148.44" x2="-71.29" y2="242.85"/><line class="cls-7" x1="323.1" y1="-145.33" x2="-68.18" y2="245.96"/><line class="cls-7" x1="326.21" y1="-142.22" x2="-65.08" y2="249.07"/><line class="cls-7" x1="329.32" y1="-139.11" x2="-61.97" y2="252.18"/><line class="cls-7" x1="332.43" y1="-136" x2="-58.86" y2="255.29"/><line class="cls-7" x1="335.54" y1="-132.89" x2="-55.75" y2="258.4"/><line class="cls-7" x1="338.65" y1="-129.78" x2="-52.64" y2="261.51"/><line class="cls-7" x1="341.76" y1="-126.67" x2="-49.53" y2="264.62"/><line class="cls-7" x1="344.87" y1="-123.56" x2="-46.42" y2="267.73"/><line class="cls-7" x1="347.98" y1="-120.45" x2="-43.31" y2="270.83"/><line class="cls-7" x1="351.09" y1="-117.35" x2="-40.2" y2="273.94"/><line class="cls-7" x1="354.2" y1="-114.24" x2="-37.09" y2="277.05"/><line class="cls-7" x1="357.31" y1="-111.13" x2="-33.98" y2="280.16"/><line class="cls-7" x1="360.42" y1="-108.02" x2="-30.87" y2="283.27"/><line class="cls-7" x1="363.53" y1="-104.91" x2="-27.76" y2="286.38"/><line class="cls-7" x1="366.64" y1="-101.8" x2="-24.65" y2="289.49"/><line class="cls-7" x1="369.75" y1="-98.69" x2="-21.54" y2="292.6"/><line class="cls-7" x1="372.86" y1="-95.58" x2="-18.43" y2="295.71"/></g></g></g></svg>