<svg xmlns="http://www.w3.org/2000/svg" xmlns:xlink="http://www.w3.org/1999/xlink" viewBox="0 0 480 480"><defs><style>.cls-1,.cls-4{fill:none;}.cls-2{isolation:isolate;}.cls-3{clip-path:url(#clip-path);}.cls-4{stroke:#565656;stroke-miterlimit:10;stroke-width:0.57px;}.cls-5,.cls-6{fill:#fdd300;}.cls-6{mix-blend-mode:multiply;}.cls-7{clip-path:url(#clip-path-2);}</style><clipPath id="clip-path"><polygon class="cls-1" points="-313.03 278.91 -311.8 228.1 -394.92 230.05 -271.62 106.75 -306.7 71.67 -430.38 195.36 -428.42 111.49 -479.23 112.71 -483.2 282.88 -313.03 278.91"/></clipPath><clipPath id="clip-path-2"><polygon class="cls-1" points="366.97 278.91 368.2 228.1 285.08 230.05 408.38 106.75 373.3 71.67 249.62 195.36 251.58 111.49 200.77 112.71 196.8 282.88 366.97 278.91"/></clipPath></defs><title>ELS_Webshop_Illustrations_480px RGB</title><g class="cls-2"><g id="Illustrations"><g class="cls-3"><line class="cls-4" x1="1.18" y1="208.89" x2="-390.11" y2="600.18"/><line class="cls-4" x1="4.29" y1="212" x2="-387" y2="603.29"/><line class="cls-4" x1="7.4" y1="215.11" x2="-383.89" y2="606.4"/><line class="cls-4" x1="10.51" y1="218.22" x2="-380.78" y2="609.51"/><line class="cls-4" x1="13.62" y1="221.33" x2="-377.67" y2="612.62"/><line class="cls-4" x1="16.73" y1="224.44" x2="-374.56" y2="615.73"/><line class="cls-4" x1="19.84" y1="227.55" x2="-371.45" y2="618.84"/><line class="cls-4" x1="22.95" y1="230.66" x2="-368.34" y2="621.95"/><line class="cls-4" x1="26.05" y1="233.77" x2="-365.23" y2="625.06"/><line class="cls-4" x1="29.16" y1="236.88" x2="-362.12" y2="628.17"/><line class="cls-4" x1="32.27" y1="239.99" x2="-359.02" y2="631.28"/><line class="cls-4" x1="35.38" y1="243.1" x2="-355.91" y2="634.39"/></g><circle class="cls-5" cx="195.97" cy="283.98" r="124.34"/><circle class="cls-6" cx="195.97" cy="283.98" r="68.38"/><g class="cls-7"><line class="cls-4" x1="538.14" y1="65.86" x2="146.85" y2="457.15"/><line class="cls-4" x1="541.25" y1="68.97" x2="149.96" y2="460.26"/><line class="cls-4" x1="544.36" y1="72.08" x2="153.07" y2="463.36"/><line class="cls-4" x1="547.47" y1="75.18" x2="156.18" y2="466.47"/><line class="cls-4" x1="550.58" y1="78.29" x2="159.29" y2="469.58"/><line class="cls-4" x1="553.69" y1="81.4" x2="162.4" y2="472.69"/><line class="cls-4" x1="556.8" y1="84.51" x2="165.51" y2="475.8"/><line class="cls-4" x1="559.91" y1="87.62" x2="168.62" y2="478.91"/><line class="cls-4" x1="563.02" y1="90.73" x2="171.73" y2="482.02"/><line class="cls-4" x1="566.13" y1="93.84" x2="174.84" y2="485.13"/><line class="cls-4" x1="569.24" y1="96.95" x2="177.95" y2="488.24"/><line class="cls-4" x1="572.35" y1="100.06" x2="181.06" y2="491.35"/><line class="cls-4" x1="575.46" y1="103.17" x2="184.17" y2="494.46"/><line class="cls-4" x1="578.57" y1="106.28" x2="187.28" y2="497.57"/><line class="cls-4" x1="581.68" y1="109.39" x2="190.39" y2="500.68"/><line class="cls-4" x1="584.79" y1="112.5" x2="193.5" y2="503.79"/><line class="cls-4" x1="587.9" y1="115.61" x2="196.61" y2="506.9"/><line class="cls-4" x1="591" y1="118.72" x2="199.72" y2="510.01"/><line class="cls-4" x1="594.11" y1="121.83" x2="202.82" y2="513.12"/><line class="cls-4" x1="597.22" y1="124.94" x2="205.93" y2="516.23"/><line class="cls-4" x1="600.33" y1="128.05" x2="209.04" y2="519.34"/><line class="cls-4" x1="603.44" y1="131.16" x2="212.15" y2="522.44"/><line class="cls-4" x1="606.55" y1="134.26" x2="215.26" y2="525.55"/><line class="cls-4" x1="609.66" y1="137.37" x2="218.37" y2="528.66"/><line class="cls-4" x1="612.77" y1="140.48" x2="221.48" y2="531.77"/><line class="cls-4" x1="615.88" y1="143.59" x2="224.59" y2="534.88"/><line class="cls-4" x1="618.99" y1="146.7" x2="227.7" y2="537.99"/><line class="cls-4" x1="622.1" y1="149.81" x2="230.81" y2="541.1"/><line class="cls-4" x1="625.21" y1="152.92" x2="233.92" y2="544.21"/><line class="cls-4" x1="628.32" y1="156.03" x2="237.03" y2="547.32"/><line class="cls-4" x1="631.43" y1="159.14" x2="240.14" y2="550.43"/><line class="cls-4" x1="634.54" y1="162.25" x2="243.25" y2="553.54"/><line class="cls-4" x1="637.65" y1="165.36" x2="246.36" y2="556.65"/><line class="cls-4" x1="640.76" y1="168.47" x2="249.47" y2="559.76"/><line class="cls-4" x1="643.87" y1="171.58" x2="252.58" y2="562.87"/><line class="cls-4" x1="646.97" y1="174.69" x2="255.69" y2="565.98"/><line class="cls-4" x1="650.08" y1="177.8" x2="258.8" y2="569.09"/><line class="cls-4" x1="653.19" y1="180.91" x2="261.9" y2="572.2"/><line class="cls-4" x1="656.3" y1="184.02" x2="265.01" y2="575.31"/><line class="cls-4" x1="659.41" y1="187.13" x2="268.12" y2="578.42"/><line class="cls-4" x1="662.52" y1="190.24" x2="271.23" y2="581.52"/><line class="cls-4" x1="665.63" y1="193.34" x2="274.34" y2="584.63"/><line class="cls-4" x1="668.74" y1="196.45" x2="277.45" y2="587.74"/><line class="cls-4" x1="671.85" y1="199.56" x2="280.56" y2="590.85"/><line class="cls-4" x1="674.96" y1="202.67" x2="283.67" y2="593.96"/><line class="cls-4" x1="678.07" y1="205.78" x2="286.78" y2="597.07"/><line class="cls-4" x1="681.18" y1="208.89" x2="289.89" y2="600.18"/><line class="cls-4" x1="684.29" y1="212" x2="293" y2="603.29"/><line class="cls-4" x1="687.4" y1="215.11" x2="296.11" y2="606.4"/><line class="cls-4" x1="690.51" y1="218.22" x2="299.22" y2="609.51"/><line class="cls-4" x1="693.62" y1="221.33" x2="302.33" y2="612.62"/><line class="cls-4" x1="696.73" y1="224.44" x2="305.44" y2="615.73"/><line class="cls-4" x1="699.84" y1="227.55" x2="308.55" y2="618.84"/><line class="cls-4" x1="702.95" y1="230.66" x2="311.66" y2="621.95"/><line class="cls-4" x1="706.05" y1="233.77" x2="314.77" y2="625.06"/><line class="cls-4" x1="709.16" y1="236.88" x2="317.88" y2="628.17"/><line class="cls-4" x1="712.27" y1="239.99" x2="320.98" y2="631.28"/><line class="cls-4" x1="715.38" y1="243.1" x2="324.09" y2="634.39"/><line class="cls-4" x1="365.43" y1="-122.08" x2="-25.86" y2="269.21"/><line class="cls-4" x1="368.54" y1="-118.97" x2="-22.75" y2="272.32"/><line class="cls-4" x1="371.65" y1="-115.86" x2="-19.64" y2="275.43"/><line class="cls-4" x1="374.76" y1="-112.75" x2="-16.53" y2="278.54"/><line class="cls-4" x1="377.87" y1="-109.64" x2="-13.42" y2="281.65"/><line class="cls-4" x1="380.98" y1="-106.53" x2="-10.31" y2="284.76"/><line class="cls-4" x1="384.09" y1="-103.42" x2="-7.2" y2="287.87"/><line class="cls-4" x1="387.2" y1="-100.31" x2="-4.09" y2="290.98"/><line class="cls-4" x1="390.31" y1="-97.2" x2="-0.98" y2="294.09"/><line class="cls-4" x1="393.42" y1="-94.09" x2="2.13" y2="297.2"/><line class="cls-4" x1="396.53" y1="-90.98" x2="5.24" y2="300.31"/><line class="cls-4" x1="399.64" y1="-87.87" x2="8.35" y2="303.42"/><line class="cls-4" x1="402.75" y1="-84.76" x2="11.46" y2="306.53"/><line class="cls-4" x1="405.86" y1="-81.65" x2="14.57" y2="309.63"/><line class="cls-4" x1="408.97" y1="-78.55" x2="17.68" y2="312.74"/><line class="cls-4" x1="412.08" y1="-75.44" x2="20.79" y2="315.85"/><line class="cls-4" x1="415.19" y1="-72.33" x2="23.9" y2="318.96"/><line class="cls-4" x1="418.3" y1="-69.22" x2="27.01" y2="322.07"/><line class="cls-4" x1="421.4" y1="-66.11" x2="30.12" y2="325.18"/><line class="cls-4" x1="424.51" y1="-63" x2="33.22" y2="328.29"/><line class="cls-4" x1="427.62" y1="-59.89" x2="36.33" y2="331.4"/><line class="cls-4" x1="430.73" y1="-56.78" x2="39.44" y2="334.51"/><line class="cls-4" x1="433.84" y1="-53.67" x2="42.55" y2="337.62"/><line class="cls-4" x1="436.95" y1="-50.56" x2="45.66" y2="340.73"/><line class="cls-4" x1="440.06" y1="-47.45" x2="48.77" y2="343.84"/><line class="cls-4" x1="443.17" y1="-44.34" x2="51.88" y2="346.95"/><line class="cls-4" x1="446.28" y1="-41.23" x2="54.99" y2="350.06"/><line class="cls-4" x1="449.39" y1="-38.12" x2="58.1" y2="353.17"/><line class="cls-4" x1="452.5" y1="-35.01" x2="61.21" y2="356.28"/><line class="cls-4" x1="455.61" y1="-31.9" x2="64.32" y2="359.39"/><line class="cls-4" x1="458.72" y1="-28.79" x2="67.43" y2="362.5"/><line class="cls-4" x1="461.83" y1="-25.68" x2="70.54" y2="365.6"/><line class="cls-4" x1="464.94" y1="-22.57" x2="73.65" y2="368.71"/><line class="cls-4" x1="468.05" y1="-19.47" x2="76.76" y2="371.82"/><line class="cls-4" x1="471.16" y1="-16.36" x2="79.87" y2="374.93"/><line class="cls-4" x1="474.27" y1="-13.25" x2="82.98" y2="378.04"/><line class="cls-4" x1="477.37" y1="-10.14" x2="86.09" y2="381.15"/><line class="cls-4" x1="480.48" y1="-7.03" x2="89.2" y2="384.26"/><line class="cls-4" x1="483.59" y1="-3.92" x2="92.3" y2="387.37"/><line class="cls-4" x1="486.7" y1="-0.81" x2="95.41" y2="390.48"/><line class="cls-4" x1="489.81" y1="2.3" x2="98.52" y2="393.59"/><line class="cls-4" x1="492.92" y1="5.41" x2="101.63" y2="396.7"/><line class="cls-4" x1="496.03" y1="8.52" x2="104.74" y2="399.81"/><line class="cls-4" x1="499.14" y1="11.63" x2="107.85" y2="402.92"/><line class="cls-4" x1="502.25" y1="14.74" x2="110.96" y2="406.03"/><line class="cls-4" x1="505.36" y1="17.85" x2="114.07" y2="409.14"/><line class="cls-4" x1="508.47" y1="20.96" x2="117.18" y2="412.25"/><line class="cls-4" x1="511.58" y1="24.07" x2="120.29" y2="415.36"/><line class="cls-4" x1="514.69" y1="27.18" x2="123.4" y2="418.47"/><line class="cls-4" x1="517.8" y1="30.29" x2="126.51" y2="421.58"/><line class="cls-4" x1="520.91" y1="33.4" x2="129.62" y2="424.68"/><line class="cls-4" x1="524.02" y1="36.51" x2="132.73" y2="427.79"/><line class="cls-4" x1="527.13" y1="39.61" x2="135.84" y2="430.9"/><line class="cls-4" x1="530.24" y1="42.72" x2="138.95" y2="434.01"/><line class="cls-4" x1="533.35" y1="45.83" x2="142.06" y2="437.12"/><line class="cls-4" x1="536.45" y1="48.94" x2="145.17" y2="440.23"/><line class="cls-4" x1="539.56" y1="52.05" x2="148.28" y2="443.34"/><line class="cls-4" x1="542.67" y1="55.16" x2="151.38" y2="446.45"/><line class="cls-4" x1="192.72" y1="-310.01" x2="-198.56" y2="81.28"/><line class="cls-4" x1="195.83" y1="-306.9" x2="-195.46" y2="84.39"/><line class="cls-4" x1="198.94" y1="-303.79" x2="-192.35" y2="87.5"/><line class="cls-4" x1="202.05" y1="-300.68" x2="-189.24" y2="90.61"/><line class="cls-4" x1="205.16" y1="-297.57" x2="-186.13" y2="93.71"/><line class="cls-4" x1="208.27" y1="-294.47" x2="-183.02" y2="96.82"/><line class="cls-4" x1="211.38" y1="-291.36" x2="-179.91" y2="99.93"/><line class="cls-4" x1="214.49" y1="-288.25" x2="-176.8" y2="103.04"/><line class="cls-4" x1="217.6" y1="-285.14" x2="-173.69" y2="106.15"/><line class="cls-4" x1="220.71" y1="-282.03" x2="-170.58" y2="109.26"/><line class="cls-4" x1="223.82" y1="-278.92" x2="-167.47" y2="112.37"/><line class="cls-4" x1="226.93" y1="-275.81" x2="-164.36" y2="115.48"/><line class="cls-4" x1="230.04" y1="-272.7" x2="-161.25" y2="118.59"/><line class="cls-4" x1="233.15" y1="-269.59" x2="-158.14" y2="121.7"/><line class="cls-4" x1="236.26" y1="-266.48" x2="-155.03" y2="124.81"/><line class="cls-4" x1="239.37" y1="-263.37" x2="-151.92" y2="127.92"/><line class="cls-4" x1="242.48" y1="-260.26" x2="-148.81" y2="131.03"/><line class="cls-4" x1="245.59" y1="-257.15" x2="-145.7" y2="134.14"/><line class="cls-4" x1="248.7" y1="-254.04" x2="-142.59" y2="137.25"/><line class="cls-4" x1="251.8" y1="-250.93" x2="-139.48" y2="140.36"/><line class="cls-4" x1="254.91" y1="-247.82" x2="-136.38" y2="143.47"/><line class="cls-4" x1="258.02" y1="-244.71" x2="-133.27" y2="146.58"/><line class="cls-4" x1="261.13" y1="-241.6" x2="-130.16" y2="149.69"/><line class="cls-4" x1="264.24" y1="-238.49" x2="-127.05" y2="152.79"/><line class="cls-4" x1="267.35" y1="-235.39" x2="-123.94" y2="155.9"/><line class="cls-4" x1="270.46" y1="-232.28" x2="-120.83" y2="159.01"/><line class="cls-4" x1="273.57" y1="-229.17" x2="-117.72" y2="162.12"/><line class="cls-4" x1="276.68" y1="-226.06" x2="-114.61" y2="165.23"/><line class="cls-4" x1="279.79" y1="-222.95" x2="-111.5" y2="168.34"/><line class="cls-4" x1="282.9" y1="-219.84" x2="-108.39" y2="171.45"/><line class="cls-4" x1="286.01" y1="-216.73" x2="-105.28" y2="174.56"/><line class="cls-4" x1="289.12" y1="-213.62" x2="-102.17" y2="177.67"/><line class="cls-4" x1="292.23" y1="-210.51" x2="-99.06" y2="180.78"/><line class="cls-4" x1="295.34" y1="-207.4" x2="-95.95" y2="183.89"/><line class="cls-4" x1="298.45" y1="-204.29" x2="-92.84" y2="187"/><line class="cls-4" x1="301.56" y1="-201.18" x2="-89.73" y2="190.11"/><line class="cls-4" x1="304.67" y1="-198.07" x2="-86.62" y2="193.22"/><line class="cls-4" x1="307.77" y1="-194.96" x2="-83.51" y2="196.33"/><line class="cls-4" x1="310.88" y1="-191.85" x2="-80.4" y2="199.44"/><line class="cls-4" x1="313.99" y1="-188.74" x2="-77.3" y2="202.55"/><line class="cls-4" x1="317.1" y1="-185.63" x2="-74.19" y2="205.66"/><line class="cls-4" x1="320.21" y1="-182.52" x2="-71.08" y2="208.77"/><line class="cls-4" x1="323.32" y1="-179.41" x2="-67.97" y2="211.87"/><line class="cls-4" x1="326.43" y1="-176.31" x2="-64.86" y2="214.98"/><line class="cls-4" x1="329.54" y1="-173.2" x2="-61.75" y2="218.09"/><line class="cls-4" x1="332.65" y1="-170.09" x2="-58.64" y2="221.2"/><line class="cls-4" x1="335.76" y1="-166.98" x2="-55.53" y2="224.31"/><line class="cls-4" x1="338.87" y1="-163.87" x2="-52.42" y2="227.42"/><line class="cls-4" x1="341.98" y1="-160.76" x2="-49.31" y2="230.53"/><line class="cls-4" x1="345.09" y1="-157.65" x2="-46.2" y2="233.64"/><line class="cls-4" x1="348.2" y1="-154.54" x2="-43.09" y2="236.75"/><line class="cls-4" x1="351.31" y1="-151.43" x2="-39.98" y2="239.86"/><line class="cls-4" x1="354.42" y1="-148.32" x2="-36.87" y2="242.97"/><line class="cls-4" x1="357.53" y1="-145.21" x2="-33.76" y2="246.08"/><line class="cls-4" x1="360.64" y1="-142.1" x2="-30.65" y2="249.19"/><line class="cls-4" x1="363.75" y1="-138.99" x2="-27.54" y2="252.3"/><line class="cls-4" x1="366.85" y1="-135.88" x2="-24.43" y2="255.41"/><line class="cls-4" x1="369.96" y1="-132.77" x2="-21.32" y2="258.52"/></g></g></g></svg>