<svg xmlns="http://www.w3.org/2000/svg" xmlns:xlink="http://www.w3.org/1999/xlink" viewBox="0 0 480 480"><defs><style>.cls-1,.cls-6{fill:none;}.cls-2{isolation:isolate;}.cls-3,.cls-4{fill:#c0f25d;}.cls-4{mix-blend-mode:multiply;}.cls-5{clip-path:url(#clip-path);}.cls-6{stroke:#565656;stroke-miterlimit:10;stroke-width:0.57px;}.cls-7{clip-path:url(#clip-path-2);}</style><clipPath id="clip-path"><path class="cls-1" d="M289.31,372.39a27,27,0,1,1,26.9-27A27,27,0,0,1,289.31,372.39Zm-148-81a27,27,0,1,1,26.9-27A27,27,0,0,1,141.36,291.37Zm148-135a27,27,0,1,1-26.9,27A27,27,0,0,1,289.31,156.32Zm0,139.55a49.08,49.08,0,0,0-36.94,16.82l-63.73-34.38a49,49,0,0,0,0-27.9L252.38,216a50,50,0,1,0-10.63-19.82l-64.19,34.63a49.52,49.52,0,1,0,0,67l64.19,34.63a49.27,49.27,0,1,0,47.57-36.63Z"/></clipPath><clipPath id="clip-path-2"><path class="cls-1" d="M-491.8,207.21c17.92,14.25,35.28,27.91,52.63,42.14,33.84-42.55,67.68-85.11,101.5-127.09,7.28,5.93,14.57,11.29,22.41,17.24L-434.57,289c-24.62-20.16-49.83-39.77-74.45-59.93C-503.09,221.78-497.73,214.48-491.8,207.21Z"/></clipPath></defs><title>ELS_Webshop_Illustrations_480px RGB</title><g class="cls-2"><g id="Illustrations"><circle class="cls-3" cx="290.01" cy="183.04" r="97.94" transform="translate(-29.74 307.02) rotate(-53.45)"/><circle class="cls-4" cx="290.01" cy="183.04" r="49.03" transform="translate(-41.78 269.79) rotate(-46.91)"/><g class="cls-5"><line class="cls-6" x1="607.21" y1="237.48" x2="215.92" y2="628.77"/><line class="cls-6" x1="610.32" y1="240.59" x2="219.03" y2="631.88"/><line class="cls-6" x1="613.43" y1="243.7" x2="222.14" y2="634.99"/><line class="cls-6" x1="616.54" y1="246.81" x2="225.25" y2="638.1"/><line class="cls-6" x1="619.64" y1="249.92" x2="228.36" y2="641.21"/><line class="cls-6" x1="622.75" y1="253.03" x2="231.46" y2="644.32"/><line class="cls-6" x1="625.86" y1="256.14" x2="234.57" y2="647.43"/><line class="cls-6" x1="628.97" y1="259.25" x2="237.68" y2="650.54"/><line class="cls-6" x1="632.08" y1="262.36" x2="240.79" y2="653.65"/><line class="cls-6" x1="635.19" y1="265.47" x2="243.9" y2="656.76"/><line class="cls-6" x1="638.3" y1="268.58" x2="247.01" y2="659.87"/><line class="cls-6" x1="641.41" y1="271.69" x2="250.12" y2="662.98"/><line class="cls-6" x1="644.52" y1="274.8" x2="253.23" y2="666.09"/><line class="cls-6" x1="647.63" y1="277.91" x2="256.34" y2="669.2"/><line class="cls-6" x1="650.74" y1="281.02" x2="259.45" y2="672.31"/><line class="cls-6" x1="653.85" y1="284.13" x2="262.56" y2="675.41"/><line class="cls-6" x1="656.96" y1="287.23" x2="265.67" y2="678.52"/><line class="cls-6" x1="660.07" y1="290.34" x2="268.78" y2="681.63"/><line class="cls-6" x1="663.18" y1="293.45" x2="271.89" y2="684.74"/><line class="cls-6" x1="666.29" y1="296.56" x2="275" y2="687.85"/><line class="cls-6" x1="669.4" y1="299.67" x2="278.11" y2="690.96"/><line class="cls-6" x1="672.51" y1="302.78" x2="281.22" y2="694.07"/><line class="cls-6" x1="675.62" y1="305.89" x2="284.33" y2="697.18"/><line class="cls-6" x1="678.72" y1="309" x2="287.44" y2="700.29"/><line class="cls-6" x1="681.83" y1="312.11" x2="290.54" y2="703.4"/><line class="cls-6" x1="684.94" y1="315.22" x2="293.65" y2="706.51"/><line class="cls-6" x1="688.05" y1="318.33" x2="296.76" y2="709.62"/><line class="cls-6" x1="691.16" y1="321.44" x2="299.87" y2="712.73"/><line class="cls-6" x1="694.27" y1="324.55" x2="302.98" y2="715.84"/><line class="cls-6" x1="697.38" y1="327.66" x2="306.09" y2="718.95"/><line class="cls-6" x1="700.49" y1="330.77" x2="309.2" y2="722.06"/><line class="cls-6" x1="703.6" y1="333.88" x2="312.31" y2="725.17"/><line class="cls-6" x1="706.71" y1="336.99" x2="315.42" y2="728.28"/><line class="cls-6" x1="709.82" y1="340.1" x2="318.53" y2="731.39"/><line class="cls-6" x1="712.93" y1="343.21" x2="321.64" y2="734.49"/><line class="cls-6" x1="716.04" y1="346.31" x2="324.75" y2="737.6"/><line class="cls-6" x1="719.15" y1="349.42" x2="327.86" y2="740.71"/><line class="cls-6" x1="722.26" y1="352.53" x2="330.97" y2="743.82"/><line class="cls-6" x1="725.37" y1="355.64" x2="334.08" y2="746.93"/><line class="cls-6" x1="728.48" y1="358.75" x2="337.19" y2="750.04"/><line class="cls-6" x1="731.59" y1="361.86" x2="340.3" y2="753.15"/><line class="cls-6" x1="734.7" y1="364.97" x2="343.41" y2="756.26"/><line class="cls-6" x1="737.8" y1="368.08" x2="346.52" y2="759.37"/><line class="cls-6" x1="740.91" y1="371.19" x2="349.62" y2="762.48"/><line class="cls-6" x1="744.02" y1="374.3" x2="352.73" y2="765.59"/><line class="cls-6" x1="747.13" y1="377.41" x2="355.84" y2="768.7"/><line class="cls-6" x1="750.24" y1="380.52" x2="358.95" y2="771.81"/><line class="cls-6" x1="753.35" y1="383.63" x2="362.06" y2="774.92"/><line class="cls-6" x1="756.46" y1="386.74" x2="365.17" y2="778.03"/><line class="cls-6" x1="759.57" y1="389.85" x2="368.28" y2="781.14"/><line class="cls-6" x1="762.68" y1="392.96" x2="371.39" y2="784.25"/><line class="cls-6" x1="765.79" y1="396.07" x2="374.5" y2="787.36"/><line class="cls-6" x1="768.9" y1="399.18" x2="377.61" y2="790.47"/><line class="cls-6" x1="772.01" y1="402.29" x2="380.72" y2="793.57"/><line class="cls-6" x1="775.12" y1="405.39" x2="383.83" y2="796.68"/><line class="cls-6" x1="778.23" y1="408.5" x2="386.94" y2="799.79"/><line class="cls-6" x1="781.34" y1="411.61" x2="390.05" y2="802.9"/><line class="cls-6" x1="784.45" y1="414.72" x2="393.16" y2="806.01"/><line class="cls-6" x1="434.5" y1="49.55" x2="43.21" y2="440.84"/><line class="cls-6" x1="437.61" y1="52.66" x2="46.32" y2="443.95"/><line class="cls-6" x1="440.72" y1="55.77" x2="49.43" y2="447.06"/><line class="cls-6" x1="443.83" y1="58.88" x2="52.54" y2="450.17"/><line class="cls-6" x1="446.94" y1="61.99" x2="55.65" y2="453.28"/><line class="cls-6" x1="450.04" y1="65.1" x2="58.76" y2="456.39"/><line class="cls-6" x1="453.15" y1="68.21" x2="61.86" y2="459.5"/><line class="cls-6" x1="456.26" y1="71.32" x2="64.97" y2="462.6"/><line class="cls-6" x1="459.37" y1="74.42" x2="68.08" y2="465.71"/><line class="cls-6" x1="462.48" y1="77.53" x2="71.19" y2="468.82"/><line class="cls-6" x1="465.59" y1="80.64" x2="74.3" y2="471.93"/><line class="cls-6" x1="468.7" y1="83.75" x2="77.41" y2="475.04"/><line class="cls-6" x1="471.81" y1="86.86" x2="80.52" y2="478.15"/><line class="cls-6" x1="474.92" y1="89.97" x2="83.63" y2="481.26"/><line class="cls-6" x1="478.03" y1="93.08" x2="86.74" y2="484.37"/><line class="cls-6" x1="481.14" y1="96.19" x2="89.85" y2="487.48"/><line class="cls-6" x1="484.25" y1="99.3" x2="92.96" y2="490.59"/><line class="cls-6" x1="487.36" y1="102.41" x2="96.07" y2="493.7"/><line class="cls-6" x1="490.47" y1="105.52" x2="99.18" y2="496.81"/><line class="cls-6" x1="493.58" y1="108.63" x2="102.29" y2="499.92"/><line class="cls-6" x1="496.69" y1="111.74" x2="105.4" y2="503.03"/><line class="cls-6" x1="499.8" y1="114.85" x2="108.51" y2="506.14"/><line class="cls-6" x1="502.91" y1="117.96" x2="111.62" y2="509.25"/><line class="cls-6" x1="506.02" y1="121.07" x2="114.73" y2="512.36"/><line class="cls-6" x1="509.12" y1="124.18" x2="117.84" y2="515.47"/><line class="cls-6" x1="512.23" y1="127.29" x2="120.94" y2="518.58"/><line class="cls-6" x1="515.34" y1="130.4" x2="124.05" y2="521.68"/><line class="cls-6" x1="518.45" y1="133.5" x2="127.16" y2="524.79"/><line class="cls-6" x1="521.56" y1="136.61" x2="130.27" y2="527.9"/><line class="cls-6" x1="524.67" y1="139.72" x2="133.38" y2="531.01"/><line class="cls-6" x1="527.78" y1="142.83" x2="136.49" y2="534.12"/><line class="cls-6" x1="530.89" y1="145.94" x2="139.6" y2="537.23"/><line class="cls-6" x1="534" y1="149.05" x2="142.71" y2="540.34"/><line class="cls-6" x1="537.11" y1="152.16" x2="145.82" y2="543.45"/><line class="cls-6" x1="540.22" y1="155.27" x2="148.93" y2="546.56"/><line class="cls-6" x1="543.33" y1="158.38" x2="152.04" y2="549.67"/><line class="cls-6" x1="546.44" y1="161.49" x2="155.15" y2="552.78"/><line class="cls-6" x1="549.55" y1="164.6" x2="158.26" y2="555.89"/><line class="cls-6" x1="552.66" y1="167.71" x2="161.37" y2="559"/><line class="cls-6" x1="555.77" y1="170.82" x2="164.48" y2="562.11"/><line class="cls-6" x1="558.88" y1="173.93" x2="167.59" y2="565.22"/><line class="cls-6" x1="561.99" y1="177.04" x2="170.7" y2="568.33"/><line class="cls-6" x1="565.09" y1="180.15" x2="173.81" y2="571.44"/><line class="cls-6" x1="568.2" y1="183.26" x2="176.92" y2="574.55"/><line class="cls-6" x1="571.31" y1="186.37" x2="180.02" y2="577.66"/><line class="cls-6" x1="574.42" y1="189.48" x2="183.13" y2="580.76"/><line class="cls-6" x1="577.53" y1="192.58" x2="186.24" y2="583.87"/><line class="cls-6" x1="580.64" y1="195.69" x2="189.35" y2="586.98"/><line class="cls-6" x1="583.75" y1="198.8" x2="192.46" y2="590.09"/><line class="cls-6" x1="586.86" y1="201.91" x2="195.57" y2="593.2"/><line class="cls-6" x1="589.97" y1="205.02" x2="198.68" y2="596.31"/><line class="cls-6" x1="593.08" y1="208.13" x2="201.79" y2="599.42"/><line class="cls-6" x1="596.19" y1="211.24" x2="204.9" y2="602.53"/><line class="cls-6" x1="599.3" y1="214.35" x2="208.01" y2="605.64"/><line class="cls-6" x1="602.41" y1="217.46" x2="211.12" y2="608.75"/><line class="cls-6" x1="605.52" y1="220.57" x2="214.23" y2="611.86"/><line class="cls-6" x1="608.63" y1="223.68" x2="217.34" y2="614.97"/><line class="cls-6" x1="611.74" y1="226.79" x2="220.45" y2="618.08"/><line class="cls-6" x1="261.79" y1="-138.39" x2="-129.5" y2="252.9"/><line class="cls-6" x1="264.9" y1="-135.28" x2="-126.39" y2="256.01"/><line class="cls-6" x1="268.01" y1="-132.17" x2="-123.28" y2="259.12"/><line class="cls-6" x1="271.12" y1="-129.06" x2="-120.17" y2="262.23"/><line class="cls-6" x1="274.23" y1="-125.95" x2="-117.06" y2="265.34"/><line class="cls-6" x1="277.34" y1="-122.84" x2="-113.95" y2="268.45"/><line class="cls-6" x1="280.44" y1="-119.73" x2="-110.84" y2="271.56"/><line class="cls-6" x1="283.55" y1="-116.62" x2="-107.74" y2="274.67"/><line class="cls-6" x1="286.66" y1="-113.51" x2="-104.63" y2="277.78"/><line class="cls-6" x1="289.77" y1="-110.4" x2="-101.52" y2="280.89"/><line class="cls-6" x1="292.88" y1="-107.29" x2="-98.41" y2="284"/><line class="cls-6" x1="295.99" y1="-104.18" x2="-95.3" y2="287.11"/><line class="cls-6" x1="299.1" y1="-101.07" x2="-92.19" y2="290.22"/><line class="cls-6" x1="302.21" y1="-97.96" x2="-89.08" y2="293.33"/><line class="cls-6" x1="305.32" y1="-94.85" x2="-85.97" y2="296.44"/><line class="cls-6" x1="308.43" y1="-91.74" x2="-82.86" y2="299.55"/><line class="cls-6" x1="311.54" y1="-88.63" x2="-79.75" y2="302.66"/><line class="cls-6" x1="314.65" y1="-85.52" x2="-76.64" y2="305.76"/><line class="cls-6" x1="317.76" y1="-82.42" x2="-73.53" y2="308.87"/><line class="cls-6" x1="320.87" y1="-79.31" x2="-70.42" y2="311.98"/><line class="cls-6" x1="323.98" y1="-76.2" x2="-67.31" y2="315.09"/><line class="cls-6" x1="327.09" y1="-73.09" x2="-64.2" y2="318.2"/><line class="cls-6" x1="330.2" y1="-69.98" x2="-61.09" y2="321.31"/><line class="cls-6" x1="333.31" y1="-66.87" x2="-57.98" y2="324.42"/><line class="cls-6" x1="336.42" y1="-63.76" x2="-54.87" y2="327.53"/><line class="cls-6" x1="339.52" y1="-60.65" x2="-51.76" y2="330.64"/><line class="cls-6" x1="342.63" y1="-57.54" x2="-48.66" y2="333.75"/><line class="cls-6" x1="345.74" y1="-54.43" x2="-45.55" y2="336.86"/><line class="cls-6" x1="348.85" y1="-51.32" x2="-42.44" y2="339.97"/><line class="cls-6" x1="351.96" y1="-48.21" x2="-39.33" y2="343.08"/><line class="cls-6" x1="355.07" y1="-45.1" x2="-36.22" y2="346.19"/><line class="cls-6" x1="358.18" y1="-41.99" x2="-33.11" y2="349.3"/><line class="cls-6" x1="361.29" y1="-38.88" x2="-30" y2="352.41"/><line class="cls-6" x1="364.4" y1="-35.77" x2="-26.89" y2="355.52"/><line class="cls-6" x1="367.51" y1="-32.66" x2="-23.78" y2="358.63"/><line class="cls-6" x1="370.62" y1="-29.55" x2="-20.67" y2="361.74"/><line class="cls-6" x1="373.73" y1="-26.44" x2="-17.56" y2="364.84"/><line class="cls-6" x1="376.84" y1="-23.34" x2="-14.45" y2="367.95"/><line class="cls-6" x1="379.95" y1="-20.23" x2="-11.34" y2="371.06"/><line class="cls-6" x1="383.06" y1="-17.12" x2="-8.23" y2="374.17"/><line class="cls-6" x1="386.17" y1="-14.01" x2="-5.12" y2="377.28"/><line class="cls-6" x1="389.28" y1="-10.9" x2="-2.01" y2="380.39"/><line class="cls-6" x1="392.39" y1="-7.79" x2="1.1" y2="383.5"/><line class="cls-6" x1="395.49" y1="-4.68" x2="4.21" y2="386.61"/><line class="cls-6" x1="398.6" y1="-1.57" x2="7.32" y2="389.72"/><line class="cls-6" x1="401.71" y1="1.54" x2="10.42" y2="392.83"/><line class="cls-6" x1="404.82" y1="4.65" x2="13.53" y2="395.94"/><line class="cls-6" x1="407.93" y1="7.76" x2="16.64" y2="399.05"/><line class="cls-6" x1="411.04" y1="10.87" x2="19.75" y2="402.16"/><line class="cls-6" x1="414.15" y1="13.98" x2="22.86" y2="405.27"/><line class="cls-6" x1="417.26" y1="17.09" x2="25.97" y2="408.38"/><line class="cls-6" x1="420.37" y1="20.2" x2="29.08" y2="411.49"/><line class="cls-6" x1="423.48" y1="23.31" x2="32.19" y2="414.6"/><line class="cls-6" x1="426.59" y1="26.42" x2="35.3" y2="417.71"/><line class="cls-6" x1="429.7" y1="29.53" x2="38.41" y2="420.82"/><line class="cls-6" x1="432.81" y1="32.64" x2="41.52" y2="423.92"/><line class="cls-6" x1="435.92" y1="35.74" x2="44.63" y2="427.03"/><line class="cls-6" x1="439.03" y1="38.85" x2="47.74" y2="430.14"/></g><g class="cls-7"><line class="cls-6" x1="1.7" y1="292.18" x2="-432.65" y2="635.04"/><line class="cls-6" x1="4.43" y1="295.63" x2="-429.92" y2="638.5"/><line class="cls-6" x1="7.15" y1="299.09" x2="-427.2" y2="641.95"/><line class="cls-6" x1="9.88" y1="302.54" x2="-424.48" y2="645.4"/><line class="cls-6" x1="12.6" y1="305.99" x2="-421.75" y2="648.85"/><line class="cls-6" x1="15.32" y1="309.44" x2="-419.03" y2="652.3"/><line class="cls-6" x1="18.05" y1="312.89" x2="-416.3" y2="655.75"/><line class="cls-6" x1="20.77" y1="316.34" x2="-413.58" y2="659.21"/><line class="cls-6" x1="23.5" y1="319.8" x2="-410.85" y2="662.66"/><line class="cls-6" x1="26.22" y1="323.25" x2="-408.13" y2="666.11"/><line class="cls-6" x1="28.95" y1="326.7" x2="-405.4" y2="669.56"/><line class="cls-6" x1="31.67" y1="330.15" x2="-402.68" y2="673.01"/><line class="cls-6" x1="34.4" y1="333.6" x2="-399.95" y2="676.46"/><line class="cls-6" x1="37.12" y1="337.05" x2="-397.23" y2="679.92"/><line class="cls-6" x1="39.85" y1="340.51" x2="-394.5" y2="683.37"/><line class="cls-6" x1="42.57" y1="343.96" x2="-391.78" y2="686.82"/><line class="cls-6" x1="45.3" y1="347.41" x2="-389.06" y2="690.27"/><line class="cls-6" x1="48.02" y1="350.86" x2="-386.33" y2="693.72"/><line class="cls-6" x1="50.74" y1="354.31" x2="-383.61" y2="697.17"/><line class="cls-6" x1="53.47" y1="357.76" x2="-380.88" y2="700.63"/><line class="cls-6" x1="56.19" y1="361.22" x2="-378.16" y2="704.08"/><line class="cls-6" x1="58.92" y1="364.67" x2="-375.43" y2="707.53"/><line class="cls-6" x1="61.64" y1="368.12" x2="-372.71" y2="710.98"/><line class="cls-6" x1="64.37" y1="371.57" x2="-369.98" y2="714.43"/><line class="cls-6" x1="67.09" y1="375.02" x2="-367.26" y2="717.88"/><line class="cls-6" x1="69.82" y1="378.47" x2="-364.53" y2="721.34"/><line class="cls-6" x1="72.54" y1="381.93" x2="-361.81" y2="724.79"/><line class="cls-6" x1="75.27" y1="385.38" x2="-359.08" y2="728.24"/><line class="cls-6" x1="77.99" y1="388.83" x2="-356.36" y2="731.69"/><line class="cls-6" x1="80.72" y1="392.28" x2="-353.64" y2="735.14"/><line class="cls-6" x1="83.44" y1="395.73" x2="-350.91" y2="738.59"/><line class="cls-6" x1="86.16" y1="399.18" x2="-348.19" y2="742.05"/><line class="cls-6" x1="88.89" y1="402.64" x2="-345.46" y2="745.5"/><line class="cls-6" x1="91.61" y1="406.09" x2="-342.74" y2="748.95"/><line class="cls-6" x1="94.34" y1="409.54" x2="-340.01" y2="752.4"/><line class="cls-6" x1="97.06" y1="412.99" x2="-337.29" y2="755.85"/><line class="cls-6" x1="99.79" y1="416.44" x2="-334.56" y2="759.3"/><line class="cls-6" x1="102.51" y1="419.89" x2="-331.84" y2="762.76"/></g></g></g></svg>