<svg xmlns="http://www.w3.org/2000/svg" xmlns:xlink="http://www.w3.org/1999/xlink" viewBox="0 0 480 480"><defs><style>.cls-1,.cls-4{fill:none;}.cls-2{isolation:isolate;}.cls-3{clip-path:url(#clip-path);}.cls-4{stroke:#565656;stroke-miterlimit:10;stroke-width:0.57px;}.cls-5,.cls-6{fill:#fdd300;}.cls-6{mix-blend-mode:multiply;}.cls-7{clip-path:url(#clip-path-2);}.cls-8{clip-path:url(#clip-path-3);}.cls-9{clip-path:url(#clip-path-4);}</style><clipPath id="clip-path"><polyline class="cls-1" points="-326.48 65.94 -405.51 65.94 -452.5 175.64 -410.79 175.64 -459.21 301.02 -295.37 136.46 -356.57 136.46 -326.48 65.94"/></clipPath><clipPath id="clip-path-2"><polygon class="cls-1" points="376.47 141.41 301.5 141.41 301.5 66.69 226.54 66.69 226.54 141.41 151.57 141.41 151.57 216.85 226.54 216.85 226.54 291.58 301.5 291.58 301.5 216.85 376.47 216.85 376.47 141.41"/></clipPath><clipPath id="clip-path-3"><path class="cls-1" d="M-291.35,805.56a68.19,68.19,0,0,1,11.68,37.68c.24,39.16-31.49,70.41-70.73,70.64l-91.44.56,45.07-44.7-24.13-23.37-85.67,86.83,86.72,85.65L-396,994.06l-45.68-45.79,91.51-.56c57.94-.35,104.76-46.89,104.41-104.67-.14-23.55-8.2-44.4-21.45-61.84"/></clipPath><clipPath id="clip-path-4"><polyline class="cls-1" points="344 767.6 264.97 767.6 217.98 877.3 259.69 877.3 211.27 1002.68 375.11 838.12 313.92 838.12 344 767.6"/></clipPath></defs><title>ELS_Webshop_Illustrations_480px RGB</title><g class="cls-2"><g id="Illustrations"><g class="cls-3"><line class="cls-4" x1="1.78" y1="130.83" x2="-389.51" y2="522.12"/><line class="cls-4" x1="4.89" y1="133.94" x2="-386.4" y2="525.23"/><line class="cls-4" x1="8" y1="137.05" x2="-383.29" y2="528.34"/><line class="cls-4" x1="11.11" y1="140.16" x2="-380.18" y2="531.44"/><line class="cls-4" x1="14.22" y1="143.26" x2="-377.07" y2="534.55"/><line class="cls-4" x1="17.33" y1="146.37" x2="-373.96" y2="537.66"/><line class="cls-4" x1="20.44" y1="149.48" x2="-370.85" y2="540.77"/><line class="cls-4" x1="23.55" y1="152.59" x2="-367.74" y2="543.88"/><line class="cls-4" x1="26.66" y1="155.7" x2="-364.63" y2="546.99"/><line class="cls-4" x1="29.77" y1="158.81" x2="-361.52" y2="550.1"/><line class="cls-4" x1="32.88" y1="161.92" x2="-358.41" y2="553.21"/><line class="cls-4" x1="35.99" y1="165.03" x2="-355.3" y2="556.32"/><line class="cls-4" x1="39.1" y1="168.14" x2="-352.19" y2="559.43"/><line class="cls-4" x1="42.21" y1="171.25" x2="-349.08" y2="562.54"/><line class="cls-4" x1="45.32" y1="174.36" x2="-345.97" y2="565.65"/><line class="cls-4" x1="48.42" y1="177.47" x2="-342.86" y2="568.76"/><line class="cls-4" x1="51.53" y1="180.58" x2="-339.75" y2="571.87"/><line class="cls-4" x1="54.64" y1="183.69" x2="-336.65" y2="574.98"/></g><circle class="cls-5" cx="227.88" cy="288.97" r="124.34"/><circle class="cls-6" cx="227.88" cy="288.97" r="68.38"/><g class="cls-7"><line class="cls-4" x1="606.58" y1="174.33" x2="215.29" y2="565.62"/><line class="cls-4" x1="609.69" y1="177.44" x2="218.4" y2="568.73"/><line class="cls-4" x1="612.8" y1="180.55" x2="221.51" y2="571.84"/><line class="cls-4" x1="615.91" y1="183.66" x2="224.62" y2="574.95"/><line class="cls-4" x1="619.02" y1="186.77" x2="227.73" y2="578.06"/><line class="cls-4" x1="622.13" y1="189.88" x2="230.84" y2="581.17"/><line class="cls-4" x1="625.24" y1="192.99" x2="233.95" y2="584.28"/><line class="cls-4" x1="628.35" y1="196.1" x2="237.06" y2="587.38"/><line class="cls-4" x1="631.45" y1="199.2" x2="240.17" y2="590.49"/><line class="cls-4" x1="634.56" y1="202.31" x2="243.27" y2="593.6"/><line class="cls-4" x1="637.67" y1="205.42" x2="246.38" y2="596.71"/><line class="cls-4" x1="640.78" y1="208.53" x2="249.49" y2="599.82"/><line class="cls-4" x1="643.89" y1="211.64" x2="252.6" y2="602.93"/><line class="cls-4" x1="647" y1="214.75" x2="255.71" y2="606.04"/><line class="cls-4" x1="650.11" y1="217.86" x2="258.82" y2="609.15"/><line class="cls-4" x1="653.22" y1="220.97" x2="261.93" y2="612.26"/><line class="cls-4" x1="656.33" y1="224.08" x2="265.04" y2="615.37"/><line class="cls-4" x1="659.44" y1="227.19" x2="268.15" y2="618.48"/><line class="cls-4" x1="662.55" y1="230.3" x2="271.26" y2="621.59"/><line class="cls-4" x1="665.66" y1="233.41" x2="274.37" y2="624.7"/><line class="cls-4" x1="668.77" y1="236.52" x2="277.48" y2="627.81"/><line class="cls-4" x1="671.88" y1="239.63" x2="280.59" y2="630.92"/><line class="cls-4" x1="674.99" y1="242.74" x2="283.7" y2="634.03"/><line class="cls-4" x1="678.1" y1="245.85" x2="286.81" y2="637.14"/><line class="cls-4" x1="681.21" y1="248.96" x2="289.92" y2="640.25"/><line class="cls-4" x1="684.32" y1="252.07" x2="293.03" y2="643.36"/><line class="cls-4" x1="687.43" y1="255.18" x2="296.14" y2="646.46"/><line class="cls-4" x1="690.53" y1="258.28" x2="299.25" y2="649.57"/><line class="cls-4" x1="693.64" y1="261.39" x2="302.35" y2="652.68"/><line class="cls-4" x1="696.75" y1="264.5" x2="305.46" y2="655.79"/><line class="cls-4" x1="699.86" y1="267.61" x2="308.57" y2="658.9"/><line class="cls-4" x1="702.97" y1="270.72" x2="311.68" y2="662.01"/><line class="cls-4" x1="706.08" y1="273.83" x2="314.79" y2="665.12"/><line class="cls-4" x1="709.19" y1="276.94" x2="317.9" y2="668.23"/><line class="cls-4" x1="712.3" y1="280.05" x2="321.01" y2="671.34"/><line class="cls-4" x1="715.41" y1="283.16" x2="324.12" y2="674.45"/><line class="cls-4" x1="718.52" y1="286.27" x2="327.23" y2="677.56"/><line class="cls-4" x1="721.63" y1="289.38" x2="330.34" y2="680.67"/><line class="cls-4" x1="724.74" y1="292.49" x2="333.45" y2="683.78"/><line class="cls-4" x1="727.85" y1="295.6" x2="336.56" y2="686.89"/><line class="cls-4" x1="730.96" y1="298.71" x2="339.67" y2="690"/><line class="cls-4" x1="734.07" y1="301.82" x2="342.78" y2="693.11"/><line class="cls-4" x1="737.18" y1="304.93" x2="345.89" y2="696.22"/><line class="cls-4" x1="740.29" y1="308.04" x2="349" y2="699.33"/><line class="cls-4" x1="743.4" y1="311.15" x2="352.11" y2="702.44"/><line class="cls-4" x1="746.5" y1="314.26" x2="355.22" y2="705.54"/><line class="cls-4" x1="749.61" y1="317.36" x2="358.33" y2="708.65"/><line class="cls-4" x1="752.72" y1="320.47" x2="361.43" y2="711.76"/><line class="cls-4" x1="755.83" y1="323.58" x2="364.54" y2="714.87"/><line class="cls-4" x1="758.94" y1="326.69" x2="367.65" y2="717.98"/><line class="cls-4" x1="762.05" y1="329.8" x2="370.76" y2="721.09"/><line class="cls-4" x1="765.16" y1="332.91" x2="373.87" y2="724.2"/><line class="cls-4" x1="768.27" y1="336.02" x2="376.98" y2="727.31"/><line class="cls-4" x1="771.38" y1="339.13" x2="380.09" y2="730.42"/><line class="cls-4" x1="774.49" y1="342.24" x2="383.2" y2="733.53"/><line class="cls-4" x1="777.6" y1="345.35" x2="386.31" y2="736.64"/><line class="cls-4" x1="780.71" y1="348.46" x2="389.42" y2="739.75"/><line class="cls-4" x1="783.82" y1="351.57" x2="392.53" y2="742.86"/><line class="cls-4" x1="433.87" y1="-13.61" x2="42.58" y2="377.68"/><line class="cls-4" x1="436.98" y1="-10.5" x2="45.69" y2="380.79"/><line class="cls-4" x1="440.09" y1="-7.39" x2="48.8" y2="383.9"/><line class="cls-4" x1="443.2" y1="-4.28" x2="51.91" y2="387.01"/><line class="cls-4" x1="446.31" y1="-1.17" x2="55.02" y2="390.12"/><line class="cls-4" x1="449.42" y1="1.94" x2="58.13" y2="393.23"/><line class="cls-4" x1="452.53" y1="5.05" x2="61.24" y2="396.34"/><line class="cls-4" x1="455.64" y1="8.16" x2="64.35" y2="399.45"/><line class="cls-4" x1="458.75" y1="11.27" x2="67.46" y2="402.56"/><line class="cls-4" x1="461.85" y1="14.38" x2="70.57" y2="405.67"/><line class="cls-4" x1="464.96" y1="17.49" x2="73.67" y2="408.78"/><line class="cls-4" x1="468.07" y1="20.6" x2="76.78" y2="411.89"/><line class="cls-4" x1="471.18" y1="23.71" x2="79.89" y2="415"/><line class="cls-4" x1="474.29" y1="26.82" x2="83" y2="418.11"/><line class="cls-4" x1="477.4" y1="29.93" x2="86.11" y2="421.22"/><line class="cls-4" x1="480.51" y1="33.04" x2="89.22" y2="424.33"/><line class="cls-4" x1="483.62" y1="36.15" x2="92.33" y2="427.44"/><line class="cls-4" x1="486.73" y1="39.26" x2="95.44" y2="430.55"/><line class="cls-4" x1="489.84" y1="42.37" x2="98.55" y2="433.65"/><line class="cls-4" x1="492.95" y1="45.47" x2="101.66" y2="436.76"/><line class="cls-4" x1="496.06" y1="48.58" x2="104.77" y2="439.87"/><line class="cls-4" x1="499.17" y1="51.69" x2="107.88" y2="442.98"/><line class="cls-4" x1="502.28" y1="54.8" x2="110.99" y2="446.09"/><line class="cls-4" x1="505.39" y1="57.91" x2="114.1" y2="449.2"/><line class="cls-4" x1="508.5" y1="61.02" x2="117.21" y2="452.31"/><line class="cls-4" x1="511.61" y1="64.13" x2="120.32" y2="455.42"/><line class="cls-4" x1="514.72" y1="67.24" x2="123.43" y2="458.53"/><line class="cls-4" x1="517.83" y1="70.35" x2="126.54" y2="461.64"/><line class="cls-4" x1="520.93" y1="73.46" x2="129.65" y2="464.75"/><line class="cls-4" x1="524.04" y1="76.57" x2="132.75" y2="467.86"/><line class="cls-4" x1="527.15" y1="79.68" x2="135.86" y2="470.97"/><line class="cls-4" x1="530.26" y1="82.79" x2="138.97" y2="474.08"/><line class="cls-4" x1="533.37" y1="85.9" x2="142.08" y2="477.19"/><line class="cls-4" x1="536.48" y1="89.01" x2="145.19" y2="480.3"/><line class="cls-4" x1="539.59" y1="92.12" x2="148.3" y2="483.41"/><line class="cls-4" x1="542.7" y1="95.23" x2="151.41" y2="486.52"/><line class="cls-4" x1="545.81" y1="98.34" x2="154.52" y2="489.63"/><line class="cls-4" x1="548.92" y1="101.45" x2="157.63" y2="492.73"/><line class="cls-4" x1="552.03" y1="104.55" x2="160.74" y2="495.84"/><line class="cls-4" x1="555.14" y1="107.66" x2="163.85" y2="498.95"/><line class="cls-4" x1="558.25" y1="110.77" x2="166.96" y2="502.06"/><line class="cls-4" x1="561.36" y1="113.88" x2="170.07" y2="505.17"/><line class="cls-4" x1="564.47" y1="116.99" x2="173.18" y2="508.28"/><line class="cls-4" x1="567.58" y1="120.1" x2="176.29" y2="511.39"/><line class="cls-4" x1="570.69" y1="123.21" x2="179.4" y2="514.5"/><line class="cls-4" x1="573.8" y1="126.32" x2="182.51" y2="517.61"/><line class="cls-4" x1="576.9" y1="129.43" x2="185.62" y2="520.72"/><line class="cls-4" x1="580.01" y1="132.54" x2="188.73" y2="523.83"/><line class="cls-4" x1="583.12" y1="135.65" x2="191.83" y2="526.94"/><line class="cls-4" x1="586.23" y1="138.76" x2="194.94" y2="530.05"/><line class="cls-4" x1="589.34" y1="141.87" x2="198.05" y2="533.16"/><line class="cls-4" x1="592.45" y1="144.98" x2="201.16" y2="536.27"/><line class="cls-4" x1="595.56" y1="148.09" x2="204.27" y2="539.38"/><line class="cls-4" x1="598.67" y1="151.2" x2="207.38" y2="542.49"/><line class="cls-4" x1="601.78" y1="154.31" x2="210.49" y2="545.6"/><line class="cls-4" x1="604.89" y1="157.42" x2="213.6" y2="548.71"/><line class="cls-4" x1="608" y1="160.53" x2="216.71" y2="551.81"/><line class="cls-4" x1="611.11" y1="163.63" x2="219.82" y2="554.92"/><line class="cls-4" x1="261.16" y1="-201.54" x2="-130.13" y2="189.75"/><line class="cls-4" x1="264.27" y1="-198.43" x2="-127.02" y2="192.86"/><line class="cls-4" x1="267.38" y1="-195.32" x2="-123.91" y2="195.97"/><line class="cls-4" x1="270.49" y1="-192.21" x2="-120.8" y2="199.08"/><line class="cls-4" x1="273.6" y1="-189.1" x2="-117.69" y2="202.19"/><line class="cls-4" x1="276.71" y1="-185.99" x2="-114.58" y2="205.3"/><line class="cls-4" x1="279.82" y1="-182.88" x2="-111.47" y2="208.41"/><line class="cls-4" x1="282.93" y1="-179.77" x2="-108.36" y2="211.52"/><line class="cls-4" x1="286.04" y1="-176.66" x2="-105.25" y2="214.63"/><line class="cls-4" x1="289.15" y1="-173.55" x2="-102.14" y2="217.73"/><line class="cls-4" x1="292.25" y1="-170.45" x2="-99.03" y2="220.84"/><line class="cls-4" x1="295.36" y1="-167.34" x2="-95.93" y2="223.95"/><line class="cls-4" x1="298.47" y1="-164.23" x2="-92.82" y2="227.06"/><line class="cls-4" x1="301.58" y1="-161.12" x2="-89.71" y2="230.17"/><line class="cls-4" x1="304.69" y1="-158.01" x2="-86.6" y2="233.28"/><line class="cls-4" x1="307.8" y1="-154.9" x2="-83.49" y2="236.39"/><line class="cls-4" x1="310.91" y1="-151.79" x2="-80.38" y2="239.5"/><line class="cls-4" x1="314.02" y1="-148.68" x2="-77.27" y2="242.61"/><line class="cls-4" x1="317.13" y1="-145.57" x2="-74.16" y2="245.72"/><line class="cls-4" x1="320.24" y1="-142.46" x2="-71.05" y2="248.83"/><line class="cls-4" x1="323.35" y1="-139.35" x2="-67.94" y2="251.94"/><line class="cls-4" x1="326.46" y1="-136.24" x2="-64.83" y2="255.05"/><line class="cls-4" x1="329.57" y1="-133.13" x2="-61.72" y2="258.16"/><line class="cls-4" x1="332.68" y1="-130.02" x2="-58.61" y2="261.27"/><line class="cls-4" x1="335.79" y1="-126.91" x2="-55.5" y2="264.38"/><line class="cls-4" x1="338.9" y1="-123.8" x2="-52.39" y2="267.49"/><line class="cls-4" x1="342.01" y1="-120.69" x2="-49.28" y2="270.6"/><line class="cls-4" x1="345.12" y1="-117.58" x2="-46.17" y2="273.71"/><line class="cls-4" x1="348.23" y1="-114.47" x2="-43.06" y2="276.81"/><line class="cls-4" x1="351.33" y1="-111.37" x2="-39.95" y2="279.92"/><line class="cls-4" x1="354.44" y1="-108.26" x2="-36.85" y2="283.03"/><line class="cls-4" x1="357.55" y1="-105.15" x2="-33.74" y2="286.14"/><line class="cls-4" x1="360.66" y1="-102.04" x2="-30.63" y2="289.25"/><line class="cls-4" x1="363.77" y1="-98.93" x2="-27.52" y2="292.36"/><line class="cls-4" x1="366.88" y1="-95.82" x2="-24.41" y2="295.47"/><line class="cls-4" x1="369.99" y1="-92.71" x2="-21.3" y2="298.58"/><line class="cls-4" x1="373.1" y1="-89.6" x2="-18.19" y2="301.69"/><line class="cls-4" x1="376.21" y1="-86.49" x2="-15.08" y2="304.8"/><line class="cls-4" x1="379.32" y1="-83.38" x2="-11.97" y2="307.91"/><line class="cls-4" x1="382.43" y1="-80.27" x2="-8.86" y2="311.02"/><line class="cls-4" x1="385.54" y1="-77.16" x2="-5.75" y2="314.13"/><line class="cls-4" x1="388.65" y1="-74.05" x2="-2.64" y2="317.24"/><line class="cls-4" x1="391.76" y1="-70.94" x2="0.47" y2="320.35"/><line class="cls-4" x1="394.87" y1="-67.83" x2="3.58" y2="323.46"/><line class="cls-4" x1="397.98" y1="-64.72" x2="6.69" y2="326.57"/><line class="cls-4" x1="401.09" y1="-61.61" x2="9.8" y2="329.68"/><line class="cls-4" x1="404.2" y1="-58.5" x2="12.91" y2="332.79"/><line class="cls-4" x1="407.3" y1="-55.39" x2="16.02" y2="335.89"/><line class="cls-4" x1="410.41" y1="-52.29" x2="19.13" y2="339"/><line class="cls-4" x1="413.52" y1="-49.18" x2="22.23" y2="342.11"/><line class="cls-4" x1="416.63" y1="-46.07" x2="25.34" y2="345.22"/><line class="cls-4" x1="419.74" y1="-42.96" x2="28.45" y2="348.33"/><line class="cls-4" x1="422.85" y1="-39.85" x2="31.56" y2="351.44"/><line class="cls-4" x1="425.96" y1="-36.74" x2="34.67" y2="354.55"/><line class="cls-4" x1="429.07" y1="-33.63" x2="37.78" y2="357.66"/><line class="cls-4" x1="432.18" y1="-30.52" x2="40.89" y2="360.77"/><line class="cls-4" x1="435.29" y1="-27.41" x2="44" y2="363.88"/><line class="cls-4" x1="438.4" y1="-24.3" x2="47.11" y2="366.99"/></g><g class="cls-9"><line class="cls-4" x1="202.47" y1="332.24" x2="-188.82" y2="723.53"/><line class="cls-4" x1="205.58" y1="335.35" x2="-185.71" y2="726.64"/><line class="cls-4" x1="208.69" y1="338.46" x2="-182.6" y2="729.75"/><line class="cls-4" x1="211.8" y1="341.57" x2="-179.49" y2="732.86"/><line class="cls-4" x1="214.9" y1="344.68" x2="-176.38" y2="735.97"/><line class="cls-4" x1="218.01" y1="347.79" x2="-173.27" y2="739.08"/><line class="cls-4" x1="221.12" y1="350.9" x2="-170.17" y2="742.19"/><line class="cls-4" x1="224.23" y1="354.01" x2="-167.06" y2="745.29"/><line class="cls-4" x1="227.34" y1="357.11" x2="-163.95" y2="748.4"/><line class="cls-4" x1="230.45" y1="360.22" x2="-160.84" y2="751.51"/><line class="cls-4" x1="233.56" y1="363.33" x2="-157.73" y2="754.62"/><line class="cls-4" x1="236.67" y1="366.44" x2="-154.62" y2="757.73"/><line class="cls-4" x1="239.78" y1="369.55" x2="-151.51" y2="760.84"/><line class="cls-4" x1="242.89" y1="372.66" x2="-148.4" y2="763.95"/><line class="cls-4" x1="246" y1="375.77" x2="-145.29" y2="767.06"/><line class="cls-4" x1="249.11" y1="378.88" x2="-142.18" y2="770.17"/><line class="cls-4" x1="252.22" y1="381.99" x2="-139.07" y2="773.28"/><line class="cls-4" x1="255.33" y1="385.1" x2="-135.96" y2="776.39"/><line class="cls-4" x1="258.44" y1="388.21" x2="-132.85" y2="779.5"/><line class="cls-4" x1="261.55" y1="391.32" x2="-129.74" y2="782.61"/><line class="cls-4" x1="264.66" y1="394.43" x2="-126.63" y2="785.72"/><line class="cls-4" x1="267.77" y1="397.54" x2="-123.52" y2="788.83"/><line class="cls-4" x1="270.88" y1="400.65" x2="-120.41" y2="791.94"/><line class="cls-4" x1="273.98" y1="403.76" x2="-117.3" y2="795.05"/><line class="cls-4" x1="277.09" y1="406.87" x2="-114.2" y2="798.16"/><line class="cls-4" x1="280.2" y1="409.98" x2="-111.09" y2="801.27"/><line class="cls-4" x1="283.31" y1="413.09" x2="-107.98" y2="804.37"/><line class="cls-4" x1="286.42" y1="416.19" x2="-104.87" y2="807.48"/><line class="cls-4" x1="289.53" y1="419.3" x2="-101.76" y2="810.59"/><line class="cls-4" x1="292.64" y1="422.41" x2="-98.65" y2="813.7"/><line class="cls-4" x1="295.75" y1="425.52" x2="-95.54" y2="816.81"/><line class="cls-4" x1="298.86" y1="428.63" x2="-92.43" y2="819.92"/><line class="cls-4" x1="301.97" y1="431.74" x2="-89.32" y2="823.03"/><line class="cls-4" x1="305.08" y1="434.85" x2="-86.21" y2="826.14"/><line class="cls-4" x1="308.19" y1="437.96" x2="-83.1" y2="829.25"/><line class="cls-4" x1="311.3" y1="441.07" x2="-79.99" y2="832.36"/><line class="cls-4" x1="314.41" y1="444.18" x2="-76.88" y2="835.47"/><line class="cls-4" x1="317.52" y1="447.29" x2="-73.77" y2="838.58"/><line class="cls-4" x1="320.63" y1="450.4" x2="-70.66" y2="841.69"/><line class="cls-4" x1="323.74" y1="453.51" x2="-67.55" y2="844.8"/><line class="cls-4" x1="326.85" y1="456.62" x2="-64.44" y2="847.91"/><line class="cls-4" x1="329.96" y1="459.73" x2="-61.33" y2="851.02"/><line class="cls-4" x1="333.06" y1="462.84" x2="-58.22" y2="854.13"/><line class="cls-4" x1="336.17" y1="465.95" x2="-55.12" y2="857.24"/><line class="cls-4" x1="339.28" y1="469.06" x2="-52.01" y2="860.35"/><line class="cls-4" x1="342.39" y1="472.17" x2="-48.9" y2="863.45"/><line class="cls-4" x1="345.5" y1="475.27" x2="-45.79" y2="866.56"/><line class="cls-4" x1="348.61" y1="478.38" x2="-42.68" y2="869.67"/></g></g></g></svg>