<svg xmlns="http://www.w3.org/2000/svg" xmlns:xlink="http://www.w3.org/1999/xlink" viewBox="0 0 128 128"><defs><style>.cls-1,.cls-3{fill:none;}.cls-2{clip-path:url(#clip-path);}.cls-3{stroke:#565656;stroke-miterlimit:10;stroke-width:0.28px;}.cls-4{clip-path:url(#clip-path-2);}.cls-5{clip-path:url(#clip-path-3);}.cls-6,.cls-7{fill:#ff6c00;}.cls-6{opacity:0.4;}.cls-7{fill-rule:evenodd;}.cls-8{clip-path:url(#clip-path-4);}.cls-9{clip-path:url(#clip-path-5);}</style><clipPath id="clip-path"><polygon class="cls-1" points="407.61 10.48 359.53 10.48 359.53 102.38 424.47 102.38 424.47 27.34 407.61 10.48"/></clipPath><clipPath id="clip-path-2"><ellipse class="cls-1" cx="392.7" cy="378.71" rx="24.58" ry="24.64"/></clipPath><clipPath id="clip-path-3"><rect class="cls-1" x="363.1" y="350.05" width="60.35" height="92.54"/></clipPath><clipPath id="clip-path-4"><circle class="cls-1" cx="64" cy="70.26" r="36.03"/></clipPath><clipPath id="clip-path-5"><polygon class="cls-1" points="79.61 346.05 31.53 346.05 31.53 437.95 96.47 437.95 96.47 362.92 79.61 346.05"/></clipPath></defs><title>ELS_Webshop_Picto Icons_128px RGB</title><g id="Picto_Illustration" data-name="Picto Illustration"><g class="cls-2"><line class="cls-3" x1="323.75" y1="-245.39" x2="73.73" y2="4.64"/><line class="cls-3" x1="325.73" y1="-243.4" x2="75.71" y2="6.62"/><line class="cls-3" x1="327.72" y1="-241.41" x2="77.7" y2="8.61"/><line class="cls-3" x1="329.71" y1="-239.43" x2="79.69" y2="10.6"/><line class="cls-3" x1="331.7" y1="-237.44" x2="81.67" y2="12.58"/><line class="cls-3" x1="333.68" y1="-235.45" x2="83.66" y2="14.57"/><line class="cls-3" x1="335.67" y1="-233.47" x2="85.65" y2="16.56"/><line class="cls-3" x1="337.66" y1="-231.48" x2="87.63" y2="18.54"/><line class="cls-3" x1="339.64" y1="-229.49" x2="89.62" y2="20.53"/><line class="cls-3" x1="341.63" y1="-227.5" x2="91.61" y2="22.52"/><line class="cls-3" x1="343.62" y1="-225.52" x2="93.59" y2="24.5"/><line class="cls-3" x1="345.6" y1="-223.53" x2="95.58" y2="26.49"/><line class="cls-3" x1="347.59" y1="-221.54" x2="97.57" y2="28.48"/><line class="cls-3" x1="349.58" y1="-219.56" x2="99.55" y2="30.46"/><line class="cls-3" x1="351.56" y1="-217.57" x2="101.54" y2="32.45"/><line class="cls-3" x1="353.55" y1="-215.58" x2="103.53" y2="34.44"/><line class="cls-3" x1="355.54" y1="-213.6" x2="105.52" y2="36.43"/><line class="cls-3" x1="357.52" y1="-211.61" x2="107.5" y2="38.41"/><line class="cls-3" x1="359.51" y1="-209.62" x2="109.49" y2="40.4"/><line class="cls-3" x1="361.5" y1="-207.64" x2="111.48" y2="42.39"/><line class="cls-3" x1="363.48" y1="-205.65" x2="113.46" y2="44.37"/><line class="cls-3" x1="365.47" y1="-203.66" x2="115.45" y2="46.36"/><line class="cls-3" x1="367.46" y1="-201.68" x2="117.44" y2="48.35"/><line class="cls-3" x1="369.45" y1="-199.69" x2="119.42" y2="50.33"/><line class="cls-3" x1="371.43" y1="-197.7" x2="121.41" y2="52.32"/><line class="cls-3" x1="373.42" y1="-195.72" x2="123.4" y2="54.31"/><line class="cls-3" x1="375.41" y1="-193.73" x2="125.38" y2="56.29"/><line class="cls-3" x1="377.39" y1="-191.74" x2="127.37" y2="58.28"/></g><g class="cls-4"><g class="cls-5"><line class="cls-3" x1="255.65" y1="57.03" x2="4.17" y2="308.51"/><line class="cls-3" x1="257.65" y1="59.02" x2="6.17" y2="310.5"/><line class="cls-3" x1="259.65" y1="61.02" x2="8.17" y2="312.5"/><line class="cls-3" x1="261.65" y1="63.02" x2="10.17" y2="314.5"/><line class="cls-3" x1="263.64" y1="65.02" x2="12.16" y2="316.5"/><line class="cls-3" x1="265.64" y1="67.02" x2="14.16" y2="318.5"/><line class="cls-3" x1="267.64" y1="69.02" x2="16.16" y2="320.5"/><line class="cls-3" x1="269.64" y1="71.01" x2="18.16" y2="322.49"/><line class="cls-3" x1="271.64" y1="73.01" x2="20.16" y2="324.49"/><line class="cls-3" x1="273.64" y1="75.01" x2="22.16" y2="326.49"/><line class="cls-3" x1="275.63" y1="77.01" x2="24.15" y2="328.49"/><line class="cls-3" x1="277.63" y1="79.01" x2="26.15" y2="330.49"/><line class="cls-3" x1="279.63" y1="81.01" x2="28.15" y2="332.49"/><line class="cls-3" x1="281.63" y1="83.01" x2="30.15" y2="334.49"/><line class="cls-3" x1="283.63" y1="85" x2="32.15" y2="336.48"/><line class="cls-3" x1="285.63" y1="87" x2="34.15" y2="338.48"/><line class="cls-3" x1="287.63" y1="89" x2="36.14" y2="340.48"/><line class="cls-3" x1="289.62" y1="91" x2="38.14" y2="342.48"/><line class="cls-3" x1="291.62" y1="93" x2="40.14" y2="344.48"/><line class="cls-3" x1="293.62" y1="95" x2="42.14" y2="346.48"/><line class="cls-3" x1="295.62" y1="96.99" x2="44.14" y2="348.47"/><line class="cls-3" x1="297.62" y1="98.99" x2="46.14" y2="350.47"/><line class="cls-3" x1="299.62" y1="100.99" x2="48.14" y2="352.47"/><line class="cls-3" x1="301.61" y1="102.99" x2="50.13" y2="354.47"/><line class="cls-3" x1="303.61" y1="104.99" x2="52.13" y2="356.47"/><line class="cls-3" x1="305.61" y1="106.99" x2="54.13" y2="358.47"/><line class="cls-3" x1="307.61" y1="108.99" x2="56.13" y2="360.47"/><line class="cls-3" x1="309.61" y1="110.98" x2="58.13" y2="362.46"/><line class="cls-3" x1="311.61" y1="112.98" x2="60.13" y2="364.46"/><line class="cls-3" x1="313.6" y1="114.98" x2="62.12" y2="366.46"/><line class="cls-3" x1="315.6" y1="116.98" x2="64.12" y2="368.46"/><line class="cls-3" x1="317.6" y1="118.98" x2="66.12" y2="370.46"/><line class="cls-3" x1="319.6" y1="120.98" x2="68.12" y2="372.46"/><line class="cls-3" x1="321.6" y1="122.97" x2="70.12" y2="374.45"/><line class="cls-3" x1="323.6" y1="124.97" x2="72.12" y2="376.45"/><line class="cls-3" x1="325.6" y1="126.97" x2="74.12" y2="378.45"/></g></g><path class="cls-6" d="M91,35.21l-4.82,6.2A36.18,36.18,0,1,1,66,33.88L59.2,41l5,4.81L75,34.56h0l4.8-5-5-4.8h0L63.47,14l-4.8,5L66,26a44,44,0,0,0-8.83,87.43,44.5,44.5,0,0,0,6.93.54A44,44,0,0,0,91,35.21Z"/><path class="cls-7" d="M69,78.52c0-2.37-1.59-3.63-3.53-4.89v9.84A5.35,5.35,0,0,0,69,78.52ZM62.77,67.32V57.11a5.23,5.23,0,0,0-3.63,5.05C59.14,64.63,60.73,66.05,62.77,67.32ZM73.26,78c0,5.16-3.73,8.21-7.77,9v2.58H62.77V87.31a18.56,18.56,0,0,1-8-1.74l.51-3.89a13.53,13.53,0,0,0,7.52,2.26V72.05l-.56-.37c-3.68-2.31-7.36-4.52-7.36-9.15a8.62,8.62,0,0,1,7.93-8.89V50.9h2.71v2.63a17,17,0,0,1,7.31,1.58L72.54,59a13,13,0,0,0-7.06-2.1v12l.82.53C69.83,71.58,73.26,73.68,73.26,78Z"/><g class="cls-8"><line class="cls-3" x1="199.6" y1="-126.9" x2="-50.42" y2="123.12"/><line class="cls-3" x1="201.59" y1="-124.91" x2="-48.43" y2="125.11"/><line class="cls-3" x1="203.58" y1="-122.93" x2="-46.44" y2="127.09"/><line class="cls-3" x1="205.56" y1="-120.94" x2="-44.46" y2="129.08"/><line class="cls-3" x1="207.55" y1="-118.95" x2="-42.47" y2="131.07"/><line class="cls-3" x1="209.54" y1="-116.97" x2="-40.48" y2="133.05"/><line class="cls-3" x1="211.52" y1="-114.98" x2="-38.5" y2="135.04"/><line class="cls-3" x1="213.51" y1="-112.99" x2="-36.51" y2="137.03"/><line class="cls-3" x1="215.5" y1="-111.01" x2="-34.52" y2="139.02"/><line class="cls-3" x1="217.49" y1="-109.02" x2="-32.54" y2="141"/><line class="cls-3" x1="219.47" y1="-107.03" x2="-30.55" y2="142.99"/><line class="cls-3" x1="221.46" y1="-105.05" x2="-28.56" y2="144.98"/><line class="cls-3" x1="223.45" y1="-103.06" x2="-26.58" y2="146.96"/><line class="cls-3" x1="225.43" y1="-101.07" x2="-24.59" y2="148.95"/><line class="cls-3" x1="227.42" y1="-99.09" x2="-22.6" y2="150.94"/><line class="cls-3" x1="229.41" y1="-97.1" x2="-20.62" y2="152.92"/><line class="cls-3" x1="231.39" y1="-95.11" x2="-18.63" y2="154.91"/><line class="cls-3" x1="233.38" y1="-93.13" x2="-16.64" y2="156.9"/><line class="cls-3" x1="235.37" y1="-91.14" x2="-14.65" y2="158.88"/><line class="cls-3" x1="237.35" y1="-89.15" x2="-12.67" y2="160.87"/><line class="cls-3" x1="239.34" y1="-87.16" x2="-10.68" y2="162.86"/><line class="cls-3" x1="241.33" y1="-85.18" x2="-8.69" y2="164.84"/><line class="cls-3" x1="243.31" y1="-83.19" x2="-6.71" y2="166.83"/><line class="cls-3" x1="245.3" y1="-81.2" x2="-4.72" y2="168.82"/><line class="cls-3" x1="247.29" y1="-79.22" x2="-2.73" y2="170.8"/><line class="cls-3" x1="249.28" y1="-77.23" x2="-0.75" y2="172.79"/><line class="cls-3" x1="251.26" y1="-75.24" x2="1.24" y2="174.78"/><line class="cls-3" x1="253.25" y1="-73.26" x2="3.23" y2="176.77"/><line class="cls-3" x1="255.24" y1="-71.27" x2="5.21" y2="178.75"/><line class="cls-3" x1="257.22" y1="-69.28" x2="7.2" y2="180.74"/><line class="cls-3" x1="259.21" y1="-67.3" x2="9.19" y2="182.73"/><line class="cls-3" x1="261.2" y1="-65.31" x2="11.17" y2="184.71"/><line class="cls-3" x1="263.18" y1="-63.32" x2="13.16" y2="186.7"/><line class="cls-3" x1="265.17" y1="-61.34" x2="15.15" y2="188.69"/><line class="cls-3" x1="267.16" y1="-59.35" x2="17.14" y2="190.67"/><line class="cls-3" x1="269.14" y1="-57.36" x2="19.12" y2="192.66"/><line class="cls-3" x1="271.13" y1="-55.37" x2="21.11" y2="194.65"/><line class="cls-3" x1="273.12" y1="-53.39" x2="23.1" y2="196.63"/><line class="cls-3" x1="275.1" y1="-51.4" x2="25.08" y2="198.62"/><line class="cls-3" x1="277.09" y1="-49.41" x2="27.07" y2="200.61"/><line class="cls-3" x1="279.08" y1="-47.43" x2="29.06" y2="202.59"/><line class="cls-3" x1="281.06" y1="-45.44" x2="31.04" y2="204.58"/><line class="cls-3" x1="283.05" y1="-43.45" x2="33.03" y2="206.57"/><line class="cls-3" x1="285.04" y1="-41.47" x2="35.02" y2="208.56"/><line class="cls-3" x1="287.03" y1="-39.48" x2="37" y2="210.54"/><line class="cls-3" x1="289.01" y1="-37.49" x2="38.99" y2="212.53"/><line class="cls-3" x1="291" y1="-35.51" x2="40.98" y2="214.52"/><line class="cls-3" x1="292.99" y1="-33.52" x2="42.96" y2="216.5"/><line class="cls-3" x1="294.97" y1="-31.53" x2="44.95" y2="218.49"/><line class="cls-3" x1="296.96" y1="-29.55" x2="46.94" y2="220.48"/><line class="cls-3" x1="298.95" y1="-27.56" x2="48.92" y2="222.46"/><line class="cls-3" x1="300.93" y1="-25.57" x2="50.91" y2="224.45"/><line class="cls-3" x1="302.92" y1="-23.59" x2="52.9" y2="226.44"/><line class="cls-3" x1="304.91" y1="-21.6" x2="54.89" y2="228.42"/><line class="cls-3" x1="306.89" y1="-19.61" x2="56.87" y2="230.41"/><line class="cls-3" x1="308.88" y1="-17.62" x2="58.86" y2="232.4"/><line class="cls-3" x1="310.87" y1="-15.64" x2="60.85" y2="234.38"/><line class="cls-3" x1="312.85" y1="-13.65" x2="62.83" y2="236.37"/><line class="cls-3" x1="89.25" y1="-246.99" x2="-160.77" y2="3.04"/><line class="cls-3" x1="91.23" y1="-245" x2="-158.79" y2="5.02"/><line class="cls-3" x1="93.22" y1="-243.01" x2="-156.8" y2="7.01"/><line class="cls-3" x1="95.21" y1="-241.03" x2="-154.81" y2="9"/><line class="cls-3" x1="97.2" y1="-239.04" x2="-152.83" y2="10.98"/><line class="cls-3" x1="99.18" y1="-237.05" x2="-150.84" y2="12.97"/><line class="cls-3" x1="101.17" y1="-235.06" x2="-148.85" y2="14.96"/><line class="cls-3" x1="103.16" y1="-233.08" x2="-146.87" y2="16.94"/><line class="cls-3" x1="105.14" y1="-231.09" x2="-144.88" y2="18.93"/><line class="cls-3" x1="107.13" y1="-229.1" x2="-142.89" y2="20.92"/><line class="cls-3" x1="109.12" y1="-227.12" x2="-140.91" y2="22.9"/><line class="cls-3" x1="111.1" y1="-225.13" x2="-138.92" y2="24.89"/><line class="cls-3" x1="113.09" y1="-223.14" x2="-136.93" y2="26.88"/><line class="cls-3" x1="115.08" y1="-221.16" x2="-134.95" y2="28.87"/><line class="cls-3" x1="117.06" y1="-219.17" x2="-132.96" y2="30.85"/><line class="cls-3" x1="119.05" y1="-217.18" x2="-130.97" y2="32.84"/><line class="cls-3" x1="121.04" y1="-215.2" x2="-128.98" y2="34.83"/><line class="cls-3" x1="123.02" y1="-213.21" x2="-127" y2="36.81"/><line class="cls-3" x1="125.01" y1="-211.22" x2="-125.01" y2="38.8"/><line class="cls-3" x1="127" y1="-209.24" x2="-123.02" y2="40.79"/><line class="cls-3" x1="128.98" y1="-207.25" x2="-121.04" y2="42.77"/><line class="cls-3" x1="130.97" y1="-205.26" x2="-119.05" y2="44.76"/><line class="cls-3" x1="132.96" y1="-203.28" x2="-117.06" y2="46.75"/><line class="cls-3" x1="134.95" y1="-201.29" x2="-115.08" y2="48.73"/><line class="cls-3" x1="136.93" y1="-199.3" x2="-113.09" y2="50.72"/><line class="cls-3" x1="138.92" y1="-197.31" x2="-111.1" y2="52.71"/><line class="cls-3" x1="140.91" y1="-195.33" x2="-109.12" y2="54.69"/><line class="cls-3" x1="142.89" y1="-193.34" x2="-107.13" y2="56.68"/><line class="cls-3" x1="144.88" y1="-191.35" x2="-105.14" y2="58.67"/><line class="cls-3" x1="146.87" y1="-189.37" x2="-103.16" y2="60.65"/><line class="cls-3" x1="148.85" y1="-187.38" x2="-101.17" y2="62.64"/><line class="cls-3" x1="150.84" y1="-185.39" x2="-99.18" y2="64.63"/><line class="cls-3" x1="152.83" y1="-183.41" x2="-97.19" y2="66.62"/><line class="cls-3" x1="154.81" y1="-181.42" x2="-95.21" y2="68.6"/><line class="cls-3" x1="156.8" y1="-179.43" x2="-93.22" y2="70.59"/><line class="cls-3" x1="158.79" y1="-177.45" x2="-91.23" y2="72.58"/><line class="cls-3" x1="160.77" y1="-175.46" x2="-89.25" y2="74.56"/><line class="cls-3" x1="162.76" y1="-173.47" x2="-87.26" y2="76.55"/><line class="cls-3" x1="164.75" y1="-171.49" x2="-85.27" y2="78.54"/><line class="cls-3" x1="166.74" y1="-169.5" x2="-83.29" y2="80.52"/><line class="cls-3" x1="168.72" y1="-167.51" x2="-81.3" y2="82.51"/><line class="cls-3" x1="170.71" y1="-165.52" x2="-79.31" y2="84.5"/><line class="cls-3" x1="172.7" y1="-163.54" x2="-77.33" y2="86.48"/><line class="cls-3" x1="174.68" y1="-161.55" x2="-75.34" y2="88.47"/><line class="cls-3" x1="176.67" y1="-159.56" x2="-73.35" y2="90.46"/><line class="cls-3" x1="178.66" y1="-157.58" x2="-71.37" y2="92.44"/><line class="cls-3" x1="180.64" y1="-155.59" x2="-69.38" y2="94.43"/><line class="cls-3" x1="182.63" y1="-153.6" x2="-67.39" y2="96.42"/><line class="cls-3" x1="184.62" y1="-151.62" x2="-65.41" y2="98.41"/><line class="cls-3" x1="186.6" y1="-149.63" x2="-63.42" y2="100.39"/><line class="cls-3" x1="188.59" y1="-147.64" x2="-61.43" y2="102.38"/><line class="cls-3" x1="190.58" y1="-145.66" x2="-59.44" y2="104.37"/><line class="cls-3" x1="192.56" y1="-143.67" x2="-57.46" y2="106.35"/><line class="cls-3" x1="194.55" y1="-141.68" x2="-55.47" y2="108.34"/><line class="cls-3" x1="196.54" y1="-139.7" x2="-53.48" y2="110.33"/><line class="cls-3" x1="198.52" y1="-137.71" x2="-51.5" y2="112.31"/><line class="cls-3" x1="200.51" y1="-135.72" x2="-49.51" y2="114.3"/><line class="cls-3" x1="202.5" y1="-133.74" x2="-47.52" y2="116.29"/></g><g class="cls-9"><line class="cls-3" x1="64.4" y1="109.37" x2="-185.62" y2="359.39"/><line class="cls-3" x1="66.39" y1="111.36" x2="-183.63" y2="361.38"/><line class="cls-3" x1="68.38" y1="113.35" x2="-181.64" y2="363.37"/><line class="cls-3" x1="70.37" y1="115.33" x2="-179.66" y2="365.35"/><line class="cls-3" x1="72.35" y1="117.32" x2="-177.67" y2="367.34"/><line class="cls-3" x1="74.34" y1="119.31" x2="-175.68" y2="369.33"/><line class="cls-3" x1="76.33" y1="121.29" x2="-173.7" y2="371.32"/><line class="cls-3" x1="78.31" y1="123.28" x2="-171.71" y2="373.3"/><line class="cls-3" x1="80.3" y1="125.27" x2="-169.72" y2="375.29"/><line class="cls-3" x1="82.29" y1="127.25" x2="-167.74" y2="377.28"/></g></g></svg>