<svg id="Layer_1" data-name="Layer 1" xmlns="http://www.w3.org/2000/svg" xmlns:xlink="http://www.w3.org/1999/xlink" viewBox="0 0 1186.95 1038.06"><defs><style>.cls-1,.cls-8{fill:none;}.cls-2{fill:#ff6c00;}.cls-3{fill:#acd2ff;}.cls-4{fill:#ac5b26;}.cls-5{clip-path:url(#clip-path);}.cls-6{isolation:isolate;}.cls-7{clip-path:url(#clip-path-2);}.cls-8{stroke:#343842;stroke-linecap:square;stroke-width:2px;}.cls-9{fill:#f36d26;}.cls-10{clip-path:url(#clip-path-3);}.cls-11{clip-path:url(#clip-path-4);}</style><clipPath id="clip-path"><polygon class="cls-1" points="173.64 300.14 173.64 425.66 48.11 425.66 48.11 551.19 173.64 551.19 173.64 676.72 299.17 676.72 299.17 551.19 424.69 551.19 424.69 425.66 299.17 425.66 299.17 300.14 173.64 300.14"/></clipPath><clipPath id="clip-path-2"><rect class="cls-1" x="48.11" y="299.76" width="377.15" height="377.15"/></clipPath><clipPath id="clip-path-3"><rect class="cls-1" x="48.11" y="300.04" width="1058.77" height="382.93"/></clipPath><clipPath id="clip-path-4"><rect class="cls-1" x="48.11" y="300.04" width="1058.77" height="383.14"/></clipPath></defs><rect class="cls-2" x="173.64" y="300.1" width="125.52" height="376.6"/><rect class="cls-3" x="48.11" y="424.83" width="376.58" height="126.33"/><rect class="cls-4" x="173.64" y="425.23" width="125.51" height="126.33"/><g class="cls-5"><g class="cls-6"><g class="cls-7"><path class="cls-8" d="M44.93,309.72,57.7,297m12.76,0L44.93,322.48m0,12.77L83.23,297M96,297,44.93,348m0,12.77L108.75,297m12.76,0L44.93,373.54m0,12.77L134.29,297m12.76,0L44.93,399.07m0,12.76L159.81,297m12.76,0L44.93,424.6m0,12.76L185.34,297m12.76,0L44.93,450.13m0,12.76L210.87,297m12.76,0L44.93,475.65m0,12.77L236.4,297m12.76,0L44.93,501.18m0,12.77,217-217m12.75,0L44.93,526.71m0,12.77L287.45,297m12.76,0L44.93,552.24m0,12.76L313,297m12.76,0L44.93,577.77m0,12.76L338.51,297m12.76,0L44.93,603.3m0,12.76L364,297m12.76,0L44.93,628.82m0,12.77L389.57,297m12.76,0L44.93,654.35m0,12.77L415.1,297m12.77,0L44.93,679.88m12.77,0L427.86,309.73m0,12.76L70.47,679.89m12.75,0L427.86,335.25m0,12.77L96,679.89m12.75,0L427.86,360.78m0,12.77L121.52,679.89m12.77,0L427.87,386.31m0,12.76L147.05,679.88m12.76,0,268.06-268m0,12.76L172.57,679.88m12.77,0L427.87,437.37m0,12.76L198.1,679.88m12.77,0,217-217m0,12.76L223.63,679.89m12.76,0L427.86,488.42m0,12.77-178.7,178.7m12.76,0L427.87,514m0,12.77L274.69,679.89m12.76,0L427.87,539.48m0,12.76L300.21,679.89m12.78,0L427.87,565m0,12.76L325.75,679.88m12.76,0,89.36-89.35m0,12.76-76.6,76.59m12.77,0,63.82-63.82m0,12.76-51.06,51.06m12.75,0,38.3-38.3m0,12.77-25.54,25.53m12.77,0,12.77-12.77"/></g></g></g><polygon class="cls-9" points="471.15 652.4 471.15 624.85 530.01 624.85 530.01 372.14 471.15 372.14 471.15 344.58 567.38 344.58 567.38 624.85 626.7 624.85 626.7 652.4 471.15 652.4"/><g class="cls-10"><g class="cls-6"><g class="cls-11"><path class="cls-9" d="M777.1,368.4c-32.23,0-56.52,54.65-56.52,130.32,0,75.21,24.29,129.85,56.52,129.85s56.52-54.65,56.52-129.85c0-75.66-24.29-130.32-56.52-130.32m0,289.61c-63.06,0-96.23-70.54-96.23-159.28,0-89.22,33.17-159.28,96.23-159.28,61.66,0,96.22,70.06,96.22,158.82,0,89.2-34.1,159.74-96.22,159.74"/></g><g class="cls-11"><path class="cls-9" d="M1010.65,368.4c-32.23,0-56.52,54.65-56.52,130.32,0,75.21,24.29,129.85,56.52,129.85s56.52-54.65,56.52-129.85c0-75.66-24.29-130.32-56.52-130.32m0,289.61c-63.06,0-96.23-70.54-96.23-159.28,0-89.22,33.17-159.28,96.23-159.28,61.66,0,96.22,70.06,96.22,158.82,0,89.2-34.1,159.74-96.22,159.74"/></g></g></g></svg>