<svg id="Layer_1" data-name="Layer 1" xmlns="http://www.w3.org/2000/svg" xmlns:xlink="http://www.w3.org/1999/xlink" viewBox="0 0 1033.86 1067.42"><defs><style>.cls-1,.cls-8{fill:none;}.cls-2{fill:#3679e0;}.cls-3{fill:#fff;}.cls-4{fill:#acd2ff;}.cls-5{clip-path:url(#clip-path);}.cls-6{isolation:isolate;}.cls-7{clip-path:url(#clip-path-2);}.cls-8{stroke:#272b33;stroke-linecap:square;stroke-width:2.5px;}</style><clipPath id="clip-path"><path class="cls-1" d="M796.3,769.52v37.93a16.66,16.66,0,0,1-33.32,0V769.52a33.3,33.3,0,1,1,33.32,0ZM713,590.93a66.63,66.63,0,0,1,133.26,0v50H713Zm179.06,50H879.58v-50a99.94,99.94,0,0,0-199.88,0v50H667.21a37.52,37.52,0,0,0-37.48,37.48V853.26a37.53,37.53,0,0,0,37.48,37.48H892.08a37.53,37.53,0,0,0,37.48-37.48V678.38A37.53,37.53,0,0,0,892.07,640.9Z"/></clipPath><clipPath id="clip-path-2"><rect class="cls-1" x="629.48" y="490.44" width="300.85" height="400.47"/></clipPath></defs><path class="cls-2" d="M813,457.35C813,665.91,643.87,835,435.3,835S57.65,665.92,57.65,457.35,226.73,79.7,435.3,79.7,813,248.79,813,457.35"/><path class="cls-3" d="M407.32,672.85V622.68c-35.4-1.58-69.73-11.09-89.81-22.71l15.86-61.81c22.17,12.16,53.34,23.25,87.67,23.25,30.09,0,50.7-11.62,50.7-32.74,0-20.08-16.89-32.76-56-46-56.5-19-95.05-45.44-95.05-96.65,0-46.48,32.74-82.93,89.25-94V241.86h51.76v46.48c35.39,1.59,59.16,9,76.59,17.43L523,365.45c-13.72-5.8-38-18-76.05-18-34.33,0-45.44,14.79-45.44,29.57,0,17.43,18.49,28.53,63.39,45.44,62.85,22.19,88.21,51.24,88.21,98.76,0,47-33.28,87.15-94,97.7v53.88H407.32"/><path class="cls-4" d="M796.3,769.52v37.93a16.66,16.66,0,0,1-33.32,0V769.52a33.3,33.3,0,1,1,33.32,0ZM713,590.93a66.63,66.63,0,0,1,133.26,0v50H713Zm179.06,50H879.58v-50a99.94,99.94,0,0,0-199.88,0v50H667.21a37.52,37.52,0,0,0-37.48,37.48V853.26a37.53,37.53,0,0,0,37.48,37.48H892.08a37.53,37.53,0,0,0,37.48-37.48V678.38A37.53,37.53,0,0,0,892.07,640.9Z"/><g class="cls-5"><g class="cls-6"><g class="cls-7"><path class="cls-8" d="M199.7,119.07l28.66-28.68m28.68,0L199.7,147.73m0,28.68,86-86m28.67,0L199.69,205.07m0,28.68L343,90.4m28.67,0-172,172m0,28.69L400.38,90.4m28.67,0L199.7,319.74m0,28.68,258-258m28.68,0L199.7,377.08m0,28.68L515.05,90.39m28.68,0-344,344m0,28.68L572.39,90.39m28.68,0L199.7,491.76m0,28.68,430-430.05m28.67,0L199.69,549.1m0,28.68L687.07,90.4m28.67,0-516,516m0,28.68L744.41,90.39m28.65,0L199.69,663.77m0,28.68,602-602.06m28.66,0L199.7,721.11m0,28.66L859.08,90.39m28.66,0-688,688.06m0,28.66L916.42,90.39m28.66,0L199.7,835.79m0,28.66L973.76,90.39m28.66,0L199.7,893.12m0,28.67,831.4-831.4m28.65,0L199.69,950.46m28.67,0,831.4-831.4m0,28.66L257,950.46m28.67,0,774.06-774.06m0,28.66L314.37,950.47m28.67,0,716.72-716.72m0,28.66-688,688.06m28.66,0,659.38-659.38m0,28.66L429.05,950.47m28.66,0,602-602m0,28.66L486.38,950.47m28.67,0,544.7-544.7m0,28.65-516,516m28.67,0L1059.76,463.1m0,28.66L601.06,950.47m28.67,0,430-430m0,28.66L658.4,950.47m28.66,0,372.69-372.69m0,28.66-344,344m28.66,0,315.35-315.35m0,28.66L773.06,950.47m28.68,0,258-258m0,28.65L830.4,950.46m28.68,0,200.68-200.69m0,28.67-172,172m28.68,0,143.34-143.35m0,28.67L945.07,950.47m28.69,0,86-86m0,28.68-57.34,57.34m28.68,0,28.66-28.68"/></g></g></g></svg>