<svg id="Layer_1" data-name="Layer 1" xmlns="http://www.w3.org/2000/svg" xmlns:xlink="http://www.w3.org/1999/xlink" viewBox="0 0 1080 1080"><defs><style>.cls-1,.cls-6,.cls-9{fill:none;}.cls-2{clip-path:url(#clip-path);}.cls-3{isolation:isolate;}.cls-4{clip-path:url(#clip-path-2);}.cls-5{clip-path:url(#clip-path-3);}.cls-6{stroke:#575757;}.cls-6,.cls-9{stroke-miterlimit:10;stroke-width:2.5px;}.cls-7{clip-path:url(#clip-path-15);}.cls-8{clip-path:url(#clip-path-16);}.cls-9{stroke:#343842;stroke-linecap:square;}.cls-10{clip-path:url(#clip-path-17);}.cls-11{clip-path:url(#clip-path-18);}.cls-12{fill:#acd2ff;}.cls-13{clip-path:url(#clip-path-19);}.cls-14{clip-path:url(#clip-path-20);}.cls-15{fill:#ff6c00;}.cls-16{fill:#ac5800;}</style><clipPath id="clip-path"><path class="cls-1" d="M2993,483.15q0-9.88,1-19.72t2.89-19.53q1.92-9.69,4.78-19.15t6.63-18.59q3.78-9.14,8.42-17.85t10.12-16.93q5.48-8.22,11.73-15.86t13.23-14.63q7-7,14.59-13.26t15.82-11.76q8.21-5.49,16.89-10.15t17.8-8.44q9.11-3.78,18.54-6.65t19.1-4.8q9.66-1.93,19.48-2.9t19.67-1q9.86,0,19.67,1t19.48,2.9q9.67,1.94,19.1,4.8t18.54,6.65q9.11,3.78,17.8,8.44t16.89,10.15q8.19,5.49,15.82,11.76t14.59,13.26q7,7,13.23,14.63t11.73,15.86q5.48,8.22,10.12,16.93t8.42,17.85q3.78,9.13,6.63,18.59t4.79,19.15q1.92,9.69,2.89,19.53t1,19.72q0,9.89-1,19.72t-2.89,19.53q-1.92,9.69-4.79,19.15T3379,560.14q-3.77,9.14-8.42,17.85t-10.13,16.93q-5.47,8.22-11.73,15.86t-13.23,14.63q-7,7-14.59,13.26t-15.82,11.76q-8.19,5.49-16.89,10.15t-17.8,8.44q-9.11,3.78-18.54,6.65t-19.1,4.8q-9.68,1.93-19.48,2.9t-19.67,1q-9.86,0-19.67-1t-19.48-2.9q-9.67-1.94-19.1-4.8T3116.84,669q-9.11-3.78-17.8-8.44t-16.89-10.15q-8.19-5.49-15.82-11.76t-14.59-13.26q-7-7-13.23-14.63t-11.73-15.86q-5.47-8.22-10.12-16.93t-8.42-17.85q-3.78-9.14-6.63-18.59t-4.78-19.15q-1.92-9.69-2.89-19.53T2993,483.15Z"/></clipPath><clipPath id="clip-path-2"><rect class="cls-1" x="2992.52" y="281.83" width="401.93" height="402.63"/></clipPath><clipPath id="clip-path-3"><rect class="cls-1" x="2991.82" y="281.13" width="403.33" height="404.03"/></clipPath><clipPath id="clip-path-15"><path class="cls-1" d="M71.86,240.34c-52.44,90.78-35,209.08,70.25,269.82L318.39,611a30.22,30.22,0,0,1,24.38,12.45,33.47,33.47,0,0,0,25.16-61.39L258.7,499l9.47-16.39L395.7,556.26V478.77l-94-54.23,9.47-16.38L395.7,457V438.7c0-44.72,67.12-44.72,67.12,0v57l18.91,10.94V429.15L344.73,350l9.47-16.34,127.53,73.62v0c0-26.38,29-42.44,51.34-28.45l0,0,16.8-9.68L333.62,244.32c-5.4-3.66-13.82-8.53-9.75-16.27,3.74-7.07,10.73-7.23,21.14-4.76,12.84,3.05,47.64,10,72.68,15.94,44.12,10.45,61-48.66,13.3-64.4-45.41-14.91-76.88-23.21-137.45-34.59a212.76,212.76,0,0,0-39.41-3.66c-72.34,0-143.47,36.54-182.27,103.76M548.8,469.1l1.1-.61-1.1-.61Zm-86,120.9a33.61,33.61,0,0,0,18.91-5.45v-55.9c-.53-.32-1-.77-1.55-1.09l-17.36-10Z"/></clipPath><clipPath id="clip-path-16"><rect class="cls-1" x="19.07" y="136.32" width="531.71" height="491.06"/></clipPath><clipPath id="clip-path-17"><rect class="cls-1" x="43.24" y="136.6" width="986.6" height="801.34"/></clipPath><clipPath id="clip-path-18"><rect class="cls-1" x="43.24" y="136.32" width="987.61" height="801.95"/></clipPath><clipPath id="clip-path-19"><rect class="cls-1" x="48.08" y="134.12" width="988.68" height="811.76"/></clipPath><clipPath id="clip-path-20"><rect class="cls-1" x="47.64" y="134.12" width="989.81" height="811.84"/></clipPath></defs><g class="cls-2"><g class="cls-3"><g class="cls-4"><g class="cls-5"><g class="cls-3"><g class="cls-4"><line class="cls-6" x1="2997.31" y1="-1140.72" x2="944.17" y2="912.42"/></g><g class="cls-4"><line class="cls-6" x1="3013.64" y1="-1124.39" x2="960.5" y2="928.75"/></g><g class="cls-4"><line class="cls-6" x1="3029.89" y1="-1108.06" x2="976.74" y2="945.08"/></g><g class="cls-4"><line class="cls-6" x1="3046.21" y1="-1091.82" x2="993.07" y2="961.33"/></g><g class="cls-4"><line class="cls-6" x1="3062.54" y1="-1075.49" x2="1009.4" y2="977.66"/></g><g class="cls-4"><line class="cls-6" x1="3078.87" y1="-1059.16" x2="1025.73" y2="993.98"/></g><g class="cls-4"><line class="cls-6" x1="3095.2" y1="-1042.83" x2="1042.06" y2="1010.31"/></g><g class="cls-4"><line class="cls-6" x1="3111.53" y1="-1026.5" x2="1058.39" y2="1026.64"/></g><g class="cls-4"><line class="cls-6" x1="3127.78" y1="-1010.17" x2="1074.63" y2="1042.97"/></g><g class="cls-4"><line class="cls-6" x1="2988.41" y1="-1229.47" x2="935.27" y2="823.68"/></g><g class="cls-4"><line class="cls-6" x1="3004.74" y1="-1213.14" x2="951.6" y2="840.01"/></g></g></g></g></g></g><g class="cls-7"><g class="cls-3"><g class="cls-8"><path class="cls-9" d="M995.49,1057.62l31.22-31.22m0-31.22-62.44,62.44m-31.23,0L1026.71,964m0-31.23L901.83,1057.62m-31.22,0,156.11-156.11m0-31.22L839.39,1057.62m-31.22,0,218.55-218.55m0-31.22L777,1057.62m-31.23,0,281-281m0-31.22L714.5,1057.62m-31.22,0,343.43-343.43m0-31.23L652.06,1057.62m-31.22,0,405.88-405.88m0-31.22-437.1,437.1m-31.22,0L1026.72,589.3m0-31.22L527.18,1057.62m-31.23,0,530.76-530.76m0-31.23-562,562m-31.23,0,593.21-593.21m0-31.22L402.29,1057.62m-31.22,0L1026.72,402m0-31.22L339.85,1057.62m-31.22,0,718.09-718.09m0-31.22L277.4,1057.62m-31.22,0,780.53-780.53m0-31.23L215,1057.62m-31.22,0,843-843m0-31.22-874.2,874.2m-31.22,0L1026.72,152.2m0-31.22L90.08,1057.62m-31.23,0L1026.71,89.76m0-31.22L27.63,1057.62m0-31.22L995.49,58.54m-31.22,0L27.63,995.18m0-31.23L933.05,58.54m-31.22,0L27.63,932.74m0-31.23,843-843m-31.22,0L27.63,870.29m0-31.22L808.17,58.54m-31.22,0L27.63,807.85m0-31.22L745.72,58.54m-31.22,0L27.63,745.41m0-31.23L683.28,58.54m-31.22,0L27.63,683m0-31.22L620.84,58.54m-31.22,0-562,562m0-31.22L558.4,58.54m-31.23,0L27.63,558.08m0-31.22L496,58.54m-31.22,0L27.63,495.64m0-31.23L433.51,58.54m-31.22,0L27.63,433.19m0-31.22L371.07,58.54m-31.22,0L27.63,370.75m0-31.22,281-281m-31.23,0L27.63,308.31m0-31.22L246.18,58.54m-31.22,0L27.63,245.86m0-31.22L183.74,58.54m-31.22,0L27.63,183.42m0-31.22,93.66-93.66m-31.21,0L27.64,121m0-31.22L58.85,58.54"/></g></g></g><g class="cls-10"><g class="cls-3"><g class="cls-11"><path class="cls-12" d="M516.64,526.41a33.52,33.52,0,0,1,12.28-45.81l205.3-118.55-9.44-16.38L548.68,447.34l-2.35,1.34a33.54,33.54,0,0,1-33.54-58.09l178.43-103-9.44-16.38L572.59,334.25C534.3,354.91,502,298.93,539,276.12L730.39,164.6c105.22-60.69,216.4-16.7,268.8,74.08,45.91,79.47,32,176.55-24.14,242-40.12,46.79-63,69.88-98.7,101.76-37.44,33.46-80.21-10.74-49.11-43.7,17.68-18.74,41.1-45.42,50.16-55,7.32-7.76,10.7-13.9,6.43-20.65-4.64-7.44-13.09-2.56-19,.28L634.75,596.3l-2,1.13a33.54,33.54,0,1,1-33.54-58.09L777.24,436.53l-9.47-16.38-200,115.5-5.32,3.05a33.6,33.6,0,0,1-45.84-12.29"/></g></g></g><g class="cls-13"><g class="cls-3"><g class="cls-14"><path class="cls-15" d="M515.26,373.68a33.57,33.57,0,0,1,17.81,5.12,33.54,33.54,0,0,1,15.74,28.45v237h18.91v-206a33.57,33.57,0,0,1,67.13,0v206h18.9V518.2c0-31.54,39.68-45.61,59.6-21.14a33.55,33.55,0,0,1,7.51,21.14l.85,221.52c0,121.47-93.7,195.75-198.51,195.75-91.79,0-169-60.53-197.57-141.92-20.45-58.18-29-89.55-38.75-136.34-10.24-49.15,49.39-64.11,62.4-20.7,7.4,24.69,18.78,58.3,22.56,71,3.05,10.24,6.67,16.21,14.67,15.89,8.74-.32,8.74-10,9.19-16.55V438.7c0-44.72,67.12-44.72,67.12,0V644.3h18.91v-237a33.54,33.54,0,0,1,33.53-33.58"/></g><g class="cls-14"><path class="cls-16" d="M599.17,539.34a33.54,33.54,0,1,0,33.55,58.09l2-1.15.08,0V518.76l-.08,0Zm31.39-117.45,0,0-62.78,36.23,0,0v77.44h.07l67-38.7h0V438.29A33.5,33.5,0,0,0,630.59,422Zm90.28,96.31a33.56,33.56,0,0,0-27.84-33l-37.12,21.42-.12.08v0a33.85,33.85,0,0,0-2,11.5v67.13l67.07-38.7.12-.08ZM533.11,378.85l0,0L512.79,390.6a33.54,33.54,0,1,0,33.54,58.09l2.35-1.34.12-.08v-40a33.39,33.39,0,0,0-15.69-28.42m83.21,29.43a33.53,33.53,0,0,0-48.54,27.81v.24Zm-102.84,92A33.5,33.5,0,0,0,548.8,543V469.1l-19.88,11.5a33.28,33.28,0,0,0-15.44,19.68"/></g></g></g></svg>