<svg id="Layer_1" data-name="Layer 1" xmlns="http://www.w3.org/2000/svg" xmlns:xlink="http://www.w3.org/1999/xlink" viewBox="0 0 1280.62 877.98"><defs><style>.cls-1,.cls-7{fill:none;}.cls-2{fill:#fff;}.cls-3{clip-path:url(#clip-path);}.cls-4{isolation:isolate;}.cls-5{clip-path:url(#clip-path-2);}.cls-6{fill:#4975ba;}.cls-7{stroke:#272b33;stroke-linecap:square;stroke-width:2.5px;}.cls-8{fill:#3679e0;}</style><clipPath id="clip-path"><path class="cls-1" d="M102.71,737.64V143.69A29.28,29.28,0,0,1,132,114.43h961a29.26,29.26,0,0,1,29.25,29.26v594a29.26,29.26,0,0,1-29.25,29.25H132a29.26,29.26,0,0,1-29.25-29.25Z"/></clipPath><clipPath id="clip-path-2"><rect class="cls-1" x="101.88" y="113.9" width="1021" height="653.48"/></clipPath></defs><rect class="cls-2" x="78.92" y="94.38" width="1074.04" height="682.42"/><g class="cls-3"><g class="cls-4"><g class="cls-5"><path class="cls-6" d="M73.32,33.71,106.45.56m33.14,0L73.33,66.84m0,33.13L172.71.57m33.15,0L73.33,133.1m0,33.14L239,.56m33.13,0L73.32,199.37m0,33.13L305.24.57m33.14,0L73.32,265.63m0,33.14L371.51.56m33.14,0L73.33,331.91m0,33.12L437.78.57m33.14,0L73.33,398.16m0,33.14L504.05.56m33.12,0L73.32,464.44m0,33.12,497-497m33.16,0L73.32,530.69m0,33.15L636.57.57m33.14,0L73.33,597m0,33.12L702.84.56M736,.57,73.34,663.22m0,33.15L769.11.57m33.12,0L73.32,729.49m0,33.13L835.38.56m33.14,0L73.34,795.75m0,33.15L901.63.57m33.14,0L73.33,862m0,33.12L967.91.56m33.14,0L73.34,928.29m0,33.14L1034.16.57m33.14,0-994,994m33.14,0L1067.3,33.72m0,33.12L139.59,994.55m33.12,0L1067.3,100m0,33.13L205.86,994.56m33.12,0L1067.3,166.25m0,33.12L272.11,994.55m33.14,0L1067.31,232.5m0,33.13L338.38,994.56m33.14,0L1067.3,298.78m0,33.12L404.65,994.55m33.13,0L1067.3,365m0,33.12L470.92,994.56m33.13,0L1067.3,431.31m0,33.12L537.17,994.55m33.13,0,497-497m0,33.12L603.44,994.56m33.13,0L1067.3,563.84m0,33.12L669.71,994.55m33.15,0L1067.31,630.1m0,33.12L736,994.55m33.13,0L1067.3,696.37m0,33.12L802.23,994.55m33.15,0L1067.3,762.63m0,33.12L868.51,994.55m33.14,0L1067.31,828.9m0,33.13L934.77,994.56m33.15,0,99.39-99.4m0,33.12L1001,994.55m33.13,0,33.13-33.13"/></g><g class="cls-5"><path class="cls-7" d="M73.32,33.71,106.45.56m33.14,0L73.33,66.84m0,33.13L172.71.57m33.15,0L73.33,133.1m0,33.14L239,.56m33.13,0L73.32,199.37m0,33.13L305.24.57m33.14,0L73.32,265.63m0,33.14L371.51.56m33.14,0L73.33,331.91m0,33.12L437.78.57m33.14,0L73.33,398.16m0,33.14L504.05.56m33.12,0L73.32,464.44m0,33.12,497-497m33.16,0L73.32,530.69m0,33.15L636.57.57m33.14,0L73.33,597m0,33.12L702.84.56M736,.57,73.34,663.22m0,33.15L769.11.57m33.12,0L73.32,729.49m0,33.13L835.38.56m33.14,0L73.34,795.75m0,33.15L901.63.57m33.14,0L73.33,862m0,33.12L967.91.56m33.14,0L73.34,928.29m0,33.14L1034.16.57m33.14,0-994,994m33.14,0L1067.3,33.72m0,33.12L139.59,994.55m33.12,0L1067.3,100m0,33.13L205.86,994.56m33.12,0L1067.3,166.25m0,33.12L272.11,994.55m33.14,0L1067.31,232.5m0,33.13L338.38,994.56m33.14,0L1067.3,298.78m0,33.12L404.65,994.55m33.13,0L1067.3,365m0,33.12L470.92,994.56m33.13,0L1067.3,431.31m0,33.12L537.17,994.55m33.13,0,497-497m0,33.12L603.44,994.56m33.13,0L1067.3,563.84m0,33.12L669.71,994.55m33.15,0L1067.31,630.1m0,33.12L736,994.55m33.13,0L1067.3,696.37m0,33.12L802.23,994.55m33.15,0L1067.3,762.63m0,33.12L868.51,994.55m33.14,0L1067.31,828.9m0,33.13L934.77,994.56m33.15,0,99.39-99.4m0,33.12L1001,994.55m33.13,0,33.13-33.13"/></g></g></g><path class="cls-8" d="M787.38,308.36h273.49v62.92H787.38V308.36Zm0-115.39h273.49v62.92H787.38V193ZM462.71,301.29a98.64,98.64,0,0,1,86,146.94H1153V94.38H414.45V313.89a98.14,98.14,0,0,1,48.27-12.6Z"/><path class="cls-8" d="M204.61,400a98.67,98.67,0,0,1,146.92-86.06V94.38H78.92V448.23H217.2A98.31,98.31,0,0,1,204.61,400Z"/><polygon class="cls-8" points="289.73 617.44 245.22 572.95 307.04 511.14 78.92 511.14 78.92 776.8 351.52 776.8 351.52 555.65 289.73 617.44"/><polygon class="cls-8" points="520.77 572.95 476.26 617.44 414.45 555.65 414.45 776.8 1152.95 776.8 1152.95 511.14 458.96 511.14 520.77 572.95"/><path class="cls-8" d="M328.24,362.47A36.35,36.35,0,0,0,277,414c7,6.9,36.56,14.72,70.38,19.54C341.32,393,333.22,368.18,328.24,362.47Z"/><path class="cls-8" d="M464.87,352a36.1,36.1,0,0,0-25.7,10.64c-4.87,5.61-12.95,30.36-19,70.94C454,428.72,483.54,420.9,490.57,414a36.34,36.34,0,0,0-25.7-62Z"/></svg>